<?xml version="1.0" encoding="UTF-8"?>
<svg id="Otter_chef_Image" data-name="Otter_chef Image" xmlns="http://www.w3.org/2000/svg" xmlns:xlink="http://www.w3.org/1999/xlink" viewBox="0 0 293.83 58.49">
  <defs>
    <radialGradient id="radial-gradient" cx="147.77" cy="11.69" fx="147.77" fy="11.69" r="1.47" gradientUnits="userSpaceOnUse">
      <stop offset=".28" stop-color="#fff"/>
      <stop offset=".55" stop-color="#9d9d9d"/>
      <stop offset=".86" stop-color="#2c2c2c"/>
      <stop offset="1" stop-color="#000"/>
    </radialGradient>
  </defs>
  <polygon points="293.83 .14 0 0 0 58.49 293.83 58.38 293.83 .14" fill="#fff" stroke-width="0"/>
  <g>
    <g>
      <path d="M35.96,13.18c-3.59-3.35-9.01-5.12-16.62-5.12-2,0-3.91.08-5.71.22v4.48c1.39-.28,3.38-.49,5.95-.49,11.2,0,16.69,6.15,16.62,15.83,0,11.08-6.15,17.42-17.48,17.42-2.04,0-3.97-.06-5.31-.3v4.47c1.33.06,2.75.09,4.27.09,7.98,0,14.31-2.07,18.15-5.91,3.84-3.78,5.91-9.26,5.91-15.95s-2.13-11.39-5.79-14.74Z" fill="#000" stroke-width="0"/>
      <path d="M75.36,34.44c0,10.9-7.55,15.65-14.68,15.65-7.98,0-14.13-5.85-14.13-15.16,0-9.87,6.45-15.65,14.62-15.65s14.19,6.15,14.19,15.16ZM51.98,34.74c0,6.46,3.71,11.33,8.95,11.33s8.95-4.81,8.95-11.45c0-4.99-2.5-11.33-8.83-11.33s-9.07,5.85-9.07,11.45Z" fill="#000" stroke-width="0"/>
      <path d="M132.05,47.38l-.43-3.71h-.18c-1.64,2.31-4.81,4.38-9.01,4.38-5.97,0-9.01-4.2-9.01-8.46,0-7.12,6.33-11.02,17.72-10.96v-.61c0-2.44-.67-6.82-6.7-6.82-2.74,0-5.6.85-7.67,2.19l-1.22-3.53c2.44-1.58,5.97-2.62,9.68-2.62,9.01,0,11.2,6.15,11.2,12.06v11.02c0,2.56.12,5.05.49,7.06h-4.87ZM131.26,32.34c-5.85-.12-12.48.91-12.48,6.64,0,3.47,2.31,5.12,5.05,5.12,3.84,0,6.27-2.44,7.12-4.93.18-.55.3-1.16.3-1.71v-5.12Z" fill="#000" stroke-width="0"/>
      <path d="M151.49,12.11c.06,1.83-1.28,3.29-3.41,3.29-1.89,0-3.23-1.46-3.23-3.29s1.4-3.35,3.35-3.35,3.29,1.46,3.29,3.35Z" fill="url(#radial-gradient)" stroke-width="0"/>
      <path d="M159.33,25.89c0-3.04-.06-5.54-.24-7.98h4.75l.3,4.87h.12c1.46-2.8,4.87-5.54,9.74-5.54,4.08,0,10.41,2.44,10.41,12.54v17.6h-5.36v-16.99c0-4.75-1.77-8.71-6.82-8.71-3.53,0-6.27,2.5-7.19,5.48-.24.67-.37,1.58-.37,2.5v17.72h-5.36v-21.5Z" fill="#000" stroke-width="0"/>
      <path d="M209.45,47.38l-.43-3.71h-.18c-1.64,2.31-4.81,4.38-9.01,4.38-5.97,0-9.01-4.2-9.01-8.46,0-7.12,6.33-11.02,17.72-10.96v-.61c0-2.44-.67-6.82-6.7-6.82-2.74,0-5.6.85-7.67,2.19l-1.22-3.53c2.44-1.58,5.97-2.62,9.68-2.62,9.01,0,11.2,6.15,11.2,12.06v11.02c0,2.56.12,5.05.49,7.06h-4.87ZM208.66,32.34c-5.85-.12-12.48.91-12.48,6.64,0,3.47,2.31,5.12,5.05,5.12,3.84,0,6.27-2.44,7.12-4.93.18-.55.3-1.16.3-1.71v-5.12Z" fill="#000" stroke-width="0"/>
      <path d="M228.69,9.44v8.46h7.67v4.08h-7.67v15.89c0,3.65,1.04,5.72,4.02,5.72,1.4,0,2.44-.18,3.11-.37l.24,4.02c-1.04.43-2.68.73-4.75.73-2.5,0-4.51-.79-5.79-2.25-1.52-1.58-2.07-4.2-2.07-7.67v-16.08h-4.57v-4.08h4.57v-7.06l5.24-1.4Z" fill="#000" stroke-width="0"/>
      <path d="M268.7,32.4c0,10.9-7.55,15.65-14.68,15.65-7.98,0-14.13-5.85-14.13-15.16,0-9.87,6.45-15.65,14.62-15.65s14.19,6.15,14.19,15.16ZM245.32,32.71c0,6.46,3.71,11.33,8.95,11.33s8.95-4.81,8.95-11.45c0-4.99-2.5-11.33-8.83-11.33s-9.07,5.85-9.07,11.45Z" fill="#000" stroke-width="0"/>
      <path d="M275.46,27.1c0-3.47-.06-6.46-.24-9.2h4.69l.18,5.79h.24c1.34-3.96,4.57-6.46,8.16-6.46.61,0,1.04.06,1.52.18v5.05c-.55-.12-1.1-.18-1.83-.18-3.78,0-6.45,2.86-7.19,6.88-.12.73-.24,1.58-.24,2.5v15.71h-5.3v-20.28Z" fill="#000" stroke-width="0"/>
    </g>
    <g>
      <path d="M7.13,10.07c.15,0,.37-.05.41.12.06.24.03.51.03.77,0,.02-.03.04-.05.05-.14.02-.46-.18-.37.05.1.28.38.6.79.62.33.01.6-.15.56-.47-.16-1.07.46-.86,1.07-.7.15.04.3.07.45.1.15.03.34.28.43.07.08-.18-.21-.25-.36-.29-.26-.08-.53-.16-.79-.18-.51-.04-.81-.57-.55-1.03.02-.03.08-.06.11-.05.97.3,1.97.34,2.96.45.41.05.56.55.69.92.17.45,0,.88-.32,1.22-.57.6-1.29.95-2.05,1.25-.14.05-.33.07-.33.22,0,.09.15.21.25.29,1.23.95,2.11,2.21,2.61,3.63.45,1.29.33,2.67-.3,3.96-.69,1.43-1.76,2.48-3,3.39-.26.19-.5.35-.12.67.62.54,1.29,1.05,1.81,1.68.78.94,1.5,1.92,1.56,3.25.03.77.04,1.53-.06,2.27-.1.68-.43,1.32-.81,1.91-.49.75-1.2,1.29-1.79,1.94-.07.07-.13.13-.02.24,1.27,1.15,2.42,2.4,2.92,4.07.46,1.53.36,3.05-.34,4.54-.58,1.23-1.42,2.24-2.4,3.15-.8.74-1.46,1.61-2.35,2.25-.52.37-1.11.51-1.53.03-.41-.46-.24-1.07.16-1.54.23-.27.42-.36.02-.74-.84-.8-1.82-1.47-2.5-2.45-1.06-1.5-1.64-3.73-.6-5.69.35-.66.76-1.28,1.18-1.86.43-.59,1.05-1.05,1.62-1.53.44-.37.21-.58-.11-.82-.87-.66-1.63-1.4-2.13-2.41-.23-.47-.58-.87-.86-1.33-.46-.76-.21-1.51-.26-2.25-.08-1.4.55-2.55,1.5-3.55.27-.28.46-.65.75-.9.43-.36.29-.56-.04-.9-.84-.87-1.84-1.6-2.39-2.72-.21-.44-.4-.9-.59-1.34,0-1.08,0-2.16,0-3.25.32-.6.65-1.2.94-1.81.4-.85,1.15-1.35,1.85-1.9.29-.23.64-.37.96-.57.27-.17.34-.39.03-.57-.95-.52-1.62-1.35-2.35-2.1-.74-.77-1.23-1.76-.96-2.88.22-.91,1.05-.65,1.68-.72.89-.1,1.75.05,2.61.23.24.05.41.14.5.36.11.27.14.56-.04.78-.16.19-.37,0-.56-.04-.85-.12-1.7-.24-2.55-.36-.02,0-.06.04-.05.06.1.28.2.55.31.83.07-.04.13-.08.2-.13.04.06.06.15.11.16.71.18,1.42.35,2.14.52.04,0,.08-.01.13-.02-.04-.04-.08-.1-.13-.11-.47-.13-.94-.3-1.42-.38-.28-.04-.52-.31-.83-.17.04-.23.19-.15.33-.12.63.09,1.25.17,1.88.26.23.03.33.17.37.42.18.97-.35.87-.97.69-.15-.04-.32-.16-.47,0,.14.05.29.11.43.15.32.1.65.19.98.29-.38-.08-.77-.15-1.15-.23-.1-.02-.22-.1-.25.06-.03.16.11.15.2.18.36.09.71.19,1.07.26.14.03.35.22.44,0,.09-.23-.22-.16-.31-.27ZM6.79,25.86c1.12-.88,2.17-1.66,3.17-2.49,1.7-1.41,2.88-3.1,2.48-5.46-.32-1.91-1.64-3.2-2.94-4.49-.03-.03-.16.02-.24.03.02.05.02.12.05.15.55.37.98.87,1.38,1.38,1.05,1.35,1.82,2.79,1.35,4.61-.07.29-.47.4-.33.76.02.05-.09.15-.14.23-.03-.09-.07-.18-.07-.28,0-.39,0-.78,0-1.16,0-.05-.02-.1-.04-.15-.03.04-.07.08-.08.13-.17,1.58-1.24,2.55-2.37,3.47-1.36,1.11-2.84,2.09-4.04,3.41-1.35,1.49-2.22,3.18-1.76,5.26.4,1.77,1.66,2.97,2.92,4.18.55.53.96.7,1.49.03.17-.22.18-.28-.05-.42-.25-.16-.68-.35-.09-.65.1-.05.09-.17-.03-.15-.65.11-1.04-.31-1.45-.69,0,0-.02,0-.02-.01-.06-.05-.12-.11-.17-.16.07-.06.14-.17.22-.19.34-.05.69-.08,1.03-.11.24-.02.32.08.32.32,0,.27-.17.21-.33.23-.16.01-.44-.1-.45.11-.01.22.24.33.49.33.58,0,1.18-.04,1.75.05.23.04.34.01.47-.13.07-.08.13-.17.19-.26-.16-.02-.33-.03-.49-.04-.1,0-.21.01-.31,0-.3-.05-.44-.28-.45-.54-.02-.27.19-.38.45-.39.51,0,1.03,0,1.54-.03.29-.02.37-.29.4-.5.04-.24-.21-.14-.32-.14-.42,0-.84,0-1.25.04-.32.03-.42-.13-.44-.4-.02-.27.09-.42.38-.44.57-.03,1.14-.08,1.71-.12.1,0,.26,0,.3-.06.24-.41-.06-1.54-.48-1.81-.46-.3-.99-.25-1.49-.26-.44,0-.5-.25-.47-.6.04-.33.3-.17.45-.17.25,0,.51.05.77.07.05,0,.11-.02.16-.02-.03-.05-.05-.1-.08-.14-.19-.29-.43-.16-.7-.19-.96-.1-1.89-.38-2.84-.6-.17-.04-.31-.3-.49-.11-.17.18-.29.42-.43.64.19.04.38.08.57.12.21.04.43.07.65.08.29.02.45.17.36.43-.22.67-.82.13-1.2.34-.03.02-.12-.04-.16-.08-.17-.15-.43-.23-.54-.09-.18.23-.26.55-.37.84,0,.02.07.09.11.09.59,0,1.17,0,1.76,0,.1,0,.2-.12.29.03.12.21.08.43.04.63-.01.06-.18.12-.28.12-.6.01-1.22-.05-1.81.04-.49.07-.18.52-.21.8-.01.15.05.2.22.2.63-.03,1.25-.05,1.88-.06.14,0,.28.03.26.21-.02.17.02.41-.25.43-.46.04-.91.07-1.37.1-.08,0-.17.03-.25.05.04.08.07.18.13.24.26.26.53.47.96.39.32-.06.66-.02.99-.01.04,0,.09.04.13.07-.03.02-.06.06-.09.07-.81.27-1.82-.07-2.3-.77-.17-.26-.13-.41.2-.42.52-.02,1.04-.03,1.57-.06.06,0,.12-.07.19-.1-.06-.04-.11-.11-.17-.11-.55,0-1.11-.06-1.63.06-.43.09-.57-.06-.66-.38-.08-.29-.19-.55-.55-.37-.99.48-.53-.44-.54-.65-.04-1.18.37-2.22,1.09-3.16.5-.64,1-1.26,1.69-1.7.21-.13.45-.29.69-.14.26.16.1.4-.03.74ZM11.16,18.68c-.06.14-.12.18-.29.2-.64.05-1.25-.12-1.88-.17-.34-.03-.57-.23-.49-.62.06-.3.33-.16.48-.15.46.02.91.11,1.36.14.21.02.43-.02.65-.03-.13-.15-.08-.38-.28-.51-.46-.32-1-.24-1.5-.38-.24-.07-.54-.05-.66-.36-.08-.19.02-.33.13-.43.28-.23.59-.09.9-.02.13.03.28.02.42.02,0,0,.03-.07.01-.08-.11-.13-.24-.39-.34-.37-.75.09-1.37-.39-2.08-.44-.6-.04-1.14-.73-1.8-.18-.15.13-.3.26-.44.39.16.05.32.1.49.14.32.07.65.12.97.19.15.03.22.14.16.27-.08.17-.01.48-.28.47-.33-.01-.67-.08-.98-.19-.63-.22-1.34,0-1.53.51-.04.09-.08.19.08.21.62.1,1.25.18,1.87.3.21.04.57-.1.6.2.02.2-.05.62-.42.59-.66-.05-1.31-.18-1.97-.27-.16-.02-.43-.28-.46-.02-.04.33-.39.86.2,1,.63.15,1.3.15,1.95.22.25.03.53.08.5.42-.02.32-.16.51-.55.45-.5-.08-1-.12-1.51-.16-.15-.01-.44-.13-.41.18.03.3.03.7.45.75.5.06,1.01.04,1.52.06.23,0,.44.02.44.34,0,.31-.14.44-.46.42-.34-.02-.69,0-.98,0,.26.93,1.03.75,1.72.74.58,0,1.17-.1,1.73,0,.38.06.46-.21.68-.33.04-.02.04-.11.07-.17-.18-.02-.36-.04-.54-.06-.08,0-.16,0-.24,0-.43-.06-.41-.39-.4-.7.01-.31.25-.23.43-.23.49,0,.98,0,1.47,0,.28,0,.32-.28.48-.42-.1-.08-.2-.21-.31-.22-.36-.03-.73.01-1.09-.03-.23-.03-.5.14-.68-.11-.15-.2,0-.42.07-.59.09-.24.34-.11.54-.1.49.03.97.06,1.46.08.19,0,.45.25.54.06.14-.3.14-.67.2-1ZM6.88,44.94c.38,0,.66,0,.93,0,.29-.01.54-.02.54.4,0,.37-.14.53-.51.53-.35,0-.69.02-1.04.03-.06,0-.13.04-.19.06.04.05.07.11.11.15.44.34.96.22,1.46.28.65.07,1.36.34,1.59-.63.01-.05.07-.1.1-.15-.06.01-.12.03-.18.04-.41.05-.89.36-1.16-.23-.07-.16-.12-.43.13-.5.52-.15,1.06-.18,1.6-.12.08,0,.03.23.1.13.17-.25.28-.56.41-.84-.09-.02-.19-.07-.28-.06-.4.01-.8.03-1.2.06-.24.02-.36-.15-.38-.32-.02-.18.02-.42.3-.44.43-.03.86-.08,1.3-.1.53-.02.88-.53.68-1.04,0-.02-.05-.03-.07-.03-.68.06-1.36.12-2.03.17-.26.02-.24-.18-.26-.35-.02-.19.02-.34.26-.35.57-.03,1.14-.06,1.71-.1.13,0,.34.03.28-.18-.07-.25-.08-.64-.4-.66-.47-.03-.96.07-1.44.12-.28.03-.48-.05-.51-.37-.02-.29.06-.48.41-.47.35.01.7,0,1.06-.02.07,0,.14-.02.2-.04-.02-.07-.03-.15-.06-.22-.35-.77-1.03-.34-1.57-.42-.3-.05-.5-.11-.49-.45.01-.35.23-.42.53-.37.13.02.27.03.41.04.07,0,.14,0,.21,0-.04-.06-.07-.12-.11-.17-.17-.19-.36-.37-.5-.58-.02-.03.07-.18-.06-.25-.13-.07-.25-.09-.38.02-.26.23-.51.46-.78.68-.12.1-.26.16-.39.24.16.02.33.03.49.05.2.02.48-.08.48.27,0,.34-.1.54-.51.51-.41-.03-.82-.01-1.23.03-.36.04-.56.38-.62.65-.03.14.38.04.59.08.05,0,.1,0,.14,0,.31,0,.46.13.46.48,0,.35-.21.32-.44.32-.41,0-.83-.05-1.23.01-.43.06-.38.5-.45.8-.04.22.23.17.37.17.47,0,.93-.02,1.4-.03.21,0,.32.11.32.31,0,.17-.03.36-.26.37-.54.03-1.09.06-1.63.09-.16,0-.46-.03-.4.18.08.27-.12.78.42.78.59,0,1.17-.04,1.76-.07.17,0,.34.02.4.2.06.19.12.44-.15.51-.48.11-.97.17-1.46.25-.09.02-.17.06-.26.1.05.07.08.15.14.21.41.51.97.12,1.34.25ZM3.19,42.26c.17-.54.27-1.09.51-1.57.93-1.92,2.4-3.37,4.08-4.66,1.37-1.04,2.66-2.18,3.59-3.67.66-1.06,1.14-2.13.55-3.4-.7-1.54-1.98-2.56-3.17-3.66-.09-.09-.18-.25-.34-.14-.2.14-.38.31-.57.47.11.1.23.19.33.29.05.05.08.12.12.18-.07.02-.17.07-.21.05-.43-.28-.83-.29-1.21.08-.06.06-.12.11-.18.17.06.05.11.12.18.14.4.12.8.23,1.2.34.19.05.36.18.57.08-.16-.16-.31-.32-.47-.48-.03-.03-.09-.04-.13-.07.02-.03.04-.09.06-.09.05,0,.13.01.15.05.29.56,1.13.56,1.29,1.3.06.28.41.51.62.76-.37-.02-.74-.05-1.11-.06-.13,0-.37-.08-.38.08,0,.19.23.08.36.11.5.11,1.16-.15,1.47.24.32.4.6.92.68,1.49.23,1.7-.59,2.94-1.7,4.05-1.57,1.57-3.51,2.74-4.9,4.5-.8,1.01-1.38,2.11-1.4,3.45ZM3.37,18.76c0,.16,0,.32,0,.48,0,.08-.08.21-.12.11-.19-.49-.86-.69-.73-1.41.21-1.09.69-2.03,1.43-2.83,1.6-1.73,3.71-2.62,5.81-3.53.69-.3,1.42-.55,1.96-1.12.11-.12.16-.26.07-.39-.07-.09-.19-.14-.29-.2-.01.11,0,.23-.05.32-.05.14-.12.29-.22.38-.48.43-1.08.63-1.66.87-2.17.9-4.31,1.88-5.88,3.72-1.17,1.37-1.74,2.94-1.37,4.75.36,1.74,1.54,2.97,2.74,4.18.54.55.97.73,1.44-.02.04-.07.12-.11.18-.17-.08-.08-.16-.22-.26-.24-.32-.06-.48-.32-.7-.52-.09-.08-.07-.17.08-.19.25-.02.5-.05.74-.1.19-.04.38-.12.57-.19-.19-.01-.37-.03-.56-.04-.37,0-.81.13-1.1-.02-.37-.2-.62-.62-.91-.95-.06-.07-.1-.16-.14-.24.1-.02.2-.05.29-.06.44,0,.89,0,1.33,0,.1,0,.23.03.25-.12,0-.03-.15-.1-.23-.11-.34-.02-.69-.05-1.04-.03-.6.04-1.03-.1-1.24-.75-.17-.53-.27-1.05-.38-1.59ZM6.6,50.35c0-.57.1-.87.38-1.12,2.07-1.82,4.01-3.76,5.02-6.42.19-.49.61-.99.57-1.46-.18-1.95-1.47-3.26-2.83-4.5-.1-.09-.31-.35-.35-.23-.09.32-.9.13-.46.92.37.66.96,1.06,1.37,1.65,1.03,1.52,1.55,3.05.84,4.81-.8,1.99-2.36,3.39-3.92,4.77-.42.37-.84.7-.61,1.58ZM6.31,12.32c-.42-.41-.85-.82-1.25-1.24-.77-.82-1.57-1.62-1.97-2.72-.25-.69.01-1.21.74-1.29.98-.1,1.92.11,2.86.33.07.02.14,0,.21,0-.06-.05-.11-.12-.18-.13-.85-.21-1.72-.36-2.6-.38-1.28-.02-1.73.74-1.1,1.87.8,1.45,2.08,2.47,3.29,3.54ZM9.29,15.03c-.09.02-.04,0,0,0-.01-.05-.02-.11-.04-.15-.27-.47-.65-.81-1.21-.83-.18,0-.36.19-.54.31,0,0,.02.12.05.13.54.16,1.02.51,1.73.54ZM9.03,42.17c0-.13,0-.25.14-.25.57-.02,1.14-.04,1.71-.06.08,0,.22.08.24-.07.02-.14-.12-.19-.24-.18-.54.03-1.07.08-1.61.1-.3.01-.46.09-.24.46ZM5.24,15.85c-.05.03-.13.08-.21.13.04.04.08.09.13.1.42.11.84.22,1.27.3.15.02.31-.07.47-.11-.05-.05-.09-.14-.15-.15-.49-.09-.98-.17-1.52-.26ZM5.81,42.1h0c.3,0,.61,0,.91,0,.05,0,.1-.05.15-.07-.05-.05-.1-.13-.14-.13-.59,0-1.19,0-1.78.02-.05,0-.1.07-.16.11.06.03.12.07.17.07.28,0,.56,0,.84,0ZM9.2,45.2c.14,0,.26,0,.37-.03.19-.04.54.09.53-.18,0-.19-.35-.06-.55-.07-.1,0-.21,0-.31.02-.21.05-.59-.13-.59.16,0,.21.38.01.55.09ZM4.45,19.32c-.06.01-.2.04-.33.06.05.03.09.08.14.09.63.05,1.26.1,1.9.14.05,0,.09-.03.14-.05-.05-.03-.09-.07-.14-.07-.54-.06-1.09-.11-1.71-.17ZM9.36,43.56c.5-.04,1.01-.07,1.51-.12.05,0,.09-.04.13-.07-.05-.02-.1-.06-.14-.05-.5.03-.99.06-1.49.09-.1,0-.2.05-.3.07.07.16.2.02.29.07ZM9.63,40.02c-.27.02-.47.02-.67.04-.03,0-.06.06-.1.09.03.01.05.04.08.04.42.02.83.05,1.25.06.12,0,.26.06.35-.09-.1-.04-.21-.1-.31-.11-.22-.03-.45-.03-.6-.03ZM10.23,16.78c.08-.02.17-.05.26-.07-.02-.02-.04-.05-.07-.06-.5-.09-.99-.18-1.49-.27-.03,0-.08.04-.12.05.03.02.06.05.09.06.44.1.87.19,1.32.28ZM10.73,19.91s0-.06,0-.09c-.7-.07-1.41-.14-2.11-.21,0,.03,0,.06,0,.08.7.07,1.41.15,2.11.22ZM6.81,28.33s0-.05,0-.07c-.45-.07-.91-.13-1.36-.19-.04,0-.09.04-.14.06.02.02.04.05.06.06.48.05.95.1,1.43.15ZM5.59,40.23h1.21s0-.05-.02-.06c-.4-.11-.79-.04-1.18.02,0,0,0,.01-.01.04Z" fill="#000" stroke-width="0"/>
      <path d="M10.14,29.69c.14,0,.28-.01.41,0,.28.03.37.19.36.47-.01.29-.17.24-.37.24-.48-.02-.96.01-1.44.01-.22,0-.45,0-.46-.32,0-.3.15-.37.43-.36.36.01.72-.03,1.08-.04ZM9.35,30c.34-.06.69.05,1-.14-.31,0-.62-.02-.93-.03-.02,0-.03,0-.05,0-.19.05-.53-.16-.54.07-.01.2.35,0,.52.1Z" fill="#000" stroke-width="0"/>
    </g>
    <g>
      <path d="M147.65,21.45c.1,0,.25-.03.28.08.04.17.02.35.02.52,0,.01-.02.03-.03.03-.09.01-.31-.12-.25.04.07.19.26.41.54.42.22,0,.41-.1.38-.32-.11-.73.31-.58.73-.47.1.03.2.05.3.07.1.02.23.19.29.05.05-.12-.14-.17-.25-.2-.18-.05-.36-.11-.54-.12-.34-.03-.55-.39-.37-.69.01-.02.05-.04.07-.04.65.2,1.33.23,2.01.31.28.03.38.38.47.62.12.31,0,.59-.22.83-.38.41-.88.64-1.39.84-.09.04-.22.05-.22.15,0,.06.1.14.17.2.83.64,1.43,1.49,1.77,2.46.31.88.22,1.81-.2,2.69-.46.97-1.19,1.68-2.04,2.3-.18.13-.34.23-.08.45.42.37.87.71,1.23,1.14.53.63,1.01,1.3,1.05,2.2.02.52.03,1.04-.04,1.54-.07.46-.29.9-.55,1.3-.33.51-.81.87-1.21,1.32-.04.05-.09.09-.01.16.86.78,1.64,1.62,1.98,2.76.31,1.04.24,2.07-.23,3.07-.39.84-.96,1.52-1.63,2.13-.54.5-.99,1.09-1.59,1.52-.35.25-.75.35-1.04.02-.28-.31-.16-.73.11-1.04.15-.18.29-.24.01-.5-.57-.54-1.23-1-1.69-1.66-.72-1.02-1.11-2.53-.41-3.86.24-.45.51-.87.8-1.26.29-.4.71-.71,1.1-1.03.3-.25.14-.39-.07-.55-.59-.45-1.1-.95-1.44-1.63-.16-.32-.4-.59-.58-.9-.31-.51-.15-1.02-.17-1.52-.06-.95.38-1.73,1.02-2.41.18-.19.31-.44.51-.61.29-.24.19-.38-.03-.61-.57-.59-1.25-1.08-1.62-1.84-.14-.3-.27-.61-.4-.91,0-.73,0-1.47,0-2.2.21-.41.44-.81.64-1.23.27-.58.78-.91,1.25-1.29.2-.16.44-.25.65-.39.18-.11.23-.27.02-.38-.64-.35-1.1-.92-1.59-1.43-.5-.52-.84-1.19-.65-1.95.15-.62.71-.44,1.14-.49.6-.07,1.18.03,1.77.16.16.03.27.1.34.24.08.18.1.38-.03.53-.11.13-.25,0-.38-.02-.58-.08-1.15-.16-1.73-.24-.01,0-.04.03-.04.04.07.19.14.38.21.56.05-.03.09-.06.14-.09.02.04.04.1.07.11.48.12.96.24,1.45.35.03,0,.06,0,.08-.02-.03-.03-.05-.07-.09-.08-.32-.09-.63-.21-.96-.25-.19-.03-.35-.21-.56-.12.03-.16.13-.1.23-.08.42.06.85.12,1.27.18.16.02.22.11.25.28.12.66-.24.59-.66.47-.1-.03-.21-.11-.32,0,.1.03.2.07.29.1.22.07.44.13.66.2-.26-.05-.52-.1-.78-.16-.06-.01-.15-.07-.17.04-.02.11.08.1.14.12.24.06.48.13.73.17.1.02.24.15.3,0,.06-.15-.15-.11-.21-.19ZM147.41,32.14c.76-.6,1.47-1.12,2.15-1.69,1.15-.96,1.95-2.1,1.68-3.7-.22-1.29-1.11-2.17-1.99-3.04-.02-.02-.11.01-.16.02.01.03.01.08.03.1.37.25.66.59.93.93.71.92,1.23,1.89.92,3.12-.05.19-.32.27-.23.51.01.03-.06.1-.09.15-.02-.06-.05-.12-.05-.19,0-.26,0-.52,0-.79,0-.04-.02-.07-.03-.1-.02.03-.05.06-.05.09-.12,1.07-.84,1.73-1.6,2.35-.92.75-1.93,1.42-2.73,2.31-.91,1.01-1.51,2.16-1.19,3.56.27,1.2,1.13,2.01,1.98,2.83.37.36.65.47,1.01.02.12-.15.12-.19-.03-.29-.17-.11-.46-.24-.06-.44.07-.04.06-.11-.02-.1-.44.08-.7-.21-.98-.47,0,0-.01,0-.01,0-.04-.04-.08-.07-.12-.11.05-.04.1-.12.15-.13.23-.04.46-.05.7-.08.16-.02.22.05.22.22,0,.18-.11.14-.22.15-.11.01-.3-.07-.31.07,0,.15.16.22.33.22.4,0,.8-.03,1.18.03.16.02.23,0,.32-.09.05-.05.09-.12.13-.18-.11-.01-.22-.02-.33-.03-.07,0-.14,0-.21,0-.2-.03-.3-.19-.31-.37-.01-.19.13-.26.31-.26.35,0,.7,0,1.04-.02.19-.01.25-.2.27-.34.02-.16-.14-.09-.22-.09-.28,0-.57,0-.85.03-.22.02-.28-.09-.3-.27-.02-.19.06-.29.26-.3.39-.02.77-.05,1.16-.08.07,0,.18,0,.2-.04.16-.28-.04-1.04-.33-1.23-.31-.2-.67-.17-1.01-.17-.3,0-.34-.17-.32-.41.02-.23.2-.11.31-.12.17,0,.35.03.52.05.03,0,.07-.01.11-.02-.02-.03-.03-.06-.05-.1-.13-.2-.29-.11-.48-.13-.65-.07-1.28-.26-1.92-.41-.11-.03-.21-.2-.33-.08-.12.12-.2.29-.29.43.13.03.26.06.39.08.14.02.29.05.44.06.19.01.31.11.25.29-.15.45-.55.09-.81.23-.02.01-.08-.03-.11-.06-.11-.1-.29-.15-.37-.06-.12.16-.17.37-.25.57,0,.01.05.06.08.06.4,0,.79,0,1.19,0,.07,0,.13-.08.19.02.08.14.06.29.03.43,0,.04-.12.08-.19.08-.41,0-.82-.04-1.22.02-.33.05-.12.35-.14.54,0,.1.04.14.15.13.42-.02.85-.03,1.27-.04.1,0,.19.02.17.14-.02.11.02.28-.17.29-.31.03-.62.04-.93.07-.06,0-.11.02-.17.03.03.06.05.12.09.16.18.18.36.32.65.27.22-.04.45-.01.67,0,.03,0,.06.03.09.05-.02.02-.04.04-.06.05-.55.18-1.23-.05-1.56-.52-.12-.17-.09-.28.14-.29.35-.01.71-.02,1.06-.04.04,0,.08-.05.13-.07-.04-.03-.08-.07-.11-.07-.37,0-.75-.04-1.11.04-.29.06-.38-.04-.45-.26-.06-.2-.13-.37-.37-.25-.67.32-.36-.3-.37-.44-.03-.8.25-1.5.74-2.14.34-.43.68-.85,1.15-1.15.14-.09.31-.19.47-.09.17.11.07.27-.02.5ZM150.37,27.28c-.04.09-.08.12-.2.13-.43.04-.85-.08-1.27-.11-.23-.02-.39-.16-.33-.42.04-.2.22-.11.33-.1.31.01.61.07.92.1.15.01.29-.01.44-.02-.08-.1-.06-.26-.19-.35-.31-.22-.68-.16-1.02-.26-.16-.04-.36-.03-.45-.24-.05-.13.01-.23.09-.29.19-.15.4-.06.61-.01.09.02.19.01.28.02,0,0,.02-.05,0-.05-.07-.09-.16-.26-.23-.25-.51.06-.93-.27-1.41-.3-.41-.03-.78-.49-1.22-.12-.1.09-.2.18-.3.26.11.03.22.07.33.09.22.05.44.08.66.13.1.02.15.1.11.18-.05.11,0,.33-.19.32-.22,0-.45-.06-.66-.13-.43-.15-.91,0-1.04.35-.02.06-.06.13.05.15.42.07.85.12,1.27.2.14.03.39-.07.41.13.01.13-.03.42-.28.4-.45-.04-.89-.12-1.33-.18-.11-.02-.29-.19-.31-.02-.03.22-.27.58.13.68.43.1.88.1,1.32.15.17.02.36.06.34.29-.01.22-.11.35-.37.3-.34-.06-.68-.08-1.02-.11-.1,0-.3-.09-.28.13.02.2.02.47.31.51.34.04.68.03,1.03.04.16,0,.3.01.3.23,0,.21-.1.3-.31.28-.23-.02-.46,0-.66,0,.17.63.69.51,1.16.5.39,0,.79-.06,1.17,0,.26.04.31-.14.46-.22.03-.01.03-.07.04-.11-.12-.01-.24-.03-.36-.04-.05,0-.11,0-.16,0-.29-.04-.28-.27-.27-.48,0-.21.17-.16.29-.16.33,0,.67,0,1,0,.19,0,.22-.19.32-.28-.07-.05-.14-.15-.21-.15-.24-.02-.49,0-.74-.02-.15-.02-.34.09-.46-.07-.1-.14,0-.29.05-.4.06-.16.23-.08.36-.07.33.02.66.04.99.06.13,0,.3.17.37.04.1-.2.1-.45.14-.68ZM147.47,45.06c.26,0,.45,0,.63,0,.2,0,.37-.01.37.27,0,.25-.09.36-.34.36-.23,0-.47.01-.7.02-.04,0-.09.03-.13.04.03.03.05.07.08.1.3.23.65.15.99.19.44.05.92.23,1.08-.43,0-.04.04-.07.07-.1-.04,0-.08.02-.12.02-.28.04-.6.25-.78-.16-.05-.11-.08-.29.09-.34.35-.1.72-.12,1.08-.08.06,0,.02.16.07.09.12-.17.19-.38.28-.57-.06-.02-.13-.05-.19-.04-.27,0-.54.02-.82.04-.16.01-.24-.1-.26-.22-.01-.12.01-.28.2-.3.29-.02.59-.06.88-.07.36-.01.59-.36.46-.7,0-.01-.03-.02-.05-.02-.46.04-.92.08-1.38.11-.18.01-.16-.13-.18-.24-.01-.13.01-.23.17-.24.39-.02.77-.04,1.16-.07.09,0,.23.02.19-.12-.05-.17-.05-.43-.27-.45-.32-.02-.65.05-.97.08-.19.02-.33-.03-.34-.25-.02-.2.04-.33.28-.32.24,0,.48,0,.72-.01.05,0,.09-.02.14-.02-.01-.05-.02-.1-.04-.15-.24-.52-.7-.23-1.06-.29-.2-.03-.34-.08-.33-.3,0-.24.16-.28.36-.25.09.02.18.02.28.03.05,0,.09,0,.14,0-.03-.04-.05-.08-.08-.12-.12-.13-.24-.25-.34-.39-.02-.02.05-.12-.04-.17-.09-.05-.17-.06-.26.01-.17.16-.35.31-.53.46-.08.07-.18.11-.26.16.11.01.22.02.33.04.13.02.32-.06.33.18,0,.23-.07.37-.35.35-.28-.02-.56,0-.83.02-.24.03-.38.26-.42.44-.02.1.26.03.4.06.03,0,.07,0,.1,0,.21,0,.31.09.31.32,0,.23-.14.22-.29.22-.28,0-.56-.03-.83,0-.29.04-.26.34-.3.54-.03.15.15.12.25.12.32,0,.63-.02.95-.02.14,0,.22.07.22.21,0,.12-.02.24-.17.25-.37.02-.74.04-1.11.06-.11,0-.31-.02-.27.12.05.18-.08.53.28.53.4,0,.79-.03,1.19-.04.12,0,.23.01.27.14.04.13.08.3-.1.34-.33.08-.66.11-.99.17-.06.01-.12.04-.18.06.03.05.06.1.09.15.28.35.66.08.91.17ZM144.98,43.24c.12-.36.19-.74.35-1.07.63-1.3,1.62-2.29,2.76-3.15.93-.71,1.8-1.48,2.43-2.49.45-.72.77-1.44.37-2.3-.48-1.04-1.34-1.73-2.15-2.48-.06-.06-.12-.17-.23-.1-.14.1-.26.21-.39.32.08.06.15.13.23.2.03.03.05.08.08.12-.05.01-.11.05-.14.03-.29-.19-.56-.2-.82.06-.04.04-.08.08-.12.12.04.03.08.08.12.09.27.08.54.15.81.23.13.04.25.12.39.05-.11-.11-.21-.22-.32-.32-.02-.02-.06-.03-.09-.04.01-.02.03-.06.04-.06.03,0,.09,0,.1.03.2.38.77.38.88.88.04.19.28.34.42.51-.25-.02-.5-.04-.75-.04-.09,0-.25-.05-.26.05,0,.13.16.06.24.07.34.07.78-.1,1,.16.22.27.41.62.46,1.01.16,1.15-.4,1.99-1.15,2.74-1.06,1.06-2.37,1.85-3.32,3.05-.54.68-.94,1.43-.95,2.33ZM145.1,27.33c0,.11,0,.22,0,.32,0,.05-.06.14-.08.07-.13-.33-.58-.47-.49-.95.14-.74.47-1.37.97-1.91,1.08-1.17,2.51-1.77,3.94-2.39.47-.2.96-.37,1.32-.76.08-.08.11-.18.04-.27-.04-.06-.13-.09-.2-.14,0,.07,0,.15-.03.22-.04.09-.08.2-.15.26-.32.29-.73.43-1.12.59-1.47.61-2.92,1.27-3.98,2.52-.79.92-1.18,1.99-.93,3.22.25,1.18,1.04,2.01,1.86,2.83.37.37.66.5.98-.01.03-.05.08-.08.12-.11-.06-.06-.11-.15-.17-.16-.22-.04-.33-.22-.47-.35-.06-.06-.05-.12.05-.13.17-.02.34-.03.5-.07.13-.03.26-.08.39-.13-.13,0-.25-.02-.38-.02-.25,0-.55.09-.75-.02-.25-.13-.42-.42-.62-.65-.04-.05-.06-.11-.1-.16.07-.01.13-.04.2-.04.3,0,.6,0,.9,0,.07,0,.16.02.17-.08,0-.02-.1-.07-.16-.07-.23-.01-.47-.04-.7-.02-.41.03-.7-.06-.84-.51-.11-.36-.19-.71-.26-1.08ZM147.29,48.73c0-.39.07-.59.26-.76,1.4-1.24,2.71-2.55,3.4-4.35.13-.33.41-.67.39-.99-.12-1.32-1-2.21-1.92-3.05-.07-.06-.21-.24-.24-.15-.06.22-.61.09-.31.62.25.45.65.71.93,1.12.7,1.03,1.05,2.06.57,3.26-.54,1.35-1.6,2.29-2.66,3.23-.28.25-.57.48-.42,1.07ZM147.09,22.97c-.28-.28-.57-.55-.84-.84-.52-.56-1.06-1.1-1.33-1.84-.17-.47,0-.82.5-.87.66-.07,1.3.07,1.94.22.04.01.09,0,.14,0-.04-.03-.08-.08-.12-.09-.58-.14-1.17-.25-1.76-.25-.87-.01-1.17.5-.75,1.27.54.98,1.41,1.67,2.23,2.4ZM149.11,24.8c-.06.01-.03,0,0,0,0-.03-.01-.07-.03-.1-.18-.32-.44-.55-.82-.56-.12,0-.25.13-.37.21,0,0,.02.08.04.09.37.11.69.34,1.17.37ZM148.93,43.19c0-.09,0-.17.09-.17.38-.01.77-.03,1.16-.04.06,0,.15.05.16-.04.01-.1-.08-.13-.16-.12-.36.02-.73.05-1.09.07-.2,0-.31.06-.16.31ZM146.36,25.35s-.09.05-.14.09c.03.02.06.06.09.07.29.07.57.15.86.2.1.02.21-.05.32-.07-.03-.04-.06-.09-.1-.1-.33-.06-.66-.12-1.03-.18ZM146.75,43.14h0c.21,0,.41,0,.62,0,.03,0,.07-.03.1-.05-.03-.03-.07-.09-.1-.09-.4,0-.8,0-1.21.01-.04,0-.07.05-.11.08.04.02.08.05.12.05.19,0,.38,0,.57,0ZM149.05,45.24c.1,0,.17,0,.25-.02.13-.02.37.06.36-.12,0-.13-.24-.04-.37-.04-.07,0-.14,0-.21.02-.14.03-.4-.09-.4.11,0,.14.26,0,.37.06ZM145.83,27.71s-.13.02-.23.04c.03.02.06.06.1.06.43.04.86.07,1.28.1.03,0,.06-.02.1-.04-.03-.02-.06-.05-.09-.05-.37-.04-.74-.07-1.16-.11ZM149.15,44.12c.34-.03.68-.05,1.02-.08.03,0,.06-.03.09-.05-.03-.01-.07-.04-.1-.04-.34.02-.67.04-1.01.06-.07,0-.14.03-.21.05.05.11.14.02.2.05ZM149.34,41.73c-.18.01-.32.02-.45.03-.02,0-.04.04-.07.06.02,0,.04.02.06.02.28.02.56.03.85.04.08,0,.18.04.23-.06-.07-.03-.14-.07-.21-.07-.15-.02-.3-.02-.41-.02ZM149.75,25.99c.06-.02.12-.03.18-.05-.01-.01-.03-.04-.05-.04-.34-.06-.67-.12-1.01-.18-.02,0-.05.02-.08.04.02.01.04.04.06.04.3.06.59.13.9.19ZM150.09,28.11s0-.04,0-.06c-.48-.05-.96-.1-1.43-.14,0,.02,0,.04,0,.06.48.05.95.1,1.43.15ZM147.43,33.81s0-.03,0-.05c-.31-.04-.61-.09-.92-.13-.03,0-.06.03-.09.04.01.01.03.04.04.04.32.04.64.07.97.1ZM146.6,41.87h.82s0-.04-.01-.04c-.27-.07-.54-.03-.8.01,0,0,0,0,0,.03Z" fill="#000" stroke-width="0"/>
      <path d="M149.68,34.73c.09,0,.19,0,.28,0,.19.02.25.13.24.32,0,.2-.11.17-.25.16-.33-.01-.65,0-.98,0-.15,0-.31,0-.31-.21,0-.2.1-.25.29-.25.24,0,.49-.02.73-.03ZM149.15,34.94c.23-.04.47.03.68-.09-.21,0-.42-.01-.63-.02-.01,0-.02,0-.03,0-.13.03-.36-.11-.37.05,0,.13.24,0,.35.07Z" fill="#000" stroke-width="0"/>
    </g>
  </g>
  <g>
    <polygon points="99.27 13.93 99.27 13.93 99.3 13.99 99.27 13.93" fill="#000" stroke-width="0"/>
    <path d="M110.6,56.55c-.05-.14-.1-.28-.17-.41-.38-.66-.79-1.31-1.16-1.97-.53-.92-.96-1.87-1.29-2.86-.41-1.24-.72-2.5-.93-3.79-.15-.9-.27-1.81-.3-2.72-.05-1.38-.02-2.76-.01-4.14,0-.13.04-.25.08-.38.02-.06.08-.13.15-.15.27-.08.42-.27.52-.48.13-.27.24-.55.32-.84.12-.47.18-.95.32-1.42.19-.61.41-1.21.66-1.8.31-.73.55-1.48.7-2.25.18-.95.32-1.92.43-2.88.1-.85.13-1.7.18-2.55.02-.34.03-.67.05-1.01.02-.33.08-.65.08-.97.01-.76,0-1.53,0-2.29.02-.87-.08-1.72-.28-2.57-.17-.71-.38-1.42-.57-2.13-.11-.4-.22-.8-.3-1.21-.08-.42-.11-.85-.16-1.27-.07-.59-.15-1.18-.23-1.77,0-.02.03-.05.06-.09.34.14.48.46.79.62-.04-.11-.1-.2-.18-.28-.16-.15-.33-.3-.5-.44-.15-.12-.22-.24-.14-.44.25.15.49.29.73.44.02-.02.04-.04.05-.06-.07-.06-.14-.13-.22-.19-.13-.09-.27-.18-.42-.25-.18-.08-.28-.19-.26-.37,0-.05-.01-.1-.02-.15-.09-.46-.19-.92.23-1.31,0,0,.01-.02.02-.03.17-.25.16-.49-.01-.73-.17-.23-.41-.38-.73-.32-.22.04-.37-.03-.51-.15-.5-.43-1.06-.76-1.73-.95-.44-.13-.89-.22-1.34-.25-.66-.05-1.32-.05-1.98.07-.71.13-1.34.38-1.89.79-.19.14-.34.2-.59.16-.43-.08-.71.23-.57.6.04.1.11.2.14.3.04.1.08.21.07.31-.01.22-.05.43-.09.65-.01.08-.06.16-.08.22-.76.15-1.43.37-2,.8.64-.3,1.29-.58,2.03-.67.02.06.04.11.05.18-.13.05-.25.09-.35.14-.15.08-.23.09-.45.22-.09.02-.09.01-.17.05-.38.17-.72.42-1.07.64-.06.03-.09.09-.14.13.1,0,.17-.04.24-.08.32-.19.64-.38.95-.58.07-.04.07-.04.23-.13.13-.05.18-.06.29-.08.17-.03.32-.16.54-.08.01.08.03.18.04.27-.14.07-.25.12-.36.18t-.08.05l.03.06c.16-.06.32-.13.47-.19.19.1.13.2.03.3-.22.22-.45.44-.67.66-.37.37-.65.8-.9,1.24-.02.03,0,.08.01.12.1-.06.15-.13.19-.21.29-.65.82-1.15,1.37-1.62.08-.07.16-.12.27-.12.09.14,0,.22-.08.3-.32.36-.56.76-.72,1.2-.02.06-.02.12-.03.18.31-.5.54-1.03,1.05-1.42.04.09.06.17.05.26-.02.25-.05.49-.09.74-.03.23-.07.47-.11.7-.07.37-.16.74-.22,1.11-.08.52-.13,1.04-.21,1.56-.11.69-.31,1.35-.66,1.98-.38.68-.87,1.29-1.38,1.88-.37.42-.73.84-1.1,1.27-.32.37-.64.73-.96,1.1-.05.06-.09.14-.13.21-.15.25-.28.52-.45.76-.16.23-.49.21-.62-.02-.25-.46-.56-.89-.91-1.3-.61-.7-1.22-1.41-1.82-2.12-.49-.59-.97-1.19-1.33-1.85-.52-.93-.67-1.94-.81-2.95-.05-.38-.11-.76-.16-1.15-.1-.7-.19-1.39-.28-2.09,0-.06.04-.12.09-.23.39.51.68,1,.94,1.52,0-.12-.01-.24-.07-.34-.21-.36-.42-.72-.64-1.07-.07-.12-.15-.22.04-.33.14.13.28.26.41.4.12.13.24.26.36.39.12.14.25.28.36.43.11.14.21.28.3.43.21.33.2.33.34.39,0-.03,0-.06-.02-.08-.24-.35-.47-.72-.73-1.06-.24-.3-.52-.57-.78-.85-.07-.08-.18-.16-.09-.35.82.35,1.49.85,2.12,1.4,0-.07-.02-.12-.06-.16-.19-.17-.37-.35-.58-.49-.39-.27-.81-.52-1.22-.77-.2-.12-.2-.15-.05-.37.8.19,1.47.59,2.14,1.02-.03-.09-.08-.17-.15-.21-.35-.21-.7-.42-1.07-.6-.29-.15-.61-.25-.93-.38.01-.09.02-.15.04-.23.16.03.3.06.44.09.14.04.27.08.41.13.14.05.28.11.42.17.13.06.25.13.39.17.12.03.19.19.36.11-.22-.15-.44-.3-.69-.39-.35-.13-.69-.29-1.08-.34-.12-.02-.27-.08-.28-.22-.04-.37-.16-.74.07-1.1.08-.12.13-.28.12-.42-.02-.28-.29-.43-.68-.36-.2.04-.35,0-.47-.13-.36-.37-.86-.57-1.36-.71-.46-.13-.97-.15-1.45-.2-.26-.03-.52,0-.78,0-.62,0-1.22.09-1.8.29-.62.21-1.17.52-1.65.92-.15.13-.3.18-.53.18-.54,0-.9.3-.77.81.04.17.19.33.29.49.05.09.14.19.13.29-.02.3-.07.59-.11.89-.03.22-.15.38-.38.49-.18.09-.36.2-.44.4.22-.14.44-.28.68-.43.05.21.03.35-.14.48-.19.15-.36.32-.54.49-.04.04-.07.1-.1.16.28-.17.46-.42.78-.56,0,.31-.04.6-.08.89-.05.33-.14.66-.16,1-.06.86-.25,1.7-.47,2.54-.13.49-.3.97-.4,1.47-.14.7-.25,1.41-.32,2.11-.06.55-.18,1.1-.11,1.65.04.31.03.61.02.92,0,.49.09.97.12,1.45.07.93.09,1.86.15,2.79.04.67.1,1.34.2,2.01.11.75.25,1.51.42,2.25.14.6.29,1.2.52,1.78.4,1,.82,1.99.97,3.04.04.28.12.57.23.83.13.33.33.63.74.76.17.05.18.18.18.32.02,1.09.05,2.18.07,3.27.02.93-.08,1.86-.21,2.79-.07.5-.18.99-.27,1.49-.16.94-.42,1.86-.7,2.77-.27.88-.6,1.76-1.06,2.58-.32.58-.65,1.15-.98,1.72-.22.39-.46.77-.67,1.16-.13.24-.07.45.11.6.19.16.44.12.63.05.64-.21,1.19-.56,1.7-.96.78-.62,1.45-1.33,2.03-2.11.53-.72.98-1.47,1.37-2.25.54-1.08.97-2.19,1.33-3.32.13-.41.25-.82.36-1.23.26-.99.49-1.99.63-3,.12-.85.3-1.7.33-2.57.01-.34.07-.67.1-1.01.01-.13.09-.2.2-.28.16-.1.3-.23.41-.38.31-.41.45-.89.54-1.36.14-.74.35-1.45.69-2.13.55-1.07.88-2.2,1.06-3.35.14-.88.28-1.76.3-2.66.02-.91.09-1.82.05-2.73,0-.04,0-.08,0-.12.02-.35.04-.71.07-1.06.02-.28.06-.56.09-.85.09,0,.17-.02.22,0,.32.19.36.18.95.57.12.12.12.12.19.17.09.06.18.13.26.2.17.14.32.3.48.45.35.34.59.76.96,1.09.48.44.99.49,1.53.1.02-.01.04-.02.06-.03.18-.21.18-.21.57-.6.43-.54.43-.54.78-.87.15-.18.15-.18.54-.43.12-.09.18-.14.18-.14,0,0,.39-.28.64-.41.13-.07.26-.16.46-.09,0,.36.02.73.03,1.1.05,1.57,0,3.14.23,4.7.12.8.22,1.61.35,2.41.13.8.41,1.58.75,2.33.21.48.44.95.61,1.44.17.49.26,1,.41,1.5.16.52.38,1.02,1,1.27.02.28.04.55.06.81.04.54.08,1.09.13,1.63.09.86.21,1.71.41,2.56.23.95.43,1.9.7,2.84.22.77.5,1.54.8,2.29.42,1.08.99,2.1,1.65,3.07.44.64.94,1.23,1.49,1.79.63.64,1.33,1.22,2.2,1.62.32.15.63.25.99.17.17-.15.23-.33.15-.54ZM89.28,11.87c.11.25.15.51.16.82-.46-.2-.84-.42-1.15-.74.12-.08.22-.15.32-.22.23-.15.56-.09.67.14ZM88.03,11.01c.26-.13.49-.04.67.28-.27-.03-.56-.23-.74.13-.15-.24-.13-.31.07-.41ZM85.15,10.61c-.16-.13-.33-.27-.49-.41.23.07.43.17.49.41ZM84.34,10.95c.3.02.47.18.48.45-.15-.09-.29-.23-.45-.25-.16-.02-.34.08-.51.13.04-.2.24-.34.48-.32ZM81.15,15.63c.06.31-.04.65-.3.98.09-.31.19-.61.3-.98ZM81.26,15.99c.14-.48.24-.96.34-1.45-.06.13-.13.27-.19.4-.07.15-.12.3-.19.44-.07.14-.17.27-.27.41.08-.53.36-1,.53-1.5-.14.2-.28.39-.43.61-.02-.26.01-.4.2-.6.15-.15.34-.27.56-.45-.33.03-.48.25-.71.35-.13-.39.31-.4.53-.64-.11.04-.17.06-.23.08-.07.03-.14.06-.23.11-.02-.09-.04-.15-.04-.21.03-.26.06-.53.12-.79.03-.14,0-.24-.1-.35-.13-.16-.25-.33-.33-.51-.06-.12-.03-.26.11-.35.14-.08.28-.08.46,0-.07.04-.1.06-.13.08-.15.05-.27.11-.25.27.02.13.21.3.37.3.14,0,.29-.03.47-.05.03.02.09.06.17.11.6-.32,1.19-.68,1.98-.59.02.02.06.06.1.09.04.03.09.06.19.13.11-.02.29-.04.51-.08-.31.48-.84.74-1.24,1.17.22-.07.42-.1.59-.18.61-.26,1.21-.53,1.69-.97.4-.36,1.43-.38,1.91.08.37.36.82.61,1.33.79.12.04.24.09.38.15v.27c-.19-.06-.37-.12-.54-.17,0,.01-.02.03-.02.04.18.1.36.2.56.31-.02.08-.03.15-.06.25-.26-.11-.51-.21-.75-.32,0,0-.02.02-.02.02.21.17.42.33.64.51-.04.09-.07.17-.12.28-.21-.17-.4-.31-.59-.46-.02.02-.04.03-.06.04.07.09.13.18.2.26.08.08.16.16.27.27-.11.08-.22.15-.35.24-.2-.23-.4-.44-.59-.66,0,.29.31.42.36.72-.19.1-.39.23-.62.3-.54.17-1.11.26-1.69.19-.13-.02-.27-.03-.4-.02-.33.03-.63-.12-.95-.15-.02,0-.04-.04-.08-.08.11-.39.43-.69.63-1.05-.36.27-.61.61-.84,1-.15-.05-.29-.09-.45-.14.13-.41.61-.53.79-.88-.44.16-.76.46-1.07.78-.07-.05-.12-.09-.18-.14.28-.39.77-.57,1.04-.96-.41.25-.83.51-1.26.77-.04-.04-.11-.09-.19-.16.35-.23.69-.45,1.03-.68-.01-.02-.03-.04-.04-.05-.4.19-.79.42-1.16.7.01.06.03.12.04.2-.12.09-.24.2-.37.29-.55.38-.89.87-1.05,1.48-.14.54-.41,1.04-.73,1.52.16-.47.33-.93.46-1.41ZM84.43,39.56c-.19.08-.22-.03-.26-.12-.07-.19-.14-.37-.23-.55,0,.41.24.81.05,1.23h-.34c-.27-.39-.24-.87-.46-1.27.01.42.19.83.15,1.23-.06.03-.08.04-.1.05-.08,0-.16,0-.25,0-.3-.44-.32-.96-.57-1.42.05.35.09.7.14,1.05-.2.03-.3-.06-.36-.17-.1-.19-.21-.38-.24-.58-.13-.69-.23-1.39-.35-2.08,0-.06,0-.12.04-.19.16.44.33.88.49,1.33.01,0,.03,0,.04,0,.01-.06.02-.12.04-.19.11.16.21.31.3.46.02,0,.04-.02.06-.02-.03-.15-.07-.29-.1-.44.01,0,.02-.01.04-.02.03.05.07.09.1.14.04.06.06.13.1.19.04.05.1.1.19.19-.05-.18-.08-.3-.12-.41.02,0,.03-.01.05-.02.07.11.14.23.21.34.02,0,.03,0,.05,0,0-.08,0-.17-.02-.3.06.12.1.2.14.28.02,0,.04,0,.06-.01-.02-.11-.03-.21-.06-.37.09.1.15.18.26.3-.03-.14-.05-.23-.06-.32.16-.07.2-.19.2-.34,0-.23,0-.46,0-.68,0-.09.01-.19.05-.28.57.94.85,1.93.74,2.99ZM83.92,33.53c-.12-.82-.58-1.53-.99-2.25-.01-.02-.05-.04-.13-.1.13.37.25.68.36.99-.02,0-.03,0-.05.01-.1-.21-.23-.41-.28-.62-.11-.43-.45-.72-.75-1.04-.11-.12-.25-.23-.36-.36.24.06.43.19.62.32,1.03.77,1.68,1.73,1.9,2.91.11.57.1,1.14-.08,1.7-.13.38-.32.74-.66,1.02-.04.03-.08.05-.16.05.1-.16.2-.32.28-.49.35-.69.4-1.41.29-2.15ZM81.78,30.92c.79.31.92.99,1.17,1.6-.33-.57-.61-1.17-1.17-1.6ZM82.59,32.54c-.28-.38-.55-.77-.83-1.15.44.29.65.71.83,1.15ZM88.22,37.88c-.11.46-.2.91-.34,1.36-.07.21-.22.41-.36.6-.06.09-.16.17-.35.1.08-.37.32-.7.26-1.1-.03.07-.07.13-.1.2-.13.3-.26.61-.4.91-.09.19-.12.19-.4.16-.11-.11-.04-.22,0-.33.1-.27.2-.54.3-.82.02-.05.02-.11-.04-.19-.04.09-.08.17-.12.26-.12.25-.23.49-.35.74-.04.09-.1.16-.23.14-.13-.02-.18-.12-.18-.22,0-.12.03-.23.07-.34.11-.29.23-.57.32-.87-.23.2-.24.52-.51.7-.18-.08-.21-.23-.19-.36.1-.68.34-1.33.74-1.92.02-.04.08-.06.15-.11.09.33,0,.64.05.95.03,0,.06,0,.12-.01.01.16.02.33.04.54.18-.19.17-.38.23-.55v.71s.04,0,.07.01c.07-.19.14-.37.2-.56.02,0,.03,0,.05,0-.02.2-.03.41-.05.61.02,0,.05,0,.07.01.08-.19.17-.38.25-.56,0,0,.02,0,.03,0-.02.19-.03.38-.05.58.02,0,.05.01.07.02.07-.14.15-.29.23-.46,0,.12.02.21.02.31.02,0,.03,0,.05.01.12-.31.24-.63.36-.94.01,0,.03,0,.04,0-.02.14-.03.29-.07.43ZM87.55,31.68c-.25.4-.45.81-.65,1.18.03-.58.96-2.14,1.48-2.38-.3.43-.59.81-.83,1.2ZM88.78,30.35s.04.02.06.04c-.49.75-.98,1.5-1.46,2.24-.02-.3.86-1.75,1.39-2.27ZM87.5,31.15c-.38.52-.74,1.06-.91,1.67-.05.17-.1.34-.15.51.05-.96.52-1.77,1.2-2.49.04.13-.07.21-.14.3ZM86.15,32.88c.08-.62.39-1.14.89-1.58-.37.49-.69,1.01-.89,1.58ZM86.46,36.14c-.27-.13-.44-.44-.51-.97.18.34.34.66.51.97ZM88.28,31.68c.25-.4.51-.79.76-1.19.01.24-.35.81-.76,1.19ZM89.54,26.4c-.15.32-.15.66-.06.96.12.43-.01.77-.22,1.13.14-.66.03-1.33.05-2.04-.17.09-.16.2-.17.28-.02.18-.02.35,0,.53.06.52-.04,1.03-.18,1.53,0,.03-.04.05-.1.13.04-.46.1-.85.11-1.23.01-.39-.02-.79-.03-1.18-.02,0-.05,0-.07-.01-.01.06-.04.13-.04.2-.02.5-.02.99-.06,1.49-.02.27-.1.55-.16.82-.02.07-.07.14-.13.2.18-.89.22-1.79.08-2.7-.02.05-.05.1-.05.15,0,.26-.01.52,0,.77.03.63-.07,1.24-.26,1.85.11-.92.08-1.83-.01-2.75-.01.05-.04.11-.04.16,0,.22-.02.44,0,.65.07.66-.04,1.31-.12,1.96,0,.06-.04.11-.09.23v-2.88s-.04,0-.06,0c0,.07-.03.13-.03.2-.02.78-.04,1.57-.07,2.35,0,.18-.05.35-.1.52-.04-1.02,0-2.04-.02-3.06-.03,0-.06,0-.08,0-.02.24-.04.49-.04.73-.01.6-.01,1.19-.02,1.79,0,.26-.04.51-.18.78v-3.36c-.08.06-.14.09-.15.13-.01.18-.01.36-.01.54,0,.68.01,1.35,0,2.03,0,.24-.05.47-.08.71,0,.06-.05.11-.07.15-.02-1.16-.03-2.31-.05-3.47-.02,0-.04,0-.06,0,0,.08-.02.15-.02.23,0,.08,0,.16,0,.24-.02.87-.03,1.75-.06,2.62,0,.19-.05.39-.11.58-.04-1.13-.01-2.26-.05-3.38-.02,0-.05,0-.07,0-.01.05-.03.09-.03.14,0,.62,0,1.23-.02,1.85-.01.49-.04.97-.07,1.46,0,.08-.04.16-.06.24-.02,0-.05,0-.07,0v-2.49h-.07s-.05.1-.06.15c0,.32,0,.64,0,.95-.02.48-.05.95-.08,1.43,0,.09-.03.17-.11.25v-2.34s-.05,0-.07,0c-.01.06-.03.13-.03.19-.02.55-.03,1.09-.05,1.64-.01.24-.04.47-.07.71,0,.06-.06.12-.12.16.02-.81.04-1.62.07-2.44-.02,0-.04,0-.06,0-.03.09-.07.17-.07.26-.03.53-.04,1.05-.07,1.58-.02.31-.04.61-.07.92,0,.06-.05.12-.12.18v-2.54s-.05,0-.07,0c-.02.07-.05.14-.06.21,0,.27,0,.54,0,.8-.02.64-.05,1.29-.11,1.93-.03-.92-.07-1.84-.1-2.82-.15.26-.09.49-.1.71-.02.23,0,.46,0,.68,0,.22,0,.44,0,.66,0,.23.03.45.02.68-.17-.32-.14-.66-.17-1-.04-.47-.04-.95-.06-1.43,0-.04-.01-.09-.05-.13-.1.38-.07.76-.07,1.14,0,.37,0,.74,0,1.15-.19-.72-.11-1.42-.19-2.11-.03,0-.06,0-.09,0,0,.29,0,.57-.01.86,0,.29,0,.57-.04.87-.16-.26-.08-.55-.12-.82-.05-.27-.04-.54-.1-.81-.1.2-.06.41-.06.62,0,.21,0,.41-.02.62-.17-.39-.13-.82-.24-1.23-.14.27-.02.55-.13.83-.07-.27-.13-.55-.2-.83-.02,0-.05,0-.07,0,0,.14-.02.29-.03.44-.27-.07-.17-.32-.34-.48-.02.1-.04.17-.05.24-.29-.02-.17-.31-.38-.43v.23c-.21-.33-.12-.71-.28-1.06v.93c-.17-.12-.21-.19-.21-.41,0-.27,0-.54-.02-.8,0-.07-.03-.14-.11-.21v1.23s-.04,0-.06.01c-.03-.06-.08-.11-.08-.17-.03-.22-.06-.43-.07-.65-.04-.64-.06-1.29-.13-1.93v2.62s-.05,0-.07.01c-.02-.06-.06-.11-.06-.17-.01-.4-.02-.79-.03-1.19-.01-.59-.03-1.19-.04-1.78,0-.03-.02-.06-.04-.12-.04.07-.07.11-.07.15,0,.51,0,1.03.01,1.54,0,.45,0,.89.01,1.34,0,.03-.02.05-.05.12-.11-.25-.06-.47-.07-.69-.02-.22-.01-.44-.02-.65,0-.23-.01-.46-.01-.68,0-.22,0-.44,0-.65,0-.22-.01-.44-.02-.66-.03,0-.05,0-.08,0-.01.54-.03,1.07-.04,1.61-.01.53-.02,1.06-.08,1.6-.01-.06-.03-.11-.03-.17,0-.53,0-1.07,0-1.6,0-.53,0-1.05,0-1.58,0-.16-.06-.25-.24-.34-.21-.11-.37-.31-.52-.49-.26-.33-.34-.7-.33-1.14.1.23.18.41.27.59.14.29.38.51.66.7.16.11.33.21.48.32.25.18.4.41.5.69.19.54.47,1.05.8,1.53.01.02.05.03.12.08v-1.02c.16.02.15.11.15.18,0,.27,0,.54,0,.8,0,.33.07.39.52.44v-1.28q.15.16.16.64c0,.21,0,.41,0,.63.39-.13.45-.21.45-.5,0-.18,0-.36,0-.54,0-.06.02-.12.05-.25.16.25.05.48.15.71.2-.29.39-.54.36-.87-.03-.43-.05-.85-.07-1.28-.01-.19-.07-.38-.18-.55-.22-.33-.42-.68-.62-1.02-.04-.08-.07-.17-.07-.25,0-.32,0-.64,0-.95,0-.06-.02-.12-.04-.18-.03,0-.05,0-.08.01v1.12c-.32-.34-.13-.71-.26-1.03v.78c-.2-.11-.24-.26-.27-.39-.07-.34-.11-.68-.05-1.03.06-.32.08-.65.1-.97,0-.14-.05-.28-.1-.42-.06.34.04.7-.2.99,0-.43,0-.87,0-1.31,0,0-.04-.02-.07-.04-.05.26-.1.51-.14.77-.02,0-.05,0-.07,0,.03-.4.06-.8.1-1.2-.27.38-.17.84-.37,1.24-.06-.51,0-1.01.05-1.52-.02,0-.05,0-.07,0-.11.43-.21.86-.33,1.31-.06-.52,0-1,.11-1.49-.28.44-.32.93-.42,1.47-.08-.58.05-1.08.11-1.59-.24.44-.28.92-.44,1.37-.02-.61.1-1.2.3-1.78-.27.27-.47.94-.6,1.78.01-.18.02-.37.04-.55.02-.19.06-.38.09-.58-.03,0-.04-.01-.05,0-.02,0-.04.02-.09.05.16-.58.52-1.06.68-1.61-.02,0-.04-.02-.06-.02-.23.42-.46.85-.69,1.27-.02,0-.04-.01-.06-.02.02-.09.03-.18.06-.27.18-.4.38-.8.57-1.2.14-.3.29-.6.43-.9.03-.07.03-.15.01-.24-.18.61-.53,1.13-.9,1.68-.07-.17,0-.31.07-.43.44-.64.65-1.36.92-2.06.23-.6.69-1.03,1.32-1.38.02.15-.09.22-.16.29-.33.37-.59.77-.73,1.23-.03.11-.05.22-.07.33.03,0,.05.01.08.02.14-.31.26-.63.42-.93.16-.31.42-.55.7-.78.14.09.11.17.05.27-.14.25-.25.5-.38.76-.02.04-.01.09.04.16.04-.06.09-.12.12-.18.12-.2.24-.4.37-.6.05-.07.11-.17.24-.12.14.06.09.16.06.26-.15.63-.3,1.26-.45,1.88,0,.04.02.09.03.14.22-.02.22-.15.23-.28.03-.54.17-1.06.38-1.56.04-.09.09-.17.19-.25,0,.05.03.1.02.15-.16.54-.1,1.08-.02,1.62,0,.07.07.13.13.19-.02-.55-.09-1.1.07-1.67.19.39.09.81.36,1.2-.02-.27-.04-.49-.05-.71.03,0,.06,0,.08,0,.04.29.08.59.12.88.03,0,.06,0,.09,0,.02-.21.04-.42.07-.63.17.25.06.56.23.83.1-.24-.04-.5.13-.74.14.28.06.55.15.82.04-.24.08-.47.12-.71.03,0,.05,0,.08,0v.78s.04,0,.06,0c.07-.26.13-.52.2-.77.03,0,.05,0,.08,0,0,.13,0,.26,0,.4-.01.13-.04.25-.05.38.23-.2.14-.5.35-.71-.02.24-.04.48-.07.72.02,0,.03,0,.05.01.1-.25.2-.51.31-.81.09.29-.07.5-.12.8.3-.3.3-.64.5-.92.04.18.04.18-.07.44-.06.14-.11.27-.15.42.33-.26.37-.65.59-1.02.02.36-.14.62-.22.89.37-.34.41-.83.7-1.26-.02.41-.17.74-.31,1.08.44-.36.39-.87.55-1.32.08.4,0,.77-.17,1.17.2-.18.21-.18.3-.65.04-.23.04-.47.1-.71v.97c.26-.32.18-.68.22-1.05.12.41.46,2.57.43,2.79-.08-.17-.14-.31-.21-.46-.02,0-.04.01-.06.02.02.4.34.77.21,1.15-.1-.24-.21-.5-.32-.76,0-.01-.06-.01-.11-.02.08.27.19.51.23.77.04.25.13.51-.04.75,0-.38-.02-.75-.37-1.11.02.11.02.16.04.2.18.28.2.58.19.89,0,.44-.02.87,0,1.31,0,.21.05.43.05.65-.13-.23-.19-.48-.19-.73,0-.48,0-.95-.01-1.43,0-.11-.03-.23-.08-.34,0,.81-.1,1.62.01,2.48-.13-.26-.19-.48-.19-.71,0-.52,0-1.05-.05-1.58-.03.23-.06.47-.08.7-.01.26-.02.52,0,.77.02.24.06.49.12.73.06.24.16.46.23.7-.57-.65-.56-1.42-.52-2.19-.03,0-.05,0-.08,0-.01.05-.03.09-.03.14.01.44-.09.9.09,1.33.18.44.4.88.66,1.3.44.71.6,1.46.59,2.26,0,.38,0,.77,0,1.14.4.15.53.36.39.67ZM82.08,23.02c.33.43.81.71,1.2,1.08.44.42.64.95.75,1.5.06.31.07.62.11.97-.23-.09-.22-.24-.24-.39-.03-.24-.05-.49-.11-.73-.12-.48-.42-.89-.78-1.26-.25-.26-.5-.51-.73-.77-.1-.11-.15-.25-.2-.4ZM105.52,11.28c-.18-.03-.36-.1-.54-.08-.15.01-.3.12-.47.19.07-.26.29-.42.54-.43.23-.01.39.1.47.32ZM104.83,10.17c-.2.16-.4.32-.63.5.03-.24.28-.46.63-.5ZM101.03,10.98c.14-.04.27,0,.37.09.1.08.1.19.02.33-.22-.26-.36-.27-.68-.05,0-.2.09-.31.29-.37ZM100.54,11.6c.18.1.37.2.58.31-.29.37-.72.56-1.16.76-.14-.5.09-.91.58-1.07ZM100.32,14.04c-.08-.12-.14-.21-.22-.32.18-.13.35-.25.53-.37,0-.01-.02-.03-.03-.04-.17.08-.34.16-.55.26-.04-.09-.07-.17-.11-.28.22-.12.43-.23.63-.34,0-.01-.01-.03-.02-.04-.2.07-.4.14-.62.22-.01-.09-.02-.17-.04-.24.04-.03.06-.06.09-.07.15-.06.3-.13.46-.17.41-.09.73-.29,1-.57.33-.34.76-.51,1.28-.51.34,0,.64.09.89.3.24.2.49.37.78.5.25.11.49.24.72.37.21.12.44.18.71.2-.34-.43-.89-.66-1.16-1.13.25.13.46.1.67-.07.22-.18.49-.1.73-.05.39.09.76.22,1.08.45.04.03.12.07.15.06.22-.12.42.02.64,0,.24-.02.36-.12.49-.48-.11-.05-.23-.11-.34-.16.25-.12.46-.03.48.24.01.17-.04.31-.18.43-.1.08-.2.16-.28.22.04.43.08.81.13,1.23-.19-.07-.33-.12-.51-.19.16.28.59.33.54.73-.22-.16-.4-.3-.59-.44-.02.02-.04.04-.06.05.05.15.23.21.34.33.11.11.21.23.33.35v.33s-.03,0-.04.01c-.08-.14-.16-.29-.24-.43-.02,0-.05.01-.07.02.03.31.26.59.27.91,0,0,0,0,0,0,0,0,0,0,0,0,0,0,0,0,0,0,.04,0,.08-.02.15-.03.04.16.07.31.11.47-.02,0-.04.01-.06.02-.07-.15-.13-.3-.2-.45h0c.03.18.05.36.1.53.07.24.2.48.11.75-.11-.35-.23-.71-.35-1.06-.03-.09-.09-.18-.13-.27.01.4.17.78.3,1.16.05.16.13.32.18.48.03.1.04.2.06.3-.03,0-.05.01-.08.02-.17-.46-.4-.9-.51-1.37-.15-.62-.56-1.06-1.06-1.47-.08-.07-.18-.12-.26-.19-.05-.05-.12-.12-.11-.17.03-.2-.11-.29-.26-.38-.28-.18-.56-.36-.86-.55.09.19.09.19.39.38.16.11.32.22.48.33-.01.1-.02.19-.03.32-.4-.24-.72-.55-1.18-.7.3.27.61.54.93.82-.07.05-.12.1-.19.15-.25-.23-.48-.45-.71-.66-.11,0-.2,0-.3-.01,0,.01,0,.03.01.03.17.14.35.28.51.43.08.08.14.17.21.26-.12.15-.28.15-.47.14-.25-.3-.51-.6-.77-.91-.02.01-.04.02-.06.03.17.33.48.61.63.99-.3.07-.56.16-.81.17-.51.03-1.03.02-1.55.01-.42,0-.81-.14-1.19-.3-.1-.04-.18-.11-.31-.2.17-.27.34-.53.54-.85-.33.23-.45.51-.66.79-.12-.07-.23-.13-.37-.21.17-.28.46-.45.62-.71-.3.13-.52.34-.77.57ZM100.21,30.35c.31.53.63,1.05.94,1.58-.43-.46-.79-.97-.94-1.58ZM102.91,33.05c-.2-.89-.79-1.61-1.37-2.34.77.64,1.28,1.39,1.37,2.34ZM102.77,31.82c.2.29.44.57.45.99-.16-.36-.31-.68-.45-.99ZM103.42,35.11c0,.43-.15.77-.51,1.02.16-.32.32-.65.51-1.02ZM102.07,31.72c.23.31.38.65.4,1.05-.17-.32-.29-.63-.47-.91-.21-.32-.47-.6-.71-.9-.09-.11-.18-.23-.26-.35-.03-.05-.04-.1-.08-.21.09.06.13.08.15.11.32.4.66.8.96,1.21ZM101.54,31.6c.39.35.5.8.57,1.26-.14-.44-.35-.84-.61-1.23-.09-.1-.19-.19-.3-.31.02.09.03.16.04.22-.32-.35-.51-.76-.68-1.21.05.03.07.04.08.05.3.4.6.81.89,1.21ZM103.65,39.14c-.37-.18-.35-.54-.63-.72.09.24.19.47.29.71.06.14.12.28.16.42.05.19,0,.25-.27.36-.33-.33-.38-.78-.67-1.14.03.12.05.24.09.35.08.24.18.47.27.7.04.11.09.24-.08.31-.16.06-.26-.04-.32-.15-.15-.3-.29-.6-.43-.9-.05-.11-.1-.22-.16-.32-.03.29.1.54.19.8.02.07.08.12.09.19,0,.06,0,.15-.05.18-.05.03-.17.02-.21-.01-.11-.11-.24-.22-.3-.35-.13-.32-.25-.65-.34-.99-.1-.38-.15-.76-.22-1.14,0-.03,0-.06.02-.16.07.23.12.4.17.57.05.17.1.34.28.46,0-.1,0-.19,0-.29,0-.01.02-.03.04-.05.16.15.13.4.37.52.06-.12-.03-.2-.05-.29-.02-.08-.03-.17,0-.27.09.17.17.33.26.5.03,0,.05-.02.08-.02-.03-.18-.07-.37-.1-.55.02,0,.04-.01.06-.02.07.16.14.32.22.49.01,0,.03,0,.04,0v-.42s.03,0,.04-.01c.06.11.12.23.18.34.02,0,.04-.01.06-.02-.05-.15-.09-.29-.15-.47.08.06.12.09.19.14.04-.36.07-.7.11-1.08.08.08.14.12.18.18.35.56.54,1.17.67,1.8.02.11-.04.24-.07.39ZM104.75,29.4c-.14.04-.11.13-.11.2,0,.66,0,1.31,0,1.97,0,.1,0,.19-.04.29-.13-.84-.06-1.69-.21-2.53-.11.22-.06.46-.07.68,0,.24,0,.48,0,.71,0,.24,0,.48,0,.72,0,.24,0,.47-.02.71-.13-1-.09-2.01-.18-3.01-.02,0-.05,0-.07,0-.01.89-.03,1.79-.04,2.68-.03,0-.05,0-.08,0-.07-.95-.08-1.91-.12-2.87-.03,0-.06,0-.09,0,0,.15-.01.29-.01.44,0,.16,0,.32,0,.48,0,.17,0,.34,0,.51v.48c0,.16,0,.31-.04.47-.13-.28-.09-.57-.1-.86-.02-.31-.04-.61-.05-.92-.01-.29,0-.59-.05-.88-.15.18-.06.37-.07.56,0,.2,0,.4,0,.6,0,.19,0,.38,0,.57,0,.2,0,.39-.03.59-.15-1.28-.13-2.56-.28-3.84-.1.34-.07.68-.02,1.03.02.12.04.24.04.35,0,.73,0,1.47.01,2.2,0,.03-.01.06-.04.08-.17-1.3-.21-2.61-.26-3.91-.1,1.24,0,2.48-.03,3.72-.31-1.26-.16-2.55-.31-3.82-.05,1.16-.06,2.32,0,3.48-.14-.22-.17-.47-.18-.72-.02-.43-.07-.85-.08-1.28,0-.32.06-.65.06-.97,0-.2-.03-.41-.05-.67-.04.09-.06.12-.06.15-.08.94-.11,1.88-.06,2.82,0,.12,0,.24-.03.35-.25-1.11-.28-2.25-.45-3.37,0,.07-.03.15-.03.22.04.73.09,1.46.12,2.19.01.24,0,.47,0,.77-.24-1.09-.31-2.14-.33-3.25q-.12.19-.11.52c0,.17,0,.34,0,.51.01.18.04.35.06.53.02.17.04.33.06.5.01.17.02.34.04.51.01.17.04.33,0,.5-.09-.5-.2-1-.26-1.5-.06-.51-.07-1.02-.15-1.54-.02.05-.05.1-.05.14.03.62.06,1.25.09,1.87.01.25.03.51,0,.76-.36-.91-.18-1.86-.33-2.79-.1.25-.05.51-.05.76,0,.28,0,.56.01.83.01.27.04.53,0,.81-.04-.19-.1-.38-.13-.58-.03-.21-.02-.42-.02-.62,0-.21,0-.42-.02-.62-.02-.2.05-.41-.09-.63-.16.2-.06.38-.07.55,0,.19.01.38.02.56,0,.18,0,.36.02.54.01.19.03.37.03.56-.29-.7-.17-1.45-.29-2.18-.13.31-.05.64-.06.95,0,.32.02.65-.02.98-.04-.2-.12-.4-.12-.6-.02-.48-.02-.95-.01-1.43,0-.42.18-.57.65-.58.09,0,.18,0,.25-.01,0-.85-.11-1.69.11-2.55-.2.19-.27.53-.27,1.17,0,.4,0,.79-.06,1.2-.02-.04-.06-.08-.06-.13,0-.55-.04-1.09,0-1.64.03-.32.18-.63.28-.94.03-.08.07-.16.09-.24-.31.28-.47.62-.52,1-.05.41-.05.83-.07,1.25,0,.17,0,.34-.06.51,0-.1-.02-.19-.02-.29,0-.41,0-.81,0-1.22,0-.46.15-.88.38-1.28.13-.22.26-.44.38-.66.28-.48.42-.98.39-1.52-.03-.56-.06-1.13-.09-1.76-.15.42-.11.79-.07,1.15.05.5.04.99-.11,1.47-.05.14-.13.27-.2.41-.02,0-.04-.02-.07-.02.04-.13.11-.26.13-.39.08-.61.19-1.22.09-1.83-.04-.28-.02-.58-.02-.86,0-.11,0-.23-.05-.35-.03.08-.07.17-.07.25,0,.34.01.67.04,1.01.04.5,0,.99-.12,1.47-.03.1-.1.19-.17.28.19-.56.19-1.13.17-1.71-.01-.24-.06-.47-.06-.71,0-.25.03-.51.05-.75-.14.12-.16.17-.19.49-.02.19-.04.37-.06.6-.24-.57.02-1.04.23-1.57-.21.09-.22.23-.27.33-.06.1-.09.21-.16.38-.13-.41.11-.7.15-1.02-.08.11-.16.22-.24.33.05-.87.25-1.72.42-2.57.02.17.05.34.08.51.03.16-.06.33.12.53,0-.22,0-.38,0-.54,0-.16-.02-.33-.03-.49.02,0,.05,0,.07,0,.04.21.07.43.11.64.04.21.02.44.24.6-.04-.32-.09-.63-.13-.95.15.38.22.77.48,1.12-.07-.31-.14-.63-.2-.94.02,0,.03,0,.05-.01.13.36.26.72.39,1.09.03,0,.05-.01.08-.02-.06-.26-.12-.53-.18-.79.25.28.18.66.47.92-.05-.25-.09-.5-.14-.75.21.28.16.65.53.9-.08-.29-.16-.55-.23-.81.02,0,.05-.01.07-.02.12.3.18.61.48.84-.09-.26-.18-.51-.27-.77.02,0,.05-.02.07-.03.19.24.19.59.51.82-.03-.29-.27-.51-.19-.84.2.27.19.58.47.81-.06-.29-.11-.53-.17-.77.02,0,.04,0,.06-.01.1.25.21.49.31.74h.06c-.05-.28-.09-.54-.14-.81.02,0,.03,0,.05-.01.05.09.09.18.14.28.04-.13.07-.25.11-.38.19.28-.15.55.09.85.07-.37.13-.69.2-1.08.13.19.09.33.1.46,0,.13,0,.25.06.39.05-.35.11-.69.16-1.04.02,0,.04,0,.06,0v.8c.22-.34.21-.7.21-1.09.22.16.09.37.18.55.15-.23.02-.46.09-.68.16.28.07.59.05.88-.02.29-.1.58-.13.87.35-.61.27-1.27.28-1.93.14.16.2.3.27.67.07.38.13.76.2,1.14.02.1.02.2.19.23,0-.08.03-.15.01-.21-.12-.6-.24-1.21-.37-1.81-.03-.13-.03-.23.17-.26.23.26.33.57.45.91.13-.21,0-.36-.05-.52-.04-.16-.11-.32-.18-.5.1-.11.19-.09.3.03.33.37.58.77.71,1.24.02.08.05.15.08.23.06-.01.1-.02.13-.02-.07-.68-.51-1.19-.98-1.77.14.03.21.02.25.05.59.4,1.06.88,1.25,1.54.17.56.37,1.12.64,1.65.08.15.13.31.19.46-.02,0-.04.02-.07.03-.08-.15-.17-.29-.25-.44.07.55.45,1.02.49,1.63-.24-.51-.46-.95-.68-1.4-.02,0-.04.01-.06.02.13.35.26.71.4,1.06.22.53.31,1.07.24,1.67-.09-.58-.1-1.15-.5-1.62.23.53.3,1.07.22,1.63,0-.53-.12-1.02-.47-1.46.1.43.33.85.14,1.38-.09-.46-.11-.87-.41-1.2.13.51.28,1.02,0,1.53.02-.45.06-.89-.22-1.3.1.42.04.83.03,1.25-.02,0-.05,0-.07,0-.04-.29-.08-.58-.12-.88-.02,0-.03,0-.05,0-.02.05-.06.09-.06.14,0,.24,0,.48,0,.71,0,.09-.03.18-.05.27-.03,0-.06,0-.09,0v-.97s-.06,0-.09,0c-.03.24-.08.48-.1.73-.03.25-.04.51-.06.76-.21-.33-.06-.71-.1-1.09-.16.14-.19.3-.18.46.02.36.05.71.1,1.07.04.31.05.61-.04.91-.02.06-.06.12-.14.17v-.51c-.07.3-.14.53-.18.76-.02.13-.1.21-.22.28-.02.04-.05.08-.07.12-.18.28-.37.56-.55.85-.19.3-.33.62-.38.97-.08.55-.12,1.09.06,1.62.05.14.15.28.22.41.03,0,.05,0,.08-.01.01-.17.02-.35.04-.52.02,0,.05,0,.07,0,.02.05.05.1.05.15,0,.16.02.32,0,.48-.03.3.14.48.47.62.11-.43-.05-.86.05-1.28.14.15.14.15.14.64,0,.22,0,.43,0,.65.42.01.54-.08.53-.4,0-.25-.02-.5-.02-.74,0-.09.02-.18.07-.27.13.36.07.73.09,1.11.1-.14.21-.29.3-.43.26-.41.42-.85.52-1.31.06-.25.19-.46.4-.64.14-.11.28-.23.44-.33.51-.34.9-.75,1.03-1.31.05.5-.12.95-.52,1.28-.34.28-.42.6-.41.99.02.44.03.87.01,1.31-.02.52-.06,1.05-.13,1.57v-3.26s-.05,0-.08,0c-.1.55-.07,1.11-.11,1.66-.03.55,0,1.11,0,1.66h-.08v-3.02c-.16.53-.15,1.06-.15,1.59,0,.46-.01.91-.02,1.37,0,.09-.02.19-.08.28-.12-.28-.04-.57-.04-.86,0-.3.01-.6.02-.89,0-.29,0-.58-.05-.88-.01.09-.03.17-.04.26-.04.73-.07,1.46-.12,2.19,0,.1-.03.2-.05.29-.03,0-.05,0-.08,0-.01-.05-.04-.1-.04-.15,0-.29.02-.58.03-.86,0-.06-.03-.12-.08-.19-.07.45-.06.9-.16,1.33-.02,0-.05,0-.07,0v-.75c-.13.31,0,.68-.36.97.03-.37.06-.7.08-1.02-.02,0-.03,0-.05,0-.06.31-.11.62-.17.93-.01.07-.07.19-.12.19-.21.02-.28.2-.46.28-.01-.14-.02-.26-.03-.38-.02,0-.03,0-.05,0-.04.18-.08.36-.14.61-.16-.24,0-.47-.19-.65-.19.33.06.72-.26,1.01-.01-.35-.03-.7-.04-1.04-.02,0-.05-.01-.07-.02-.03.05-.08.1-.09.15-.02.37-.02.75-.04,1.12,0,.07-.04.14-.12.2-.03-.54-.06-1.07-.09-1.62-.15.04-.12.13-.12.2,0,.51,0,1.01-.01,1.52,0,.12-.04.24-.12.35-.03-.73-.06-1.46-.1-2.21ZM107.34,22.85c-.03.37-.25.64-.51.89-.25.24-.5.48-.72.74-.47.57-.67,1.22-.68,1.92,0,.14-.02.28-.03.43-.03,0-.06,0-.09,0-.02-.09-.05-.18-.06-.27-.02-.67.1-1.32.46-1.92.19-.32.45-.59.74-.84.33-.29.68-.57.89-.96ZM107.03,31.59c-.22.28-.41.58-.62.88.27-.67.63-1.28,1.34-1.66-.24.26-.5.51-.72.79ZM107.67,31.36c-.12.14-.25.27-.36.42-.12.15-.23.31-.34.47.12-.36.31-.68.7-.89ZM105.67,35.56c.07.15.17.29.26.43-.02,0-.04.02-.06.03-.44-.39-.69-.86-.76-1.41-.16-1.31.26-2.46,1.18-3.49.32-.36.74-.63,1.18-.87.01,0,.04,0,.08.02-.15.14-.29.27-.44.4-.88.79-1.45,1.73-1.66,2.82-.14.71-.1,1.4.23,2.06ZM107.1,30.87c-.1.24-.29.43-.44.65-.15.22-.29.45-.44.68.15-.52.51-.92.88-1.32ZM106.23,40.18c-.07-.02-.15-.05-.25-.09.09-.43.19-.86.28-1.28-.02,0-.04-.01-.05-.02-.03.05-.07.1-.09.16-.1.3-.18.59-.28.89-.02.08-.04.16-.08.22-.04.05-.12.12-.17.11-.07,0-.19-.06-.2-.11-.04-.15-.07-.31-.05-.46.04-.26.13-.52.2-.78.02-.06.02-.13-.01-.21-.15.32-.29.65-.45.98-.17-.04-.19-.15-.19-.26.01-.31,0-.62.07-.92.15-.57.36-1.12.55-1.68.02-.06.06-.11.12-.22.13.45.03.85.09,1.28.06-.09.09-.15.13-.21.02,0,.04,0,.06.01-.01.19-.02.37-.04.6.21-.15.17-.38.36-.56-.03.26-.05.48-.08.76.24-.21.16-.49.36-.66-.02.21-.04.42-.07.65.17-.06.16-.19.2-.29.04-.1.06-.2.15-.29-.02.18-.04.37-.06.57.16-.07.15-.19.19-.3.04-.11.09-.21.19-.3-.03.17-.07.34-.1.51.37-.49.42-1.09.76-1.6-.06.43-.11.86-.19,1.28-.07.41-.17.82-.27,1.22-.06.24-.19.46-.48.63-.16-.41.13-.76.07-1.15-.04.09-.1.18-.13.27-.09.28-.18.57-.27.86-.05.14-.11.28-.29.37Z" fill="#000" stroke-width="0"/>
    <path d="M99.27,13.93s-.08.05-.12.07c-.51.29-1,.58-1.37,1.01-.03.04-.05.09-.08.13.07,0,.1-.02.13-.04.35-.28.7-.56,1.06-.84l.42-.27-.03-.06Z" fill="#000" stroke-width="0"/>
    <path d="M105.91,23.69c-.01-.07-.05-.14-.04-.21.02-.24.05-.49.07-.73.02-.2.03-.41.04-.66.16.25.08.48.12.69.04.27-.04.53-.13.78-.02.04-.05.08-.07.12Z" fill="#000" stroke-width="0"/>
    <path d="M89.02,25.77c-.08,0-.12,0-.19-.01,0-.09,0-.18,0-.27,0-.46,0-.91,0-1.37.02-.48-.12-.92-.38-1.34-.03-.05-.06-.1-.09-.16,0,0,0-.02,0-.03.22.17.41.43.51.75.08.27.13.54.15.82.03.42.02.83.02,1.25,0,.12-.01.23-.02.35Z" fill="#000" stroke-width="0"/>
    <path d="M88.78,25.76h-.21v-2.38s.04,0,.06,0c.03.17.08.33.09.5.03.62.04,1.24.07,1.88Z" fill="#000" stroke-width="0"/>
    <path d="M88.41,23.56v2.25c-.07-.06-.14-.09-.14-.12.04-.71-.03-1.42.14-2.13Z" fill="#000" stroke-width="0"/>
    <path d="M88,25.63v-1.78c.11.26.13,1.48,0,1.78Z" fill="#000" stroke-width="0"/>
    <path d="M83.68,21.98c.02.31.05.63.06.94.01.3,0,.61-.02.92-.02-.06-.07-.12-.07-.18-.02-.56-.03-1.11-.05-1.67h.08Z" fill="#000" stroke-width="0"/>
    <path d="M87.76,24.4c-.03.41-.07.83-.1,1.24-.03,0-.06,0-.09,0-.07-.42.09-.83.08-1.24h.11Z" fill="#000" stroke-width="0"/>
    <path d="M87.79,21.25c-.23-.27-.33-.72-.26-1.31.09.44.17.88.26,1.31Z" fill="#000" stroke-width="0"/>
    <path d="M83.95,22.39c.03.55.06,1.06.1,1.58-.16-.22-.21-1.02-.1-1.58Z" fill="#000" stroke-width="0"/>
    <path d="M84.36,24.07c-.2-.31-.27-.64-.17-1,.06.33.11.67.17,1Z" fill="#000" stroke-width="0"/>
    <path d="M84.42,23.37c.14.3.26.57.38.83-.27-.15-.46-.54-.38-.83Z" fill="#000" stroke-width="0"/>
    <path d="M86.97,25.23c-.04.12-.08.24-.12.36-.14-.16.02-.26.04-.39l.08.02Z" fill="#000" stroke-width="0"/>
    <path d="M87.23,25.56v-.49c.1.16.07.33,0,.49Z" fill="#000" stroke-width="0"/>
    <path d="M101.09,25.82h-.17c0-.74-.03-1.48.17-2.2v2.2Z" fill="#000" stroke-width="0"/>
    <path d="M101.58,19.54c.04.38.07.75.11,1.13,0,0,.02,0,.02,0,.03-.22.06-.45.1-.69.13.33-.03,1-.32,1.38.03-.32.09-.62.09-.92,0-.3-.07-.6-.1-.9.03,0,.06,0,.1,0Z" fill="#000" stroke-width="0"/>
    <path d="M105.52,23.77c.2-.6.13-1.22.16-1.83.2.39.1,1.57-.16,1.83Z" fill="#000" stroke-width="0"/>
    <path d="M101.37,23.96c.07.26.02,1.69-.04,1.86-.1-.25-.09-1.24.04-1.86Z" fill="#000" stroke-width="0"/>
    <path d="M101.98,26.63v1.84c-.07-.61-.16-1.22-.09-1.84.03,0,.06,0,.09,0Z" fill="#000" stroke-width="0"/>
    <path d="M101.66,24.47c.13.24.15.7.09,1.14-.16-.2-.07-.4-.09-.58-.02-.18,0-.37,0-.55Z" fill="#000" stroke-width="0"/>
    <path d="M105.46,22.41c.05.54.09,1.05-.12,1.55.04-.52.08-1.03.12-1.55Z" fill="#000" stroke-width="0"/>
    <path d="M104.97,24.2c.09-.45.17-.82.24-1.17.1.11.12.16.01.57-.05.19-.05.41-.26.61Z" fill="#000" stroke-width="0"/>
    <path d="M108.2,17.53c-.25-.19-.5-.79-.51-1.12.16.35.32.7.51,1.12Z" fill="#000" stroke-width="0"/>
    <path d="M104.59,24.14c.1-.23.19-.45.29-.7.07.29-.12.5-.23.72l-.06-.03Z" fill="#000" stroke-width="0"/>
    <path d="M102.08,24.99c.13.18.14.2.09.53-.2-.16-.06-.36-.09-.53Z" fill="#000" stroke-width="0"/>
    <path d="M102.64,13.01c-.07-.04-.14-.08-.2-.12-.14-.1-.29-.18-.48-.16-.08,0-.17-.04-.25-.07-.23-.12-.27-.33-.09-.49.14-.12.32-.2.51-.31.06.11.09.17.14.26.27-.02.55-.04.83-.07,0-.02,0-.04.01-.06-.12-.04-.24-.08-.36-.13.35-.07.61.07.83.27.22.2.11.52-.2.59-.14.03-.29.03-.42.08-.12.04-.22.13-.34.21Z" fill="#000" stroke-width="0"/>
    <path d="M101.66,13.82c.25-.07.42-.04.58.03.27.12.54.1.81,0,.15-.06.32-.09.48-.13.13-.03.24.01.32.11-.29.1-.56.22-.85.29-.48.11-.92.03-1.33-.3Z" fill="#000" stroke-width="0"/>
    <path d="M107.94,15.29c-.15-.29-.21-.59-.16-.91.05.3.1.61.15.91h0Z" fill="#000" stroke-width="0"/>
    <path d="M86.7,11.86c-.05.1-.09.17-.13.25h.4c.05-.06.09-.13.14-.19.21-.07.63.14.7.33.07.2-.08.42-.36.45-.25.03-.44.09-.61.26-.09.09-.23.08-.32-.02-.12-.14-.28-.18-.47-.2-.03,0-.07,0-.1-.01-.37-.1-.46-.36-.2-.61.25-.23.57-.29.95-.26Z" fill="#000" stroke-width="0"/>
    <path d="M85.45,13.82c.09-.14.22-.13.33-.11.16.03.33.06.48.13.28.12.54.09.81,0,.17-.06.36-.15.53.02-.45.43-1.28.42-2.15-.03Z" fill="#000" stroke-width="0"/>
  </g>
</svg>