<?xml version="1.0" encoding="UTF-8"?>
<svg id="Otter_chef_Image" data-name="Otter_chef Image" xmlns="http://www.w3.org/2000/svg" xmlns:xlink="http://www.w3.org/1999/xlink" viewBox="0 0 294.33 58.99">
  <defs>
    <radialGradient id="radial-gradient" cx="148.02" cy="10.13" fx="148.02" fy="10.13" r="1.47" gradientUnits="userSpaceOnUse">
      <stop offset=".28" stop-color="#fff"/>
      <stop offset=".55" stop-color="#9d9d9d"/>
      <stop offset=".86" stop-color="#2c2c2c"/>
      <stop offset="1" stop-color="#000"/>
    </radialGradient>
  </defs>
  <polygon points="294.08 .39 294.08 58.63 .25 58.74 .26 .25 294.08 .39" fill="#fff" stroke-width="0"/>
  <g>
    <g>
      <path d="M35.99,11.64c-3.59-3.35-9.01-5.12-16.62-5.12-2,0-3.6.04-5.97.11-.06,1.91-4.22,1.79-1.44,4.1,4.84,0,5.07-.02,7.65-.02,11.2,0,16.69,6.15,16.62,15.83,0,11.08-6.15,17.42-17.48,17.42-2.04,0-2,.05-5.69.07,0,1.44-3.92,2.85-3.92,4.3,7.1-.1,7.06-.11,8.58-.11,7.98,0,14.31-2.07,18.15-5.91,3.84-3.78,5.91-9.26,5.91-15.95s-2.13-11.39-5.79-14.74Z" fill="#000" stroke-width="0"/>
      <path d="M75.61,32.88c0,10.9-7.55,15.65-14.68,15.65-7.98,0-14.13-5.85-14.13-15.16,0-9.87,6.45-15.65,14.62-15.65s14.19,6.15,14.19,15.16ZM52.23,33.18c0,6.46,3.71,11.33,8.95,11.33s8.95-4.81,8.95-11.45c0-4.99-2.5-11.33-8.83-11.33s-9.07,5.85-9.07,11.45Z" fill="#000" stroke-width="0"/>
      <path d="M132.3,45.83l-.43-3.71h-.18c-1.64,2.31-4.81,4.38-9.01,4.38-5.97,0-9.01-4.2-9.01-8.46,0-7.12,6.33-11.02,17.72-10.96v-.61c0-2.44-.67-6.82-6.7-6.82-2.74,0-5.6.85-7.67,2.19l-1.22-3.53c2.44-1.58,5.97-2.62,9.68-2.62,9.01,0,11.2,6.15,11.2,12.06v11.02c0,2.56.12,5.05.49,7.06h-4.87ZM131.51,30.78c-5.85-.12-12.48.91-12.48,6.64,0,3.47,2.31,5.12,5.05,5.12,3.84,0,6.27-2.44,7.12-4.93.18-.55.3-1.16.3-1.71v-5.12Z" fill="#000" stroke-width="0"/>
      <path d="M151.74,10.56c.06,1.83-1.28,3.29-3.41,3.29-1.89,0-3.23-1.46-3.23-3.29s1.4-3.35,3.35-3.35,3.29,1.46,3.29,3.35Z" fill="url(#radial-gradient)" stroke-width="0"/>
      <path d="M159.58,24.33c0-3.04-.06-5.54-.24-7.98h4.75l.3,4.87h.12c1.46-2.8,4.87-5.54,9.74-5.54,4.08,0,10.41,2.44,10.41,12.54v17.6h-5.36v-16.99c0-4.75-1.77-8.71-6.82-8.71-3.53,0-6.27,2.5-7.19,5.48-.24.67-.37,1.58-.37,2.5v17.72h-5.36v-21.5Z" fill="#000" stroke-width="0"/>
      <path d="M209.7,45.83l-.43-3.71h-.18c-1.64,2.31-4.81,4.38-9.01,4.38-5.97,0-9.01-4.2-9.01-8.46,0-7.12,6.33-11.02,17.72-10.96v-.61c0-2.44-.67-6.82-6.7-6.82-2.74,0-5.6.85-7.67,2.19l-1.22-3.53c2.44-1.58,5.97-2.62,9.68-2.62,9.01,0,11.2,6.15,11.2,12.06v11.02c0,2.56.12,5.05.49,7.06h-4.87ZM208.91,30.78c-5.85-.12-12.48.91-12.48,6.64,0,3.47,2.31,5.12,5.05,5.12,3.84,0,6.27-2.44,7.12-4.93.18-.55.3-1.16.3-1.71v-5.12Z" fill="#000" stroke-width="0"/>
      <path d="M228.94,7.89v8.46h7.67v4.08h-7.67v15.89c0,3.65,1.04,5.72,4.02,5.72,1.4,0,2.44-.18,3.11-.37l.24,4.02c-1.04.43-2.68.73-4.75.73-2.5,0-4.51-.79-5.79-2.25-1.52-1.58-2.07-4.2-2.07-7.67v-16.08h-4.57v-4.08h4.57v-7.06l5.24-1.4Z" fill="#000" stroke-width="0"/>
      <path d="M268.95,30.85c0,10.9-7.55,15.65-14.68,15.65-7.98,0-14.13-5.85-14.13-15.16,0-9.87,6.45-15.65,14.62-15.65s14.19,6.15,14.19,15.16ZM245.57,31.15c0,6.46,3.71,11.33,8.95,11.33s8.95-4.81,8.95-11.45c0-4.99-2.5-11.33-8.83-11.33s-9.07,5.85-9.07,11.45Z" fill="#000" stroke-width="0"/>
      <path d="M275.71,25.55c0-3.47-.06-6.46-.24-9.2h4.69l.18,5.79h.24c1.34-3.96,4.57-6.46,8.16-6.46.61,0,1.04.06,1.52.18v5.05c-.55-.12-1.1-.18-1.83-.18-3.78,0-6.45,2.86-7.19,6.88-.12.73-.24,1.58-.24,2.5v15.71h-5.3v-20.28Z" fill="#000" stroke-width="0"/>
    </g>
    <g>
      <polygon points="6 4.69 6 4.69 6 4.69 6 4.69 6 4.69" fill="#000" stroke-width="0"/>
      <path d="M10.72,11.67h0s-.08.02,0,0Z" fill="#000" stroke-width="0"/>
      <path d="M10.39,28.13c.14,0,.28-.01.41,0,.28.03.37.19.36.47-.01.29-.17.24-.37.24-.48-.02-.96.01-1.44.01-.22,0-.45,0-.46-.32,0-.3.15-.37.43-.36.36.01.72-.03,1.08-.04ZM9.6,28.45c.34-.06.69.05,1-.14-.31,0-.62-.02-.93-.03-.02,0-.03,0-.05,0-.19.05-.53-.16-.54.07-.01.2.35,0,.52.1Z" fill="#000" stroke-width="0"/>
      <path d="M14.29,38.42c-.5-1.76-1.65-3.08-2.92-4.28-.12-.11-.05-.17.02-.25.59-.68,1.3-1.25,1.79-2.04.38-.62.72-1.3.81-2.01.11-.78.1-1.58.06-2.39-.06-1.4-.77-2.43-1.56-3.41-.52-.66-1.19-1.2-1.81-1.77-.37-.34-.14-.5.12-.71,1.24-.96,2.32-2.06,3-3.56.62-1.36.75-2.81.3-4.16-.5-1.49-1.39-2.81-2.61-3.81-.1-.08-.26-.2-.25-.3,0-.16.19-.18.33-.24.75-.31,1.48-.68,2.05-1.31.32-.36.49-.81.32-1.28-.14-.38-.29-.92-.69-.96-1-.12-2-.16-2.96-.48-.03,0-.09.02-.11.06-.26.47.04,1.03.55,1.08.27.02.53.11.79.19.16.05.44.12.36.31-.09.22-.28-.04-.43-.07-.15-.03-.3-.06-.45-.1-.61-.17-1.23-.39-1.07.73.05.33-.23.51-.56.5-.41-.02-.69-.35-.79-.65-.09-.25.23-.03.37-.05.02,0,.05-.03.05-.05,0-.27.03-.55-.03-.81-.04-.18-.26-.12-.41-.12.09.12.4.05.31.29-.09.23-.29.02-.44,0-.36-.07-.72-.17-1.07-.27-.09-.02-.24-.02-.2-.18.04-.17.16-.09.25-.07.38.08.77.16,1.15.24-.33-.1-.65-.2-.98-.3-.15-.05-.29-.11-.43-.16.15-.17.32-.05.47,0,.62.18,1.15.29.97-.73-.05-.26-.14-.4-.37-.44-.63-.09-1.26-.18-1.88-.28-.14-.02-.29-.11-.33.13,0,0,0,0,0,0h0c.31-.15.55.14.83.18.48.08.95.25,1.41.39.05.01.08.08.13.12-.04,0-.09.03-.13.02-.71-.18-1.43-.36-2.14-.55-.05-.01-.07-.11-.11-.17,0,0,0,0,0,0,0,0,0,0,0,0-.07.04-.13.09-.2.13-.03-.09-.02-.21-.09-.26-.33-.23-.83-.15-1.2,0,0,0,0,.07.02.1.4,1.15,1.2,1.99,1.97,2.85.4.45.83.87,1.25,1.31-1.21-1.13-2.49-2.2-3.29-3.72-.1-.19-.05-.42-.21-.54-.13-.1-.31-.12-.39,0-.42.68.48,1.5,1.02,2.08.72.79,1.4,1.66,2.35,2.21.32.18.24.42-.03.6-.32.21-.67.36-.96.6-.69.58-1.45,1.1-1.85,1.99-.29.65-.62,1.27-.94,1.91v3.41c.2.47.38.95.59,1.41.54,1.18,1.55,1.95,2.39,2.86.33.35.47.57.04.94-.3.26-.49.64-.75.94-.95,1.05-1.58,2.26-1.5,3.73.04.78-.2,1.56.26,2.36.27.47.63.9.86,1.39.49,1.06,1.26,1.84,2.13,2.53.31.25.54.47.11.86-.57.5-1.19.98-1.62,1.6-.43.61-.84,1.26-1.18,1.96-1.04,2.06-.46,4.4.6,5.98.68,1.02,1.66,1.73,2.5,2.57.4.4.21.5-.02.78-.39.49-.56,1.13-.16,1.62.42.5,1.01.35,1.53-.04.89-.67,1.55-1.59,2.35-2.36.98-.95,1.82-2.01,2.4-3.31.7-1.56.8-3.16.34-4.77ZM6.47,21.19c-1.2-1.27-2.38-2.56-2.74-4.39-.38-1.9.2-3.55,1.37-4.99,1.57-1.93,3.71-2.96,5.88-3.91.58-.25,1.18-.46,1.66-.91.1-.1.17-.26.22-.4.04-.1.03-.23.05-.34.1.07.22.12.29.21.1.14.04.29-.07.41-.54.6-1.27.86-1.96,1.18-2.1.95-4.21,1.89-5.81,3.71-.74.84-1.22,1.82-1.43,2.97-.14.75.53.96.73,1.48.04.11.12-.03.12-.11,0-.17,0-.33,0-.5.11.57.22,1.12.38,1.67.21.69.64.83,1.24.79.34-.02.69,0,1.04.03.08,0,.24.08.23.11-.01.15-.15.12-.25.12-.44,0-.89,0-1.33,0-.1,0-.2.04-.29.06.05.08.08.18.14.25.29.35.54.79.91,1,.29.16.73.02,1.1.02.19,0,.37.02.56.04-.19.07-.38.15-.57.2-.24.05-.49.08-.74.1-.15.02-.17.11-.08.2.21.2.37.48.7.54.1.02.17.16.26.25-.06.06-.14.11-.18.18-.47.79-.9.6-1.44.02ZM11.43,13.1c-.14,0-.29,0-.42-.03-.31-.08-.62-.22-.9.02-.12.1-.21.25-.13.45.12.32.43.31.66.37.5.14,1.04.07,1.5.4.2.14.16.38.28.54-.22.01-.44.05-.65.03-.46-.04-.91-.13-1.36-.15-.15,0-.42-.15-.48.16-.08.41.15.62.49.65.63.05,1.24.23,1.88.18.17-.02.23-.06.29-.2-.06.36-.06.74-.2,1.06-.09.2-.35-.05-.54-.06-.49-.02-.97-.06-1.46-.09-.19-.01-.45-.14-.54.11-.07.18-.22.41-.07.62.18.26.45.08.68.11.36.05.73,0,1.09.04.11.01.21.15.31.24-.16.14-.2.44-.48.44-.49,0-.98,0-1.47,0-.19,0-.42-.08-.43.24-.01.32-.04.67.4.74.08.01.16,0,.24,0,.18.02.36.04.54.06-.02.06-.03.15-.07.17-.22.12-.3.41-.68.34-.56-.1-1.15,0-1.73,0-.69,0-1.46.2-1.71-.78.29,0,.64-.02.98,0,.32.02.46-.11.46-.44,0-.34-.21-.35-.44-.36-.51-.02-1.01,0-1.52-.06-.42-.05-.42-.47-.45-.78-.03-.33.26-.2.41-.19.5.04,1.01.07,1.51.16.39.07.53-.13.55-.47.02-.36-.25-.41-.5-.44-.65-.08-1.32-.07-1.95-.23-.59-.15-.24-.71-.2-1.05.03-.27.3,0,.46.02.66.09,1.31.23,1.97.28.37.03.44-.41.42-.62-.03-.31-.39-.16-.6-.21-.62-.13-1.24-.21-1.87-.31-.16-.03-.11-.13-.08-.23.2-.55.9-.77,1.53-.54.31.12.65.19.98.2.27.01.21-.32.28-.49.06-.13-.01-.25-.16-.28-.32-.07-.65-.12-.97-.2-.17-.04-.33-.1-.49-.15.15-.14.29-.28.44-.41.66-.57,1.2.15,1.8.19.71.05,1.33.55,2.08.46.1-.01.23.25.34.39.01.02,0,.09-.01.09ZM11.85,13.38s.04.04.07.06c-.09.02-.18.05-.26.07-.45-.1-.89-.2-1.32-.3-.03,0-.06-.04-.09-.06.04-.02.08-.06.12-.06.5.09.99.19,1.49.28ZM12.17,16.7s0,.06,0,.1l-2.11-.23s0-.06,0-.09l2.11.22ZM5.54,16.24c.14-.03.27-.05.33-.07.62.06,1.17.12,1.71.18.05,0,.09.05.14.08-.05.02-.1.06-.14.05-.63-.05-1.26-.09-1.9-.15-.05,0-.09-.06-.14-.09ZM6.45,12.66c.08-.05.15-.1.21-.13.54.1,1.03.18,1.52.28.06.01.1.1.15.16-.16.04-.32.14-.47.11-.43-.08-.85-.2-1.27-.31-.05-.01-.09-.07-.13-.11ZM10.72,11.67c-.08.02-.04.01,0,0-.71-.04-1.19-.4-1.73-.57-.03,0-.06-.13-.05-.14.18-.12.36-.33.54-.32.55.02.94.38,1.21.87.03.05.03.11.04.16,0,0,0,0,0,0h0ZM7.55,33.1c-1.25-1.27-2.52-2.53-2.92-4.39-.47-2.18.41-3.96,1.76-5.53,1.19-1.38,2.67-2.41,4.04-3.58,1.13-.97,2.19-1.99,2.36-3.65,0-.05.05-.09.08-.13.01.05.04.11.04.16,0,.41,0,.81,0,1.22,0,.1.05.19.07.29.05-.08.16-.19.14-.24-.14-.38.26-.5.33-.8.47-1.91-.3-3.42-1.35-4.84-.4-.54-.82-1.06-1.38-1.45-.03-.02-.03-.1-.05-.15.08-.01.2-.07.24-.04,1.3,1.35,2.62,2.71,2.94,4.71.4,2.48-.79,4.25-2.48,5.74-1,.88-2.05,1.69-3.17,2.62.13-.36.29-.61.03-.78-.24-.16-.48,0-.69.15-.69.46-1.2,1.11-1.69,1.78-.72.99-1.13,2.08-1.09,3.32,0,.22-.45,1.18.54.68.37-.19.47.08.55.39.09.34.23.5.66.4.52-.12,1.09-.06,1.63-.06.06,0,.11.07.17.11-.06.04-.12.11-.19.11-.52.03-1.04.04-1.57.06-.33.01-.37.17-.2.44.47.74,1.49,1.1,2.3.81.03-.01.06-.05.09-.07-.04-.03-.09-.07-.13-.07-.33,0-.67-.05-.99.01-.43.08-.7-.14-.96-.41-.06-.07-.09-.17-.13-.25.08-.02.17-.04.25-.05.46-.04.91-.06,1.37-.11.27-.02.22-.28.25-.45.03-.18-.12-.22-.26-.22-.63.02-1.25.03-1.88.07-.17,0-.24-.05-.22-.21.03-.3-.28-.77.21-.84.59-.09,1.2-.02,1.81-.04.1,0,.27-.07.28-.13.04-.22.08-.45-.04-.67-.09-.17-.19-.04-.29-.04-.59,0-1.17,0-1.76,0-.04,0-.12-.08-.11-.1.11-.3.19-.63.37-.88.11-.15.38-.07.54.09.04.04.13.1.16.09.38-.22.97.34,1.2-.36.09-.28-.08-.44-.36-.45-.22-.01-.43-.05-.65-.09-.19-.03-.38-.08-.57-.12.14-.22.25-.48.43-.67.18-.19.32.08.49.12.94.23,1.88.53,2.84.63.27.03.52-.11.7.2.03.05.05.1.08.15-.05,0-.11.03-.16.03-.26-.03-.51-.09-.77-.08-.15,0-.42-.17-.45.18-.04.36.03.62.47.63.51.01,1.04-.04,1.49.27.42.29.73,1.47.48,1.91-.03.06-.19.06-.3.07-.57.05-1.14.1-1.71.13-.29.02-.4.17-.38.46.02.28.11.46.44.42.41-.04.83-.05,1.25-.04.12,0,.36-.1.32.15-.03.22-.11.51-.4.53-.51.03-1.03.03-1.54.03-.26,0-.47.12-.45.41.02.27.15.52.45.57.1.02.21,0,.31,0,.16.01.33.03.49.05-.06.09-.12.19-.19.27-.13.15-.24.17-.47.14-.57-.09-1.16-.05-1.75-.05-.25,0-.5-.11-.49-.34.01-.22.29-.1.45-.12.16-.01.32.04.33-.24,0-.25-.08-.36-.32-.34-.34.04-.69.06-1.03.12-.08.01-.15.13-.22.2.06.06.12.11.17.17,0,0,.02,0,.02.01.41.4.8.84,1.45.72.11-.02.13.1.03.15-.59.32-.16.51.09.68.22.15.22.22.05.44-.53.7-.95.52-1.49-.03ZM6.74,25.43s.1-.07.14-.06c.45.06.91.13,1.36.2,0,.03,0,.05,0,.08-.48-.05-.95-.1-1.43-.16-.02,0-.04-.04-.06-.06ZM5.13,38.62c-.24.51-.34,1.09-.51,1.65.02-1.41.6-2.56,1.4-3.62,1.4-1.85,3.33-3.08,4.9-4.72,1.11-1.16,1.93-2.47,1.7-4.25-.08-.61-.36-1.15-.68-1.57-.31-.41-.97-.14-1.47-.25-.13-.03-.36.08-.36-.12,0-.16.24-.08.38-.08.37.01.74.04,1.11.07-.22-.26-.56-.5-.62-.8-.16-.78-1-.78-1.29-1.37-.02-.04-.1-.05-.15-.05-.02,0-.04.06-.06.1.05.02.1.03.13.07.16.16.31.33.47.5-.21.1-.38-.03-.57-.08-.4-.12-.8-.23-1.2-.36-.07-.02-.12-.09-.18-.14.06-.06.12-.12.18-.18.38-.39.78-.38,1.21-.09.04.03.14-.03.21-.05-.04-.06-.07-.14-.12-.19-.11-.11-.22-.2-.33-.3.19-.17.37-.34.57-.49.16-.12.25.06.34.15,1.19,1.16,2.47,2.23,3.17,3.84.58,1.34.11,2.46-.55,3.57-.93,1.56-2.23,2.76-3.59,3.86-1.68,1.35-3.15,2.87-4.08,4.89ZM7.02,38.1c.39-.06.79-.13,1.18-.02,0,0,.01.04.02.06h-1.21s0-.04.01-.04ZM8.04,44.15c.06-.02.13-.06.19-.06.35-.02.69-.04,1.04-.04.37,0,.51-.17.51-.56,0-.44-.25-.43-.54-.42-.27.01-.55,0-.93,0-.36-.13-.93.28-1.34-.26-.05-.07-.09-.15-.14-.22.09-.03.17-.08.26-.1.49-.09.98-.15,1.46-.27.27-.07.21-.33.15-.53-.06-.19-.22-.22-.4-.21-.59.03-1.17.07-1.76.07-.54,0-.34-.53-.42-.82-.06-.22.24-.18.4-.19.54-.03,1.09-.06,1.63-.09.23-.02.26-.21.26-.39,0-.21-.12-.33-.32-.32-.47.01-.93.04-1.4.04-.14,0-.41.05-.37-.18.06-.31.02-.78.45-.84.4-.06.82-.01,1.23-.01.22,0,.43.03.44-.33,0-.36-.15-.49-.46-.5-.05,0-.1.01-.14,0-.21-.05-.63.06-.59-.09.06-.29.26-.64.62-.68.41-.05.82-.07,1.23-.03.41.03.52-.18.51-.54,0-.37-.28-.26-.48-.28-.16-.02-.33-.04-.49-.05.13-.08.27-.15.39-.25.27-.23.52-.47.78-.72.12-.12.25-.09.38-.02.13.07.03.23.05.27.15.22.33.41.5.61.05.05.08.12.11.18-.07,0-.14,0-.21,0-.14-.01-.27-.02-.41-.04-.3-.05-.52.02-.53.39-.01.35.2.42.49.47.53.09,1.22-.37,1.57.44.03.07.04.15.06.23-.07.01-.14.04-.2.04-.35.01-.71.03-1.06.02-.35-.01-.43.19-.41.49.03.33.23.41.51.38.48-.05.96-.15,1.44-.12.32.02.33.43.4.69.06.22-.15.18-.28.19-.57.04-1.14.07-1.71.11-.24.01-.28.17-.26.37.02.17,0,.39.26.37.68-.06,1.36-.12,2.03-.18.02,0,.06.02.07.03.2.53-.14,1.07-.68,1.09-.43.02-.86.07-1.3.1-.28.02-.32.27-.3.47.02.18.14.35.38.33.4-.03.8-.05,1.2-.06.09,0,.19.04.28.07-.13.3-.23.62-.41.88-.07.11-.02-.12-.1-.13-.54-.06-1.08-.03-1.6.13-.25.07-.21.35-.13.52.27.62.74.3,1.16.24.06,0,.12-.03.18-.04-.03.05-.09.1-.1.16-.23,1.02-.94.74-1.59.67-.49-.06-1.02.07-1.46-.29-.05-.04-.08-.1-.11-.15ZM6.22,40.03c.05-.04.1-.12.16-.12.59-.02,1.19-.02,1.78-.02.05,0,.1.09.14.14-.05.03-.1.07-.15.07-.3,0-.61,0-.91,0h0c-.28,0-.56.01-.84,0-.06,0-.12-.05-.17-.08ZM11.97,38.07c-.09.15-.23.09-.35.09-.42-.02-.83-.04-1.25-.06-.03,0-.05-.03-.08-.04.03-.03.06-.09.1-.09.2-.02.4-.03.67-.05.15,0,.38,0,.6.04.11.01.21.08.31.11ZM12.54,39.78c-.02.15-.16.07-.24.07-.57.03-1.14.04-1.71.07-.13,0-.13.12-.14.26-.22-.39-.06-.47.24-.48.54-.02,1.07-.07,1.61-.1.11,0,.25.04.24.19ZM12.42,41.44s-.09.07-.13.07c-.5.04-1.01.08-1.51.12-.09-.05-.23.09-.29-.07.1-.03.2-.07.3-.08.5-.04.99-.07,1.49-.1.05,0,.1.04.14.06ZM11.52,43.15c.01.28-.34.15-.53.19-.11.02-.22.02-.37.03-.17-.08-.55.13-.55-.09,0-.3.38-.12.59-.17.1-.02.21-.03.31-.03.19,0,.54-.13.55.07ZM13.42,40.85c-1.01,2.8-2.95,4.83-5.02,6.74-.28.26-.39.58-.38,1.18-.23-.92.2-1.27.61-1.66,1.56-1.45,3.12-2.91,3.92-5.01.71-1.85.19-3.46-.84-5.05-.41-.63-1-1.04-1.37-1.74-.44-.83.37-.63.46-.97.03-.13.25.14.35.24,1.36,1.3,2.66,2.67,2.83,4.72.04.49-.38,1.01-.57,1.53Z" fill="#000" stroke-width="0"/>
    </g>
    <g>
      <path d="M147.9,19.89c.1,0,.25-.03.28.08.04.17.02.35.02.52,0,.01-.02.03-.03.03-.09.01-.31-.12-.25.04.07.19.26.41.54.42.22,0,.41-.1.38-.32-.11-.73.31-.58.73-.47.1.03.2.05.3.07.1.02.23.19.29.05.05-.12-.14-.17-.25-.2-.18-.05-.36-.11-.54-.12-.34-.03-.55-.39-.37-.69.01-.02.05-.04.07-.04.65.2,1.33.23,2.01.31.28.03.38.38.47.62.12.31,0,.59-.22.83-.38.41-.88.64-1.39.84-.09.04-.22.05-.22.15,0,.06.1.14.17.2.83.64,1.43,1.49,1.77,2.46.31.88.22,1.81-.2,2.69-.46.97-1.19,1.68-2.04,2.3-.18.13-.34.23-.08.45.42.37.87.71,1.23,1.14.53.63,1.01,1.3,1.05,2.2.02.52.03,1.04-.04,1.54-.07.46-.29.9-.55,1.3-.33.51-.81.87-1.21,1.32-.04.05-.09.09-.01.16.86.78,1.64,1.62,1.98,2.76.31,1.04.24,2.07-.23,3.07-.39.84-.96,1.52-1.63,2.13-.54.5-.99,1.09-1.59,1.52-.35.25-.75.35-1.04.02-.28-.31-.16-.73.11-1.04.15-.18.29-.24.01-.5-.57-.54-1.23-1-1.69-1.66-.72-1.02-1.11-2.53-.41-3.86.24-.45.51-.87.8-1.26.29-.4.71-.71,1.1-1.03.3-.25.14-.39-.07-.55-.59-.45-1.1-.95-1.44-1.63-.16-.32-.4-.59-.58-.9-.31-.51-.15-1.02-.17-1.52-.06-.95.38-1.73,1.02-2.41.18-.19.31-.44.51-.61.29-.24.19-.38-.03-.61-.57-.59-1.25-1.08-1.62-1.84-.14-.3-.27-.61-.4-.91,0-.73,0-1.47,0-2.2.21-.41.44-.81.64-1.23.27-.58.78-.91,1.25-1.29.2-.16.44-.25.65-.39.18-.11.23-.27.02-.38-.64-.35-1.1-.92-1.59-1.43-.5-.52-.84-1.19-.65-1.95.15-.62.71-.44,1.14-.49.6-.07,1.18.03,1.77.16.16.03.27.1.34.24.08.18.1.38-.03.53-.11.13-.25,0-.38-.02-.58-.08-1.15-.16-1.73-.24-.01,0-.04.03-.04.04.07.19.14.38.21.56.05-.03.09-.06.14-.09.02.04.04.1.07.11.48.12.96.24,1.45.35.03,0,.06,0,.08-.02-.03-.03-.05-.07-.09-.08-.32-.09-.63-.21-.96-.25-.19-.03-.35-.21-.56-.12.03-.16.13-.1.23-.08.42.06.85.12,1.27.18.16.02.22.11.25.28.12.66-.24.59-.66.47-.1-.03-.21-.11-.32,0,.1.03.2.07.29.1.22.07.44.13.66.2-.26-.05-.52-.1-.78-.16-.06-.01-.15-.07-.17.04-.02.11.08.1.14.12.24.06.48.13.73.17.1.02.24.15.3,0,.06-.15-.15-.11-.21-.19ZM147.66,30.58c.76-.6,1.47-1.12,2.15-1.69,1.15-.96,1.95-2.1,1.68-3.7-.22-1.29-1.11-2.17-1.99-3.04-.02-.02-.11.01-.16.02.01.03.01.08.03.1.37.25.66.59.93.93.71.92,1.23,1.89.92,3.12-.05.19-.32.27-.23.51.01.03-.06.1-.09.15-.02-.06-.05-.12-.05-.19,0-.26,0-.52,0-.79,0-.04-.02-.07-.03-.1-.02.03-.05.06-.05.09-.12,1.07-.84,1.73-1.6,2.35-.92.75-1.93,1.42-2.73,2.31-.91,1.01-1.51,2.16-1.19,3.56.27,1.2,1.13,2.01,1.98,2.83.37.36.65.47,1.01.02.12-.15.12-.19-.03-.29-.17-.11-.46-.24-.06-.44.07-.04.06-.11-.02-.1-.44.08-.7-.21-.98-.47,0,0-.01,0-.01,0-.04-.04-.08-.07-.12-.11.05-.04.1-.12.15-.13.23-.04.46-.05.7-.08.16-.02.22.05.22.22,0,.18-.11.14-.22.15-.11.01-.3-.07-.31.07,0,.15.16.22.33.22.4,0,.8-.03,1.18.03.16.02.23,0,.32-.09.05-.05.09-.12.13-.18-.11-.01-.22-.02-.33-.03-.07,0-.14,0-.21,0-.2-.03-.3-.19-.31-.37-.01-.19.13-.26.31-.26.35,0,.7,0,1.04-.02.19-.01.25-.2.27-.34.02-.16-.14-.09-.22-.09-.28,0-.57,0-.85.03-.22.02-.28-.09-.3-.27-.02-.19.06-.29.26-.3.39-.02.77-.05,1.16-.08.07,0,.18,0,.2-.04.16-.28-.04-1.04-.33-1.23-.31-.2-.67-.17-1.01-.17-.3,0-.34-.17-.32-.41.02-.23.2-.11.31-.12.17,0,.35.03.52.05.03,0,.07-.01.11-.02-.02-.03-.03-.06-.05-.1-.13-.2-.29-.11-.48-.13-.65-.07-1.28-.26-1.92-.41-.11-.03-.21-.2-.33-.08-.12.12-.2.29-.29.43.13.03.26.06.39.08.14.02.29.05.44.06.19.01.31.11.25.29-.15.45-.55.09-.81.23-.02.01-.08-.03-.11-.06-.11-.1-.29-.15-.37-.06-.12.16-.17.37-.25.57,0,.01.05.06.08.06.4,0,.79,0,1.19,0,.07,0,.13-.08.19.02.08.14.06.29.03.43,0,.04-.12.08-.19.08-.41,0-.82-.04-1.22.02-.33.05-.12.35-.14.54,0,.1.04.14.15.13.42-.02.85-.03,1.27-.04.1,0,.19.02.17.14-.02.11.02.28-.17.29-.31.03-.62.04-.93.07-.06,0-.11.02-.17.03.03.06.05.12.09.16.18.18.36.32.65.27.22-.04.45-.01.67,0,.03,0,.06.03.09.05-.02.02-.04.04-.06.05-.55.18-1.23-.05-1.56-.52-.12-.17-.09-.28.14-.29.35-.01.71-.02,1.06-.04.04,0,.08-.05.13-.07-.04-.03-.08-.07-.11-.07-.37,0-.75-.04-1.11.04-.29.06-.38-.04-.45-.26-.06-.2-.13-.37-.37-.25-.67.32-.36-.3-.37-.44-.03-.8.25-1.5.74-2.14.34-.43.68-.85,1.15-1.15.14-.09.31-.19.47-.09.17.11.07.27-.02.5ZM150.62,25.72c-.04.09-.08.12-.2.13-.43.04-.85-.08-1.27-.11-.23-.02-.39-.16-.33-.42.04-.2.22-.11.33-.1.31.01.61.07.92.1.15.01.29-.01.44-.02-.08-.1-.06-.26-.19-.35-.31-.22-.68-.16-1.02-.26-.16-.04-.36-.03-.45-.24-.05-.13.01-.23.09-.29.19-.15.4-.06.61-.01.09.02.19.01.28.02,0,0,.02-.05,0-.05-.07-.09-.16-.26-.23-.25-.51.06-.93-.27-1.41-.3-.41-.03-.78-.49-1.22-.12-.1.09-.2.18-.3.26.11.03.22.07.33.09.22.05.44.08.66.13.1.02.15.1.11.18-.05.11,0,.33-.19.32-.22,0-.45-.06-.66-.13-.43-.15-.91,0-1.04.35-.02.06-.06.13.05.15.42.07.85.12,1.27.2.14.03.39-.07.41.13.01.13-.03.42-.28.4-.45-.04-.89-.12-1.33-.18-.11-.02-.29-.19-.31-.02-.03.22-.27.58.13.68.43.1.88.1,1.32.15.17.02.36.06.34.29-.01.22-.11.35-.37.3-.34-.06-.68-.08-1.02-.11-.1,0-.3-.09-.28.13.02.2.02.47.31.51.34.04.68.03,1.03.04.16,0,.3.01.3.23,0,.21-.1.3-.31.28-.23-.02-.46,0-.66,0,.17.63.69.51,1.16.5.39,0,.79-.06,1.17,0,.26.04.31-.14.46-.22.03-.01.03-.07.04-.11-.12-.01-.24-.03-.36-.04-.05,0-.11,0-.16,0-.29-.04-.28-.27-.27-.48,0-.21.17-.16.29-.16.33,0,.67,0,1,0,.19,0,.22-.19.32-.28-.07-.05-.14-.15-.21-.15-.24-.02-.49,0-.74-.02-.15-.02-.34.09-.46-.07-.1-.14,0-.29.05-.4.06-.16.23-.08.36-.07.33.02.66.04.99.06.13,0,.3.17.37.04.1-.2.1-.45.14-.68ZM147.72,43.5c.26,0,.45,0,.63,0,.2,0,.37-.01.37.27,0,.25-.09.36-.34.36-.23,0-.47.01-.7.02-.04,0-.09.03-.13.04.03.03.05.07.08.1.3.23.65.15.99.19.44.05.92.23,1.08-.43,0-.04.04-.07.07-.1-.04,0-.08.02-.12.02-.28.04-.6.25-.78-.16-.05-.11-.08-.29.09-.34.35-.1.72-.12,1.08-.08.06,0,.02.16.07.09.12-.17.19-.38.28-.57-.06-.02-.13-.05-.19-.04-.27,0-.54.02-.82.04-.16.01-.24-.1-.26-.22-.01-.12.01-.28.2-.3.29-.02.59-.06.88-.07.36-.01.59-.36.46-.7,0-.01-.03-.02-.05-.02-.46.04-.92.08-1.38.11-.18.01-.16-.13-.18-.24-.01-.13.01-.23.17-.24.39-.02.77-.04,1.16-.07.09,0,.23.02.19-.12-.05-.17-.05-.43-.27-.45-.32-.02-.65.05-.97.08-.19.02-.33-.03-.34-.25-.02-.2.04-.33.28-.32.24,0,.48,0,.72-.01.05,0,.09-.02.14-.02-.01-.05-.02-.1-.04-.15-.24-.52-.7-.23-1.06-.29-.2-.03-.34-.08-.33-.3,0-.24.16-.28.36-.25.09.02.18.02.28.03.05,0,.09,0,.14,0-.03-.04-.05-.08-.08-.12-.12-.13-.24-.25-.34-.39-.02-.02.05-.12-.04-.17-.09-.05-.17-.06-.26.01-.17.16-.35.31-.53.46-.08.07-.18.11-.26.16.11.01.22.02.33.04.13.02.32-.06.33.18,0,.23-.07.37-.35.35-.28-.02-.56,0-.83.02-.24.03-.38.26-.42.44-.02.1.26.03.4.06.03,0,.07,0,.1,0,.21,0,.31.09.31.32,0,.23-.14.22-.29.22-.28,0-.56-.03-.83,0-.29.04-.26.34-.3.54-.03.15.15.12.25.12.32,0,.63-.02.95-.02.14,0,.22.07.22.21,0,.12-.02.24-.17.25-.37.02-.74.04-1.11.06-.11,0-.31-.02-.27.12.05.18-.08.53.28.53.4,0,.79-.03,1.19-.04.12,0,.23.01.27.14.04.13.08.3-.1.34-.33.08-.66.11-.99.17-.06.01-.12.04-.18.06.03.05.06.1.09.15.28.35.66.08.91.17ZM145.23,41.69c.12-.36.19-.74.35-1.07.63-1.3,1.62-2.29,2.76-3.15.93-.71,1.8-1.48,2.43-2.49.45-.72.77-1.44.37-2.3-.48-1.04-1.34-1.73-2.15-2.48-.06-.06-.12-.17-.23-.1-.14.1-.26.21-.39.32.08.06.15.13.23.2.03.03.05.08.08.12-.05.01-.11.05-.14.03-.29-.19-.56-.2-.82.06-.04.04-.08.08-.12.12.04.03.08.08.12.09.27.08.54.15.81.23.13.04.25.12.39.05-.11-.11-.21-.22-.32-.32-.02-.02-.06-.03-.09-.04.01-.02.03-.06.04-.06.03,0,.09,0,.1.03.2.38.77.38.88.88.04.19.28.34.42.51-.25-.02-.5-.04-.75-.04-.09,0-.25-.05-.26.05,0,.13.16.06.24.07.34.07.78-.1,1,.16.22.27.41.62.46,1.01.16,1.15-.4,1.99-1.15,2.74-1.06,1.06-2.37,1.85-3.32,3.05-.54.68-.94,1.43-.95,2.33ZM145.35,25.77c0,.11,0,.22,0,.32,0,.05-.06.14-.08.07-.13-.33-.58-.47-.49-.95.14-.74.47-1.37.97-1.91,1.08-1.17,2.51-1.77,3.94-2.39.47-.2.96-.37,1.32-.76.08-.08.11-.18.04-.27-.04-.06-.13-.09-.2-.14,0,.07,0,.15-.03.22-.04.09-.08.2-.15.26-.32.29-.73.43-1.12.59-1.47.61-2.92,1.27-3.98,2.52-.79.92-1.18,1.99-.93,3.22.25,1.18,1.04,2.01,1.86,2.83.37.37.66.5.98-.01.03-.05.08-.08.12-.11-.06-.06-.11-.15-.17-.16-.22-.04-.33-.22-.47-.35-.06-.06-.05-.12.05-.13.17-.02.34-.03.5-.07.13-.03.26-.08.39-.13-.13,0-.25-.02-.38-.02-.25,0-.55.09-.75-.02-.25-.13-.42-.42-.62-.65-.04-.05-.06-.11-.1-.16.07-.01.13-.04.2-.04.3,0,.6,0,.9,0,.07,0,.16.02.17-.08,0-.02-.1-.07-.16-.07-.23-.01-.47-.04-.7-.02-.41.03-.7-.06-.84-.51-.11-.36-.19-.71-.26-1.08ZM147.54,47.17c0-.39.07-.59.26-.76,1.4-1.24,2.71-2.55,3.4-4.35.13-.33.41-.67.39-.99-.12-1.32-1-2.21-1.92-3.05-.07-.06-.21-.24-.24-.15-.06.22-.61.09-.31.62.25.45.65.71.93,1.12.7,1.03,1.05,2.06.57,3.26-.54,1.35-1.6,2.29-2.66,3.23-.28.25-.57.48-.42,1.07ZM147.34,21.41c-.28-.28-.57-.55-.84-.84-.52-.56-1.06-1.1-1.33-1.84-.17-.47,0-.82.5-.87.66-.07,1.3.07,1.94.22.04.01.09,0,.14,0-.04-.03-.08-.08-.12-.09-.58-.14-1.17-.25-1.76-.25-.87-.01-1.17.5-.75,1.27.54.98,1.41,1.67,2.23,2.4ZM149.36,23.24c-.06.01-.03,0,0,0,0-.03-.01-.07-.03-.1-.18-.32-.44-.55-.82-.56-.12,0-.25.13-.37.21,0,0,.02.08.04.09.37.11.69.34,1.17.37ZM149.18,41.63c0-.09,0-.17.09-.17.38-.01.77-.03,1.16-.04.06,0,.15.05.16-.04.01-.1-.08-.13-.16-.12-.36.02-.73.05-1.09.07-.2,0-.31.06-.16.31ZM146.61,23.8s-.09.05-.14.09c.03.02.06.06.09.07.29.07.57.15.86.2.1.02.21-.05.32-.07-.03-.04-.06-.09-.1-.1-.33-.06-.66-.12-1.03-.18ZM147,41.58h0c.21,0,.41,0,.62,0,.03,0,.07-.03.1-.05-.03-.03-.07-.09-.1-.09-.4,0-.8,0-1.21.01-.04,0-.07.05-.11.08.04.02.08.05.12.05.19,0,.38,0,.57,0ZM149.3,43.68c.1,0,.17,0,.25-.02.13-.02.37.06.36-.12,0-.13-.24-.04-.37-.04-.07,0-.14,0-.21.02-.14.03-.4-.09-.4.11,0,.14.26,0,.37.06ZM146.08,26.15s-.13.02-.23.04c.03.02.06.06.1.06.43.04.86.07,1.28.1.03,0,.06-.02.1-.04-.03-.02-.06-.05-.09-.05-.37-.04-.74-.07-1.16-.11ZM149.4,42.57c.34-.03.68-.05,1.02-.08.03,0,.06-.03.09-.05-.03-.01-.07-.04-.1-.04-.34.02-.67.04-1.01.06-.07,0-.14.03-.21.05.05.11.14.02.2.05ZM149.59,40.17c-.18.01-.32.02-.45.03-.02,0-.04.04-.07.06.02,0,.04.02.06.02.28.02.56.03.85.04.08,0,.18.04.23-.06-.07-.03-.14-.07-.21-.07-.15-.02-.3-.02-.41-.02ZM150,24.43c.06-.02.12-.03.18-.05-.01-.01-.03-.04-.05-.04-.34-.06-.67-.12-1.01-.18-.02,0-.05.02-.08.04.02.01.04.04.06.04.3.06.59.13.9.19ZM150.34,26.55s0-.04,0-.06c-.48-.05-.96-.1-1.43-.14,0,.02,0,.04,0,.06.48.05.95.1,1.43.15ZM147.68,32.26s0-.03,0-.05c-.31-.04-.61-.09-.92-.13-.03,0-.06.03-.09.04.01.01.03.04.04.04.32.04.64.07.97.1ZM146.85,40.32h.82s0-.04-.01-.04c-.27-.07-.54-.03-.8.01,0,0,0,0,0,.03Z" fill="#000" stroke-width="0"/>
      <path d="M149.93,33.17c.09,0,.19,0,.28,0,.19.02.25.13.24.32,0,.2-.11.17-.25.16-.33-.01-.65,0-.98,0-.15,0-.31,0-.31-.21,0-.2.1-.25.29-.25.24,0,.49-.02.73-.03ZM149.4,33.39c.23-.04.47.03.68-.09-.21,0-.42-.01-.63-.02-.01,0-.02,0-.03,0-.13.03-.36-.11-.37.05,0,.13.24,0,.35.07Z" fill="#000" stroke-width="0"/>
    </g>
  </g>
  <g>
    <path d="M99.64,12.45c.05-.06.08-.14.14-.19.12-.1.31-.16.21-.35-.11-.21-.26-.06-.4-.03-.16.03-.32.07-.48.11,0,0,0,0,0,0,.2-.1.4-.2.59-.31.07-.04.12-.12.18-.18-.09-.02-.19-.07-.26-.05-.54.18-1.07.38-1.61.57-.07.03-.14.06-.22.07.53-.4,1.16-.61,1.82-.76.1-.03.25-.13.26-.21.04-.41.23-.83-.06-1.24-.09-.13-.05-.41.06-.54.08-.1.36-.09.55-.13.15-.03.34-.03.45-.11.84-.64,1.82-.89,2.91-.93.88-.03,1.75.02,2.56.32.55.2,1.04.53,1.52.85.21.13.37.24.65.22.57-.04.97.51.73.97-.02.05-.04.1-.08.13-.53.49-.22,1.05-.17,1.59,0,.1.2.19.32.28.18.13.38.25.57.37-.02.03-.04.05-.06.08-.24-.14-.49-.29-.78-.46.02.6.75.7.88,1.22-.26-.26-.48-.48-.71-.71-.04.02-.07.05-.11.07-.01.04-.04.09-.03.13.17,1.24.32,2.49.54,3.73.1.59.35,1.17.53,1.75.48,1.62.55,3.27.47,4.92-.09,1.88-.17,3.76-.34,5.63-.18,1.95-.6,3.85-1.42,5.69-.35.78-.44,1.64-.69,2.45-.11.37-.32.71-.48,1.07-.02.05-.07.12-.13.13-.51.15-.47.53-.48.89-.04,2.22-.04,4.44.33,6.65.35,2.06.87,4.06,1.86,5.96.47.91,1.03,1.79,1.55,2.68.07.12.16.26.16.39,0,.19,0,.45-.13.53-.14.09-.45.07-.64,0-1.06-.38-1.87-1.05-2.61-1.79-1.81-1.82-2.93-3.96-3.66-6.25-.48-1.52-.87-3.07-1.16-4.62-.24-1.26-.29-2.55-.41-3.83-.02-.2-.07-.34-.29-.45-.42-.21-.58-.6-.7-.99-.22-.69-.38-1.39-.61-2.07-.16-.45-.4-.89-.59-1.33-.53-1.23-.72-2.52-.9-3.81-.25-1.76-.25-3.52-.29-5.28-.01-.39,0-.79,0-1.22-.5.06-.84.27-1.13.55-.08.07-.18.13-.27.2-.1.07-.24.12-.31.21-.3.34-.57.7-.88,1.03-.26.27-.54.53-.85.74-.43.29-.98.21-1.36-.18-.45-.47-.85-1-1.34-1.44-.45-.4-.99-.71-1.49-1.05-.06-.04-.17-.03-.29-.05-.03.41-.06.8-.07,1.18-.05,1.43-.05,2.86-.16,4.29-.08,1.03-.27,2.06-.5,3.07-.17.73-.46,1.45-.77,2.15-.36.82-.62,1.65-.82,2.51-.09.39-.3.76-.48,1.14-.05.11-.14.23-.25.27-.42.17-.4.49-.42.81-.17,2.32-.55,4.6-1.22,6.85-.52,1.74-1.16,3.43-2.12,5.02-.88,1.47-1.98,2.79-3.55,3.76-.31.19-.65.35-1,.46-.18.05-.45,0-.62-.09-.23-.13-.18-.38-.08-.57.18-.34.36-.68.58-1.01,1.35-2.03,2.18-4.22,2.71-6.51.43-1.87.67-3.75.63-5.66-.02-.89-.04-1.77-.08-2.66,0-.1-.07-.26-.15-.3-.63-.24-.82-.74-.92-1.24-.2-1.04-.44-2.07-.9-3.05-.53-1.12-.78-2.31-.94-3.5-.19-1.32-.32-2.65-.42-3.98-.12-1.52-.23-3.04-.24-4.56,0-.89.16-1.78.34-2.66.25-1.26.6-2.5.86-3.76.17-.86.26-1.73.38-2.6.01-.08,0-.17-.02-.25l-.09-.05c-.19.22-.39.44-.58.67-.03-.03-.06-.05-.09-.08.13-.42.85-.53.78-1.11-.22.13-.4.23-.57.33l-.05-.06c.1-.07.19-.16.3-.2.33-.14.44-.38.46-.67,0-.1.03-.2.05-.3.04-.3.12-.61-.19-.86-.06-.04-.08-.12-.12-.18-.29-.5.07-1.01.71-1.02.17,0,.38-.06.5-.16,1.01-.81,2.18-1.25,3.55-1.22.71.02,1.42.07,2.11.19.53.09,1.03.33,1.42.69.15.14.3.19.53.16.55-.07.84.26.58.7-.22.36-.15.71-.14,1.07,0,.21.15.32.38.35.52.08,1.29.41,1.73.74-.67-.25-1.33-.5-1.98-.74-.19.27,0,.32.16.4.57.27,1.13.55,1.7.83.1.05.16.14.2.25-.37-.21-.73-.44-1.11-.63-.25-.13-.52-.23-.79-.32-.1-.03-.23.03-.34.04.06.09.1.21.19.27.4.27.83.51,1.22.79.24.17.43.38.61.61-.65-.53-1.31-1.03-2.11-1.36-.03.02-.07.05-.1.07.06.1.12.2.19.3.45.55.91,1.09,1.36,1.63.08.1.12.22.14.34l-1.7-2.07c-.05.02-.11.03-.16.05.02.1,0,.21.06.3.21.36.43.72.64,1.08.06.1.07.22.07.33-.29-.5-.58-.99-.87-1.49-.04,0-.08.02-.12.02,0,.22-.03.45,0,.67.17,1.17.37,2.34.51,3.52.19,1.56,1,2.87,2.07,4.08.7.79,1.4,1.58,2.07,2.39.24.29.41.64.63.95.08.11.21.24.33.25.12,0,.31-.09.36-.19.67-1.23,1.74-2.21,2.65-3.3.7-.84,1.44-1.67,1.74-2.7.23-.82.36-1.66.51-2.49.12-.64.22-1.28.32-1.91.06-.38.09-.76.09-1.15-.54.37-.75.91-1.05,1.41.1-.51.38-.95.72-1.36.07-.08.11-.19.11-.31-.85.48-1.4,1.17-1.8,1.97-.03-.02-.07-.04-.1-.05.13-.22.22-.46.38-.65.35-.42.74-.82,1.11-1.23.05-.05.13-.09.16-.15.03-.06.02-.14.02-.21-.07,0-.15-.03-.21,0-.11.05-.2.12-.3.18,0,0,0,0,0,0ZM108.57,13.79c.07.14.14.29.21.43.04-.12.04-.24-.01-.33-.02-.05-.13-.06-.21-.09l-.26-.91s.05-.02.07-.03c.08.14.16.28.27.46.12-.55-.46-.72-.6-1.1.19.14.37.27.56.41.03-.02.05-.04.08-.05-.08-.11-.14-.22-.23-.32-.1-.1-.22-.17-.33-.26.01-.02.03-.03.04-.05.13.05.26.09.41.15,0-.15.01-.27,0-.4-.04-.41-.23-.84.27-1.16.06-.04.08-.16.09-.25.03-.32-.16-.43-.43-.35.07.1.24.22.22.32-.05.23-.25.38-.55.34-.37-.04-.74-.03-1.07-.27-.19-.14-.48-.21-.74-.25-.22-.03-.5-.04-.67.06-.23.13-.42.19-.68.06-.01.03-.03.05-.04.08.39.34.79.68,1.25,1.09-.22-.04-.36-.03-.47-.09-.57-.3-1.2-.54-1.68-.93-.63-.5-1.57-.51-2.15,0-.44.39-.91.67-1.51.81-.21.05-.27.18-.16.37.21-.07.4-.14.6-.21-.1.27-.75.18-.51.67.2-.1.37-.18.55-.26,0,.01.02.02.03.04-.17.12-.34.24-.52.37.08.11.14.2.21.3.27-.21.5-.39.74-.58.02.02.04.04.06.06-.13.12-.25.24-.38.36q-.33.31.11.51c.18-.24.37-.49.55-.73-.06.21-.17.4-.3.57-.18.22-.06.36.17.43.37.11.75.27,1.13.28.69.02,1.39-.05,2.08-.1.39-.03.4-.09.19-.39-.15-.22-.3-.43-.45-.65.26.21.46.44.65.69.18.23.38.23.67.03-.26-.25-.5-.48-.75-.72.17.02.31.07.42.16.15.12.27.27.42.39.07.05.19.05.29.07.02-.04.05-.08.07-.12-.32-.26-.63-.52-.95-.79l.06-.06c.36.25.72.49,1.09.74.13-.23.01-.37-.19-.49-.23-.14-.44-.3-.65-.45.02-.02.04-.04.06-.06.29.19.58.37.87.56.09.06.21.15.21.22-.03.27.2.35.37.49.51.41.93.85,1.08,1.47.12.46.34.91.51,1.36.03,0,.05-.02.08-.02-.19-.64-.37-1.28-.56-1.92,0,0,0,0,0,0,.06.1.13.19.16.29.12.34.23.67.34,1.01l.09-.02c-.04-.16-.08-.33-.12-.49-.06-.25-.12-.5-.19-.75ZM106.33,22.04c.36-.25.31-.62.39-.95.01.13.02.26.03.39.03,0,.06,0,.08,0,.03-.2.1-.4.09-.6-.02-.5-.09-.99-.11-1.49,0-.16.07-.32.1-.48.02,0,.04.01.05.02l.06,1.04s.03,0,.05,0c.05-.49.1-.98.16-1.48h.12v.92h.14v-1.06s.07,0,.1,0c.04.28.09.56.13.84h.06v-1.21s.07,0,.1,0c.05.42.09.84.14,1.26.08-.25.13-.5.11-.75-.01-.24-.1-.48-.15-.72.03,0,.06-.01.09-.02.11.37.22.73.34,1.12.15-.46-.06-.88-.17-1.3.33.42.47.89.46,1.41l.1-.02c-.09-.52-.18-1.04-.26-1.54.35.42.34.97.44,1.52.18-.97-.36-1.78-.57-2.66l.63,1.3.08-.02c-.19-.5-.39-.99-.58-1.49.02,0,.04-.01.07-.02.08.14.15.28.23.41.02-.17-.04-.3-.09-.44-.22-.54-.47-1.08-.64-1.63-.19-.63-.59-1.11-1.14-1.52-.09-.06-.19-.11-.29-.16-.03.02-.06.04-.08.06.44.53.88,1.05.91,1.74-.08-.05-.14-.11-.16-.18-.13-.46-.36-.88-.71-1.24-.06-.07-.19-.09-.29-.13.08.39.25.69.22,1.02-.13-.23-.22-.46-.35-.68-.04-.07-.15-.1-.23-.15-.02.08-.08.16-.06.23.11.6.24,1.19.36,1.79.01.08,0,.16,0,.23h-.12c-.15-.67-.29-1.35-.44-2.03-.04,0-.08.01-.11.02,0,.65.05,1.3-.29,1.9.14-.57.22-1.13.14-1.71-.04,0-.07,0-.11,0v.59h-.04c-.03-.16-.07-.31-.1-.46-.01,0-.03,0-.04.01-.05.35-.09.69-.14,1.04-.03,0-.07,0-.1,0v-.75s-.04,0-.06,0c-.05.33-.1.65-.16.98-.03,0-.06,0-.09,0v-.72s-.06,0-.08,0c-.06.31-.12.62-.17.94-.03,0-.06,0-.09,0,.02-.25.03-.51.05-.76-.02,0-.05,0-.07,0-.03.1-.05.21-.09.34-.06-.1-.1-.18-.14-.26l-.06.02c.05.25.09.5.14.76-.02,0-.04,0-.06.01-.1-.24-.2-.47-.3-.71-.02,0-.04,0-.07.01.05.24.11.47.16.71-.03,0-.05.01-.08.02-.11-.25-.23-.49-.34-.74-.03,0-.06.02-.09.03.08.24.16.48.23.73-.03,0-.05.02-.08.03-.14-.27-.28-.53-.42-.8-.03.15,0,.28.05.41.04.12.09.24.13.36-.03,0-.07.02-.1.03l-.39-.83s-.04,0-.05.01c.07.26.14.51.21.77l-.09.03c-.12-.29-.25-.58-.37-.87-.02,0-.03,0-.05.01l.15.71s-.06.01-.08.02c-.1-.31-.21-.62-.31-.93-.02,0-.05.01-.07.02.06.25.11.5.17.75-.03,0-.05.01-.08.02-.13-.35-.25-.71-.38-1.06-.02,0-.04,0-.05.01.06.31.13.61.19.92-.03,0-.06.01-.09.02-.11-.36-.23-.73-.34-1.09-.01,0-.03,0-.04,0,.04.3.08.61.13.91l-.12.02c-.08-.41-.16-.82-.24-1.24-.02,0-.03,0-.05,0v.94s-.05,0-.07,0c-.04-.32-.07-.63-.11-.95-.02,0-.03,0-.05,0-.15.84-.29,1.69-.44,2.53.02,0,.05,0,.07.01.08-.1.15-.2.27-.35-.1.37-.19.66-.27.96.03,0,.07.01.1.02.1-.2.2-.4.31-.6.03,0,.05.02.08.03-.18.48-.45.94-.2,1.51.02-.24.03-.42.06-.61.03-.17.09-.34.13-.5-.15,1.06.33,2.14-.08,3.18.56-.95.11-1.99.32-2.96.01,1.14.27,2.29-.12,3.42.08-.09.17-.18.18-.28.07-.52.13-1.04.17-1.56.03-.36,0-.73,0-1.09.03,0,.07,0,.1,0,0,.27-.04.54,0,.8.2,1.09-.04,2.09-.7,3.03-.28.4-.41.84-.41,1.31,0,1.2-.03,2.41-.03,3.61,0,.38.09.76.13,1.14.04-.75,0-1.48-.01-2.22-.01-.74,0-1.48,0-2.21,0-.7.21-1.24.6-1.54-.45.67-.42,1.41-.42,2.15,0,.86-.03,1.71-.01,2.57,0,.5.08.99.13,1.49.03,0,.06,0,.09,0,0-.08,0-.16,0-.24-.04-1.42-.09-2.85-.11-4.27,0-.33.1-.66.15-.99.03,0,.06,0,.08.01-.24,2.3-.11,5.53.26,5.93-.13-1.89-.24-3.74-.02-5.59,0,1.94-.13,3.89.37,5.8-.05-.93-.14-1.86-.16-2.8-.02-.93.02-1.86.03-2.79.04,0,.07,0,.11,0,0,1.9-.16,3.82.31,5.7-.08-1.69-.15-3.38-.23-5.06.04,0,.09,0,.13,0,.04,1.78.07,3.55.39,5.31.03,0,.07,0,.1,0v-4.79s.08,0,.12,0c0,.58,0,1.17,0,1.75,0,.7-.04,1.39-.02,2.09.01.43.1.86.15,1.3.02,0,.04,0,.07,0v-4.83c.06.43.06.87.07,1.3,0,.44,0,.88.02,1.31.01.44.02.88.05,1.31.03.42.09.84.14,1.26.01,0,.03,0,.04,0v-4.46s.02,0,.02,0c.07,1.56.14,3.11.2,4.67.05,0,.09,0,.14,0-.04-1.21-.07-2.42-.11-3.63.03,0,.06,0,.1,0,.07,1.26.13,2.53.2,3.79.03,0,.06,0,.1,0v-2.26s.06,0,.09,0c.03.88.07,1.76.1,2.63.04,0,.08,0,.13,0v-2.34s.06,0,.09,0c.04.95.08,1.9.12,2.84.04,0,.07,0,.11,0v-2.64h.1c.04.99.09,1.98.13,2.96.03,0,.06,0,.1,0v-2.77s.07,0,.1,0c.04.83.08,1.67.11,2.5.04,0,.08,0,.11,0v-2.42s.09,0,.13,0v2.16c.06,0,.12,0,.19,0v-2.02s.08,0,.13,0c.03.53.06,1.06.09,1.59.03,0,.06,0,.1,0,.03-.49.07-.98.1-1.47.05,0,.1,0,.15,0v1.05c.05,0,.1,0,.15,0,.03-.33.05-.66.08-.98.03,0,.07,0,.1,0,.02.18.04.37.06.55.03,0,.05,0,.08,0,.04-.18.09-.36.13-.54h.04c.01.13.03.25.04.35.78-.22.62-.84.8-1.33-.02.31-.05.62-.07.92.31-.25.25-.58.35-.89v.73s.06,0,.09,0c.04-.44.08-.87.12-1.31.03,0,.06,0,.1,0v1.17s.07,0,.11,0c.06-.91.12-1.81.18-2.72h.06v2.61s.06,0,.1,0c.03-1.08.06-2.15.09-3.23.03,0,.07,0,.1,0v3s.04,0,.05,0c.04-1.1.07-2.19.11-3.29.04,0,.08,0,.12,0v3.21s.08,0,.12,0c0-.93.01-1.87,0-2.8,0-.4.05-.75.41-1.05.42-.34.59-.86.51-1.3-.16.6-.54,1.02-1.07,1.34-.5.31-.79.7-.89,1.25-.1.52-.36,1-.79,1.48.01-.25.03-.43.03-.61,0-.17-.02-.35-.03-.52-.03,0-.07,0-.1,0,0,.32,0,.64,0,.96,0,.37-.07.44-.57.46v-1.3s-.09,0-.13,0v1.26c-.77-.24-.33-.85-.63-1.22v.48s-.07.02-.1.03c-.08-.13-.19-.26-.23-.4-.29-1.03-.14-2.01.51-2.91.13-.18.24-.36.36-.54.02-.04.04-.08.07-.12ZM88.13,22.41s.06,0,.08,0v5.51c.3-1.95.15-3.92.45-5.87-.06,1.9-.12,3.8-.19,5.69.39-1.94.24-3.9.39-5.85.04,1.93.1,3.85-.17,5.86.07-.13.12-.19.13-.25.08-.46.19-.92.21-1.39.04-1.04.01-2.07.04-3.11.02-.67-.07-1.31-.47-1.89,0,0,.01-.03.02-.05.39.42.56.78.57,1.31,0,.86.01,1.71,0,2.57,0,.67-.04,1.35-.07,2.02,0,.13-.03.25-.04.38.11-.1.17-.21.18-.32.05-1,.11-2,.13-3.01,0-.67.06-1.36-.12-1.99-.2-.74-.6-1.45-.98-2.15-.32-.6-.25-1.21-.18-1.83.06.38,0,.76.08,1.13.07.36.26.7.4,1.05.04-.01.08-.02.12-.03-.51-.92-.45-1.89-.31-2.85.12.72-.1,1.48.21,2.24v-2.45c.21.81-.06,1.67.29,2.48.02-.08.04-.16.02-.23-.22-.91.2-1.86-.28-2.75l.13-.02c.1.33.2.66.29.96.16-.47-.09-.93-.23-1.4.03,0,.07-.02.1-.02.11.26.21.53.32.79.02,0,.04,0,.06-.01-.09-.38-.18-.75-.27-1.13.02,0,.04-.01.06-.02.07.13.13.26.2.4.02,0,.04-.01.07-.02-.16-.89-.31-1.78-.47-2.69-.04.35-.08.67-.12.99-.04,0-.08,0-.12,0v-.92c-.09.45-.05.91-.35,1.32.06-.38.11-.76.17-1.13-.03,0-.06-.01-.09-.02-.12.45-.09.95-.52,1.33.12-.36.23-.69.34-1.02-.02,0-.05-.01-.07-.02-.19.4-.39.8-.58,1.2l-.07-.03c.08-.26.17-.53.25-.79-.02,0-.04-.01-.07-.02-.17.32-.34.65-.5.97-.02,0-.05-.02-.07-.03.1-.27.2-.54.29-.82-.03,0-.06-.02-.09-.03-.13.29-.27.59-.4.88-.02,0-.04-.01-.06-.02.05-.23.1-.46.15-.68-.02,0-.05-.01-.07-.02l-.3.76s-.03-.01-.05-.02c.03-.23.05-.46.08-.69-.02,0-.05,0-.07-.01-.07.24-.15.48-.22.72-.02,0-.04,0-.06-.01.02-.25.04-.5.06-.76-.03,0-.06,0-.09-.01-.06.25-.13.49-.19.74-.03,0-.05,0-.08-.01v-.74s-.05,0-.07,0c-.04.23-.07.45-.11.68-.02,0-.04,0-.05,0-.02-.25-.04-.5-.07-.76h-.11c-.02.22-.03.44-.05.66-.02,0-.04,0-.06,0-.04-.26-.08-.53-.12-.79-.02,0-.05,0-.07,0-.03.21-.05.41-.08.62-.03,0-.06,0-.08,0-.04-.29-.08-.57-.12-.86-.03,0-.06,0-.09,0,.01.21.03.42.04.63-.02,0-.05,0-.07.01-.08-.37-.17-.74-.25-1.12-.03,0-.06,0-.08,0v1.61c-.31-.63-.23-1.29-.17-1.96-.1.1-.17.19-.19.29-.13.5-.24,1.01-.36,1.51-.03.11-.09.2-.14.3l-.14-.05c.13-.59.27-1.18.39-1.77.03-.16.01-.33.02-.49-.14.12-.31.23-.42.37-.13.16-.21.35-.31.53-.04-.43.35-.75.37-1.25-.69.51-1.02,1.1-1.23,1.76,0-.72.47-1.27.9-1.83-.65.31-1.09.77-1.35,1.37-.29.69-.61,1.37-.92,2.05-.06.13-.08.26-.13.39.04.01.07.02.11.04.29-.55.59-1.1.88-1.65.02,0,.04.01.05.02-.41.84-.82,1.69-1.22,2.53.04.02.08.03.13.05.23-.42.46-.84.68-1.26.04.01.08.02.11.03-.55.83-.74,1.72-.7,2.58.15-.53.31-1.12.47-1.71.03,0,.05.01.08.02-.11.58-.22,1.16-.32,1.73.03,0,.06,0,.09.01.11-.43.22-.85.34-1.28.02,0,.04,0,.06.01-.05.47-.1.94-.14,1.41.01,0,.03,0,.04,0,.12-.46.24-.91.36-1.37l.09.02c-.04.23-.1.46-.12.7-.02.24,0,.47,0,.71,0,0,.02,0,.03,0,.1-.4.21-.81.31-1.21.02,0,.04,0,.05.01-.03.49-.05.98-.08,1.47.03,0,.06,0,.1,0,.07-.41.15-.82.22-1.23.03,0,.06,0,.1.01-.03.4-.06.8-.09,1.19h.07c.05-.24.1-.49.15-.74h.06v1.32s.05,0,.08,0c.04-.32.08-.64.12-.95.07.3.08.6.07.89,0,.48-.04.95-.03,1.42,0,.15.12.31.19.46.03,0,.07-.02.1-.03v-.69s.02,0,.03,0c.04.31.07.62.11.93.04,0,.09,0,.13,0v-1.05s.07,0,.1,0c0,.2-.02.39,0,.59.03.28-.01.62.15.83.7.9.91,1.89.81,2.94-.02.23-.19.46-.29.69-.03,0-.07-.02-.1-.03-.02-.19-.04-.37-.06-.56-.04,0-.07,0-.11,0,0,.25,0,.5,0,.75,0,.26-.15.39-.49.46v-1.21s-.08,0-.12,0v1.23c-.4-.02-.54-.17-.51-.47.02-.18,0-.36,0-.54,0-.14-.02-.28-.03-.41-.04,0-.08,0-.11,0v.97s-.09.02-.13.03c-.26-.51-.55-1.01-.76-1.53-.15-.38-.36-.69-.73-.9-.6-.35-1.03-.79-1.2-1.48-.1.67.3,1.37.89,1.67.08.04.16.15.16.23,0,.69-.02,1.37-.03,2.06,0,.45,0,.91,0,1.36.05,0,.1,0,.15,0v-3.19s.1,0,.14,0v3.29s.09,0,.14,0v-3.07s.1,0,.15,0v3.21s.09,0,.13,0v-2.57c.09.89.08,1.79.23,2.68.04,0,.09,0,.13,0v-1.18c.2.45-.01.94.23,1.37.03,0,.06,0,.09-.01v-.89s.04,0,.06,0c.05.35.1.7.15,1.05.03,0,.05,0,.08-.01.01-.06.03-.11.04-.19.11.16.19.29.32.49.04-.16.05-.23.08-.35.11.21.19.36.27.52.02,0,.05-.01.07-.02,0-.14.02-.29.02-.43.02,0,.05,0,.07,0,.07.26.13.52.2.79.03,0,.06,0,.09-.01v-.77s.05,0,.07,0c.06.4.11.8.17,1.2.03,0,.07,0,.1,0v-1.21s.05,0,.08,0c.04.54.08,1.07.13,1.61.04,0,.08,0,.12,0v-1.69s.05,0,.08,0c.05.68.1,1.36.15,2.03.03,0,.07,0,.1,0v-2.22s.03,0,.05,0c.06.84.12,1.69.18,2.53.04,0,.08,0,.12,0v-2.63s.07,0,.11,0v2.68s.06,0,.09,0c.04-.96.07-1.91.11-2.87.03,0,.07,0,.1,0v2.5s.07,0,.11,0c.07-.96.13-1.93.2-2.89.02,0,.04,0,.06,0v2.38s.07,0,.11,0c.04-.89.09-1.79.13-2.68.02,0,.04,0,.06,0v2.33s.08,0,.12,0c.04-.92.08-1.85.12-2.77.03,0,.07,0,.1,0v2.46s.09,0,.13,0c.04-1.21.07-2.42.11-3.63.03,0,.05,0,.08,0v3.32s.09,0,.13,0c.03-.77.07-1.55.07-2.32,0-.78-.02-1.55-.02-2.33,0-.16.06-.32.1-.48.01,0,.03.01.04.02v4.94c.3-1.73.07-3.48.31-5.22v4.99s.07,0,.1,0c.27-1.81-.03-3.65.26-5.46v5.28c.21-1.92.19-3.84.21-5.76ZM85.34,12.09s.04.02.06.04c-.19.28-.38.55-.56.84-.07.11-.13.24.08.28.83.17,1.68.26,2.52.09.39-.08.76-.26,1.18-.41-.21-.28-.36-.48-.51-.68.02-.02.05-.03.07-.05.2.21.39.43.59.65.13-.09.23-.16.34-.23-.16-.19-.31-.36-.46-.53.02-.02.04-.03.06-.05.19.15.37.29.6.47.23-.49-.36-.53-.5-.81.26.1.49.2.73.3.25-.37-.27-.33-.35-.56.17.05.3.09.43.13.13-.25-.07-.32-.25-.38-.57-.18-1.06-.48-1.49-.86-.49-.43-1.38-.41-1.91-.05-.53.36-1.12.66-1.69.98-.15.08-.35.1-.57.17.45-.4.85-.76,1.25-1.11-.26-.02-.51.03-.61-.06-.3-.27-.63-.18-.94-.12-.57.11-1,.55-1.65.5-.27-.02-.48-.05-.58-.26-.11-.22.11-.29.29-.35.01,0,.02-.03.06-.12-.18.03-.35,0-.45.07-.08.06-.15.22-.12.31.06.18.21.34.3.52.06.12.12.27.11.4-.02.31-.08.62-.13.98.21-.08.34-.13.51-.19-.19.23-.63.24-.5.64.11-.07.21-.14.31-.2.1-.06.2-.11.31-.16-.65.61-.69.67-.67,1.05.15-.21.28-.4.42-.59-.03.19-.12.35-.19.51-.07.16-.14.31-.2.47-.06.16-.1.32-.15.47.03,0,.06.01.08.02.19-.39.38-.77.56-1.16h.05c-.27.93-.53,1.85-.8,2.77.28-.5.53-1.01.7-1.54.17-.52.45-.97.89-1.35.21-.18.58-.25.52-.61,0-.02.06-.06.1-.08.33-.21.67-.41,1.01-.62.02.02.04.05.06.07-.34.22-.67.44-1.03.67.09.07.16.12.2.16.44-.27.85-.52,1.26-.77-.27.3-.59.55-.9.8-.14.11-.18.21.02.27.36-.27.7-.53,1.05-.79.03.03.06.06.08.08-.29.25-.57.51-.86.77.42.27.45.26.67-.05.18-.26.4-.49.6-.74ZM84.1,37.47s.02,0,.04,0c.06.16.12.32.2.47.04.08.13.13.19.2.04-.08.1-.15.1-.23.04-.69-.09-1.37-.34-2.02-.11-.27-.26-.53-.39-.79-.03,0-.06.01-.09.02,0,.28.02.55,0,.82-.03.24-.12.48-.18.72-.06-.06-.12-.12-.2-.2.02.13.03.23.04.33-.02,0-.03,0-.05.01-.04-.07-.08-.14-.13-.22-.01.09-.02.16-.04.27-.1-.16-.16-.26-.22-.36-.01,0-.03,0-.04.01.02.11.04.22.06.33-.02,0-.04.02-.05.02-.1-.15-.19-.3-.29-.45-.01,0-.03.01-.04.02.03.13.06.27.08.4-.02,0-.05.01-.07.02-.09-.14-.18-.28-.28-.44-.02.07-.04.12-.07.23-.18-.49-.34-.91-.49-1.33-.03,0-.05.01-.08.02.08.53.16,1.06.25,1.59.05.29.09.59.19.88.07.23.16.47.55.55-.05-.39-.1-.73-.14-1.07.17.36.28.74.4,1.11.05.16.13.36.38.28.08-.03.13-.24.12-.36-.03-.29-.09-.58-.15-.87.15.29.24.59.32.9.05.18.09.37.37.34.29-.03.21-.25.2-.4-.02-.27-.08-.53-.13-.79ZM107.24,37.23s.05.01.08.02c-.06.36-.13.71-.2,1.15.59-.35.7-.71.96-3.17-.2.53-.4,1.07-.6,1.6-.03,0-.06-.02-.08-.02.03-.16.06-.32.09-.48-.02,0-.04-.01-.06-.02-.09.2-.17.4-.26.6l-.06-.02.05-.52s-.03,0-.05,0c-.07.19-.15.37-.22.56-.03,0-.05-.02-.08-.02l.07-.6s-.04,0-.07-.01c-.07.2-.14.4-.22.6-.03,0-.05-.01-.08-.02.02-.21.05-.42.07-.63-.02,0-.03,0-.05-.01l-.24.49s-.04,0-.06-.01c0-.19.02-.37.03-.64-.1.12-.14.17-.18.22-.02,0-.05,0-.07-.01v-1.14c-.15.14-.25.29-.29.45-.18.69-.36,1.37-.51,2.06-.03.16.05.33.08.5.04,0,.08,0,.12,0,.14-.32.29-.64.43-.96-.03.35-.13.69-.19,1.02-.04.2-.08.47.22.52.28.04.25-.23.31-.39.12-.33.22-.66.33-.98.03,0,.05.01.08.02-.08.37-.17.74-.23,1.11-.01.07.04.2.08.2.09,0,.24-.01.28-.07.1-.13.15-.29.21-.44.11-.31.2-.62.3-.93ZM87.37,38.5c.58-.04,1.2-1.52,1.09-2.52-.13.32-.25.63-.37.93-.02,0-.03,0-.05-.01-.01-.08-.02-.16-.04-.27-.09.17-.16.3-.23.44-.02,0-.05-.01-.07-.02.02-.18.03-.36.05-.62-.12.26-.2.43-.29.6-.02,0-.04-.01-.06-.02l.05-.58s-.04,0-.06,0c-.06.17-.12.35-.19.52-.02,0-.05,0-.07-.01v-.74c-.08.24-.13.4-.18.56-.03,0-.07,0-.1-.01-.04-.42-.09-.83-.13-1.25,0-.05-.04-.1-.05-.15-.04.02-.07.02-.08.03-.46.61-.69,1.29-.79,2.01-.01.11.09.23.13.35.04,0,.08,0,.11,0,.14-.23.28-.46.42-.69-.07.31-.2.61-.31.91-.07.18-.16.41.09.5.28.11.3-.18.38-.32.14-.25.24-.52.36-.78.03.01.07.02.1.03-.13.34-.27.69-.38,1.04-.03.08.04.19.06.28.11-.05.26-.07.33-.14.11-.14.17-.3.24-.46.1-.23.19-.46.28-.68.03,0,.07.02.1.03-.11.35-.23.71-.35,1.09ZM101.4,35.89s-.04,0-.05.01c.12.52.21,1.05.36,1.57.09.3.25.59.41.87.04.07.22.09.33.13,0-.1.03-.2,0-.29-.09-.28-.19-.56-.29-.84.03,0,.06-.01.09-.02.04.09.08.18.12.27.15.31.28.63.45.93.04.08.21.1.32.14.02-.1.08-.2.07-.29-.02-.13-.09-.24-.14-.37-.08-.22-.15-.44-.22-.67.22.28.35.59.51.89.05.09.19.13.28.19.06-.11.16-.22.15-.33,0-.15-.1-.3-.16-.45-.09-.22-.18-.45-.27-.67.02,0,.04-.01.06-.02.15.24.31.47.48.75.29-.49-.23-2.09-.7-2.36-.03.34-.07.67-.1,1.01-.07-.03-.11-.06-.18-.09.05.16.1.29.14.42-.02,0-.04.01-.07.02-.06-.1-.11-.2-.21-.38v.48s-.03,0-.05,0l-.21-.47s-.04.01-.06.02c.03.18.06.37.09.55-.03,0-.05.01-.08.02-.08-.16-.17-.32-.25-.48-.02,0-.04.01-.06.02l.12.5s-.06.01-.08.02c-.1-.17-.2-.34-.33-.57-.01.17-.02.27-.03.37-.03,0-.05.01-.08.02-.12-.31-.24-.62-.36-.93ZM81.85,28.63c.26.26.48.45.66.67.17.2.31.43.44.66.13.23.22.47.33.7.02,0,.04-.01.05-.02-.11-.29-.21-.58-.32-.88.52.75,1.01,1.51,1.12,2.41.11.89-.05,1.74-.59,2.52,1.87-1.36.84-4.95-1.69-6.06ZM107.95,28.7c-.14.07-.2.09-.25.12-1.63.88-2.54,2.74-2.23,4.48.08.48.34.92.8,1.29-1.25-2.36-.18-4.17,1.68-5.89ZM105.63,25.3s.08,0,.12,0c.01-.15.03-.3.03-.46.01-.7.24-1.35.71-1.92.23-.28.53-.51.77-.79.2-.23.34-.49.51-.74-.35.28-.65.59-.97.88-.44.39-.78.82-.98,1.34-.21.55-.26,1.11-.19,1.69ZM84.19,25.03s.06-.01.09-.02c0-.16.01-.31,0-.47-.09-.91-.4-1.72-1.24-2.33-.29-.21-.53-.48-.79-.72.05.14.11.29.21.41.22.25.46.49.7.73.58.58.92,1.24.93,2.03,0,.13.06.25.1.38ZM100.21,11.05s.07.05.1.08c.39-.25.77-.49,1.16-.74-.02-.03-.04-.06-.05-.08-.29-.04-.49-.44-.83-.19-.33.23-.41.58-.37.94ZM89.57,11.11s.07-.04.11-.06c-.06-.25-.09-.5-.17-.75-.08-.22-.42-.32-.64-.2-.13.07-.24.17-.4.3.39.25.75.48,1.11.71ZM88.52,29.03s-.05-.03-.08-.05c-.55.76-1.19,1.47-1.34,2.32.44-.71.93-1.49,1.42-2.27ZM102.5,31.39c-.1-.29-.14-.55-.27-.76-.4-.6-.85-1.17-1.28-1.75,0,0-.03,0-.09,0,.22.41.43.8.63,1.19.03-.01.05-.02.08-.03-.01-.06-.02-.11-.04-.17.03-.01.06-.02.09-.04.28.5.56,1,.88,1.56ZM89.05,28.9s-.07-.03-.11-.05c-.46.76-1.11,1.43-1.35,2.29.49-.75.98-1.49,1.47-2.24ZM102.76,31.23c-.08-.96-.89-1.55-1.45-2.27.4.8,1.21,1.39,1.45,2.27ZM87.85,29.37c-.7.72-1.17,1.52-1.23,2.47.19-.91.7-1.7,1.23-2.47ZM103.23,31.52c-.1-.92-.6-1.67-1.36-2.3.56.71,1.14,1.42,1.36,2.3ZM106.71,30.97c.47-.59.92-1.14,1.39-1.72-.7.44-1.07,1.03-1.39,1.72ZM82.04,29.44c.34.5.72,1.03,1.09,1.57-.28-.59-.4-1.28-1.09-1.57ZM105.91,9.78c-.09-.33-.29-.39-.53-.39-.26,0-.46.16-.53.46.32-.25.64-.32,1.05-.07ZM88.93,9.74c-.21-.36-.45-.44-.71-.3-.21.11-.22.18-.05.38.18-.3.45-.18.76-.07ZM100.52,28.85c.15.6.51,1.11.94,1.58l-.94-1.58ZM86.33,31.36c.29-.5.58-1.02.89-1.56-.5.46-.79.98-.89,1.56ZM85.01,9.91c0-.36-.2-.53-.51-.54-.25,0-.44.14-.44.38.37-.32.67-.23.95.16ZM101.77,9.84c.07-.27-.03-.41-.29-.45-.23-.04-.41.13-.44.37.33-.21.45-.2.73.08ZM89.36,29.05s-.07-.04-.11-.05l-.76,1.19s.05.02.07.04c.26-.39.53-.78.79-1.17ZM107.48,29.39s-.05-.03-.07-.05c-.31.43-.61.87-.92,1.3.03.02.06.03.08.05.3-.43.61-.86.91-1.29ZM103.23,34.65c.37-.24.5-.58.52-1.03-.19.38-.36.71-.52,1.03ZM82.74,31.03c-.17-.44-.39-.85-.82-1.14.27.38.54.76.82,1.14ZM86.54,34.7s.07-.03.11-.05c-.16-.31-.33-.62-.49-.93-.03,0-.05.02-.08.03.15.32.31.63.46.95ZM104.47,9s.05.05.08.07c.2-.16.4-.32.59-.48-.05-.05-.1-.09-.15-.14-.17.18-.35.37-.52.55ZM81.4,14.16l-.11-.03c-.09.3-.18.6-.27.9.03,0,.06.01.09.02l.3-.89ZM108.02,29.87s-.06-.04-.09-.06c-.22.3-.45.6-.67.89.02.01.04.02.06.04l.7-.87ZM103.51,31.25s.05-.02.08-.03c-.14-.3-.29-.59-.43-.89-.02,0-.04.01-.06.02.14.3.28.6.41.89ZM85.33,9.02s.04-.04.07-.07c-.17-.13-.33-.25-.5-.38-.02.02-.03.03-.05.05.16.13.32.26.48.4ZM101.76,30.31s-.04.02-.06.03c.04.07.07.13.11.2.02,0,.03-.01.05-.02-.03-.07-.06-.14-.1-.21Z" fill="#000" stroke-width="0"/>
    <path d="M99.64,12.45c-.29.17-.6.33-.88.52-.27.19-.5.41-.79.59.08-.09.14-.21.24-.28.39-.28.78-.55,1.18-.82.05-.04.16,0,.24,0,0,0,0,0,0,0Z" fill="#000" stroke-width="0"/>
    <path d="M99.11,11.99c-.08.06-.15.12-.24.17-.37.22-.75.44-1.15.64.41-.34.82-.68,1.39-.8,0,0,0,0,0,0Z" fill="#000" stroke-width="0"/>
    <path d="M106.26,22.16s-.07-.07-.06-.1c.03-.24.08-.49.1-.73.02-.23,0-.47.05-.7.12.47.17.94-.02,1.41-.02.04-.04.08-.07.12Z" fill="#000" stroke-width="0"/>
    <path d="M83.84,22.28v-1.83s.01,0,.02,0c.03.61.07,1.22.1,1.82-.04,0-.08,0-.12,0Z" fill="#000" stroke-width="0"/>
    <path d="M87.89,19.71c-.08-.43-.16-.86-.24-1.28.03,0,.06,0,.09-.01.08.43.17.85.25,1.28-.04,0-.07.02-.11.02Z" fill="#000" stroke-width="0"/>
    <path d="M84.13,20.92l.09,1.5c-.23-.48-.11-.99-.09-1.5Z" fill="#000" stroke-width="0"/>
    <path d="M84.44,22.55c-.05-.32-.1-.65-.16-.97.03,0,.06,0,.09-.01.06.32.11.64.17.96-.03,0-.06.01-.1.02Z" fill="#000" stroke-width="0"/>
    <path d="M84.62,21.88c.12.26.24.53.36.79l-.08.03c-.14-.26-.27-.52-.41-.78.04-.01.08-.03.12-.04Z" fill="#000" stroke-width="0"/>
    <path d="M102.22,26.92v-3.53s.04,0,.05,0v3.54s-.04,0-.05,0Z" fill="#000" stroke-width="0"/>
    <path d="M101.89,17.99c.04.36.07.73.11,1.09.01,0,.02,0,.03,0,.03-.21.06-.42.1-.63.06.48-.02.94-.32,1.38.03-.34.09-.65.09-.95,0-.29-.06-.59-.1-.88.03,0,.06,0,.09,0Z" fill="#000" stroke-width="0"/>
    <path d="M106.05,20.42c.16.73.08,1.52-.14,1.81.05-.6.09-1.21.14-1.81Z" fill="#000" stroke-width="0"/>
    <path d="M105.87,20.91c-.03.5-.06,1-.1,1.5-.03,0-.06,0-.09,0,.03-.5.07-1,.1-1.5.03,0,.05,0,.08,0Z" fill="#000" stroke-width="0"/>
    <path d="M105.31,22.65c.09-.42.17-.8.24-1.16.12.22,0,.85-.24,1.16Z" fill="#000" stroke-width="0"/>
    <path d="M108.42,15.95l-.41-1.05s.03-.01.05-.02c.16.34.32.68.47,1.03-.04.01-.08.03-.12.04Z" fill="#000" stroke-width="0"/>
    <path d="M105.28,21.97c-.09.22-.17.44-.26.66-.03,0-.06-.02-.09-.03.09-.22.19-.44.28-.66.02,0,.04.01.07.02Z" fill="#000" stroke-width="0"/>
    <path d="M102.47,10.3c.16.27.41.3.97.13-.1-.05-.18-.09-.26-.13.29-.03.69.14.8.35.1.19,0,.41-.23.49-.05.02-.12,0-.16.03-.4.17-.8.28-1.21,0-.16-.11-.45-.15-.52-.28-.13-.23.14-.36.34-.47.07-.04.16-.06.27-.1Z" fill="#000" stroke-width="0"/>
    <path d="M104.19,12.25c-.75.25-1.44.59-2.13.05,0-.03,0-.06,0-.1.16.02.33.02.48.07.29.11.56.1.85,0,.24-.08.49-.22.8-.03Z" fill="#000" stroke-width="0"/>
    <path d="M108.28,13.75c-.07-.29-.15-.59-.22-.88.03,0,.06,0,.09-.01.04.3.08.6.12.9,0,0,0,0,0,0Z" fill="#000" stroke-width="0"/>
    <path d="M86.86,10.32c-.02.06-.04.13-.09.26.18-.04.38-.03.44-.11.17-.21.36-.1.5-.03.13.07.29.23.29.35,0,.11-.17.29-.3.33-.24.07-.5.09-.68.28-.04.04-.2.01-.3-.02-.17-.06-.34-.13-.5-.21-.15-.08-.38-.18-.41-.3-.03-.12.11-.33.25-.41.22-.12.49-.16.74-.23.02.03.03.06.05.09Z" fill="#000" stroke-width="0"/>
    <path d="M87.87,12.26c-.79.52-1.5.34-2.2,0,0-.03,0-.06-.01-.09.12,0,.26-.05.37-.02.49.15.96.28,1.47.05.08-.04.21.02.37.05Z" fill="#000" stroke-width="0"/>
  </g>
</svg>