<?xml version="1.0" encoding="UTF-8"?>
<svg id="Otter_chef_Image" data-name="Otter chef Image" xmlns="http://www.w3.org/2000/svg" xmlns:xlink="http://www.w3.org/1999/xlink" viewBox="0 0 286.82 51.49">
  <defs>
    <radialGradient id="radial-gradient" cx="144.58" cy="45.45" fx="144.58" fy="45.45" r="1.47" gradientTransform="translate(0 51.17) scale(1 -1)" gradientUnits="userSpaceOnUse">
      <stop offset=".28" stop-color="#fff"/>
      <stop offset=".55" stop-color="#9d9d9d"/>
      <stop offset=".86" stop-color="#2c2c2c"/>
      <stop offset="1" stop-color="#000"/>
    </radialGradient>
  </defs>
  <g>
    <g>
      <path d="M32.55,7.22c-3.59-3.35-9.01-5.12-16.62-5.12-2,0-3.6.04-5.97.11-.06,1.91-4.22,1.79-1.44,4.1,4.84,0,5.07-.02,7.65-.02,11.2,0,16.69,6.15,16.62,15.83,0,11.08-6.15,17.42-17.48,17.42-2.04,0-2,.05-5.69.07,0,1.44-3.92,2.85-3.92,4.3,7.1-.1,7.06-.11,8.58-.11,7.98,0,14.31-2.07,18.15-5.91,3.84-3.78,5.91-9.26,5.91-15.95s-2.13-11.39-5.79-14.74v.02Z"/>
      <path d="M72.17,28.46c0,10.9-7.55,15.65-14.68,15.65-7.98,0-14.13-5.85-14.13-15.16,0-9.87,6.45-15.65,14.62-15.65s14.19,6.15,14.19,15.16ZM48.79,28.76c0,6.46,3.71,11.33,8.95,11.33s8.95-4.81,8.95-11.45c0-4.99-2.5-11.33-8.83-11.33s-9.07,5.85-9.07,11.45Z"/>
      <path d="M128.86,41.41l-.43-3.71h-.18c-1.64,2.31-4.81,4.38-9.01,4.38-5.97,0-9.01-4.2-9.01-8.46,0-7.12,6.33-11.02,17.72-10.96v-.61c0-2.44-.67-6.82-6.7-6.82-2.74,0-5.6.85-7.67,2.19l-1.22-3.53c2.44-1.58,5.97-2.62,9.68-2.62,9.01,0,11.2,6.15,11.2,12.06v11.02c0,2.56.12,5.05.49,7.06h-4.87ZM128.07,26.36c-5.85-.12-12.48.91-12.48,6.64,0,3.47,2.31,5.12,5.05,5.12,3.84,0,6.27-2.44,7.12-4.93.18-.55.3-1.16.3-1.71v-5.12h0Z"/>
      <path d="M148.3,6.14c.06,1.83-1.28,3.29-3.41,3.29-1.89,0-3.23-1.46-3.23-3.29s1.4-3.35,3.35-3.35,3.29,1.46,3.29,3.35Z" fill="url(#radial-gradient)"/>
      <path d="M156.14,19.91c0-3.04-.06-5.54-.24-7.98h4.75l.3,4.87h.12c1.46-2.8,4.87-5.54,9.74-5.54,4.08,0,10.41,2.44,10.41,12.54v17.6h-5.36v-16.99c0-4.75-1.77-8.71-6.82-8.71-3.53,0-6.27,2.5-7.19,5.48-.24.67-.37,1.58-.37,2.5v17.72h-5.36v-21.5h.02Z"/>
      <path d="M206.26,41.41l-.43-3.71h-.18c-1.64,2.31-4.81,4.38-9.01,4.38-5.97,0-9.01-4.2-9.01-8.46,0-7.12,6.33-11.02,17.72-10.96v-.61c0-2.44-.67-6.82-6.7-6.82-2.74,0-5.6.85-7.67,2.19l-1.22-3.53c2.44-1.58,5.97-2.62,9.68-2.62,9.01,0,11.2,6.15,11.2,12.06v11.02c0,2.56.12,5.05.49,7.06h-4.87ZM205.47,26.36c-5.85-.12-12.48.91-12.48,6.64,0,3.47,2.31,5.12,5.05,5.12,3.84,0,6.27-2.44,7.12-4.93.18-.55.3-1.16.3-1.71v-5.12h0Z"/>
      <path d="M225.5,3.47v8.46h7.67v4.08h-7.67v15.89c0,3.65,1.04,5.72,4.02,5.72,1.4,0,2.44-.18,3.11-.37l.24,4.02c-1.04.43-2.68.73-4.75.73-2.5,0-4.51-.79-5.79-2.25-1.52-1.58-2.07-4.2-2.07-7.67v-16.08h-4.57v-4.08h4.57v-7.06l5.24-1.4h0Z"/>
      <path d="M265.51,26.43c0,10.9-7.55,15.65-14.68,15.65-7.98,0-14.13-5.85-14.13-15.16,0-9.87,6.45-15.65,14.62-15.65s14.19,6.15,14.19,15.16ZM242.13,26.73c0,6.46,3.71,11.33,8.95,11.33s8.95-4.81,8.95-11.45c0-4.99-2.5-11.33-8.83-11.33s-9.07,5.85-9.07,11.45Z"/>
      <path d="M272.27,21.13c0-3.47-.06-6.46-.24-9.2h4.69l.18,5.79h.24c1.34-3.96,4.57-6.46,8.16-6.46.61,0,1.04.06,1.52.18v5.05c-.55-.12-1.1-.18-1.83-.18-3.78,0-6.45,2.86-7.19,6.88-.12.73-.24,1.58-.24,2.5v15.71h-5.3v-20.28h0Z"/>
    </g>
    <g>
      <path d="M7.28,7.25h0s-.08.02,0,0Z"/>
      <path d="M10.85,34c-.5-1.76-1.65-3.08-2.92-4.28-.12-.11-.05-.17.01-.25.6-.68,1.31-1.25,1.8-2.04.38-.62.71-1.29.81-2.01.11-.78.1-1.58.06-2.38-.06-1.41-.77-2.44-1.56-3.42-.52-.66-1.18-1.2-1.81-1.77-.37-.34-.14-.5.12-.7,1.25-.96,2.32-2.06,3.01-3.56.62-1.37.75-2.81.3-4.17-.51-1.49-1.39-2.81-2.62-3.81-.1-.08-.26-.2-.25-.3,0-.16.19-.18.33-.23.75-.32,1.48-.68,2.04-1.31.33-.37.5-.81.32-1.29-.13-.38-.28-.91-.69-.96-1-.12-2-.16-2.96-.48-.03-.01-.1.03-.11.06-.26.47.04,1.03.54,1.07.27.03.54.11.8.19.16.06.44.12.36.31-.09.23-.28-.04-.43-.07-.15-.03-.3-.06-.44-.1-.61-.17-1.23-.4-1.08.73.05.33-.22.51-.55.5-.41-.02-.69-.35-.79-.65-.09-.25.23-.04.37-.06.02,0,.04-.03.04-.04,0-.27.03-.55-.02-.81-.04-.18-.26-.12-.41-.12.09.11.4.05.31.29-.09.22-.29.02-.44-.01-.36-.08-.71-.18-1.07-.27-.09-.03-.24-.02-.2-.19.03-.17.15-.08.25-.06.38.08.77.16,1.15.24-.33-.1-.65-.2-.98-.3-.14-.05-.29-.11-.43-.16.15-.18.32-.06.47-.01.62.18,1.15.29.97-.73-.05-.26-.14-.4-.38-.44-.62-.09-1.25-.18-1.88-.27-.14-.03-.29-.11-.33.13.06-.03.13-.04.18-.04.23,0,.43.18.65.22.48.07.95.25,1.42.39.05.02.08.08.12.12-.04.01-.08.03-.12.03-.72-.18-1.43-.36-2.14-.55-.05-.02-.07-.11-.11-.17-.07.04-.14.08-.2.13-.03-.09-.02-.21-.09-.26C1.94-.09,1.43,0,1.06.14c0,0,.01.07.02.1.41,1.16,1.21,1.99,1.97,2.86.4.45.83.87,1.25,1.3C3.09,3.27,1.81,2.21,1.01.68c-.1-.19-.05-.41-.21-.54C.67.04.48.02.41.14,0,.82.89,1.64,1.42,2.22c.73.79,1.41,1.67,2.35,2.21.32.19.24.42-.02.6-.32.21-.68.36-.97.6-.69.58-1.44,1.09-1.84,1.99-.29.65-.63,1.27-.94,1.91v3.41c.2.47.38.94.59,1.41.55,1.18,1.55,1.95,2.39,2.86.33.35.47.57.04.94-.3.26-.49.64-.76.94-.94,1.05-1.58,2.26-1.5,3.73.05.78-.2,1.57.26,2.36.27.48.63.9.86,1.4.49,1.05,1.25,1.83,2.12,2.53.32.25.55.47.11.85-.57.51-1.19.99-1.62,1.61-.43.61-.84,1.26-1.19,1.95-1.03,2.07-.45,4.4.6,5.98.69,1.03,1.66,1.73,2.5,2.57.41.41.21.5-.01.78-.4.49-.57,1.14-.16,1.62.42.5,1.01.35,1.53-.04.89-.66,1.55-1.58,2.35-2.36.98-.95,1.82-2.01,2.4-3.3.7-1.56.8-3.16.34-4.77ZM3.03,16.77c-1.2-1.28-2.38-2.56-2.74-4.4-.38-1.9.2-3.55,1.37-4.98,1.57-1.94,3.7-2.96,5.88-3.91.58-.25,1.18-.46,1.66-.91.1-.1.16-.26.22-.4.04-.11.03-.23.05-.35.1.07.22.12.29.22.09.14.04.29-.07.41-.54.6-1.27.86-1.96,1.18-2.1.95-4.21,1.89-5.81,3.7-.74.84-1.22,1.82-1.42,2.97-.14.75.53.96.72,1.48.05.11.12-.03.13-.11v-.5c.11.56.22,1.12.38,1.67.21.69.65.83,1.25.79.34-.02.69.01,1.03.03.09.01.23.08.23.12-.01.15-.15.12-.24.12-.45,0-.89,0-1.33.01-.1,0-.2.03-.3.05.05.09.09.18.15.26.29.34.54.79.91,1,.29.16.73.02,1.1.02.18,0,.37.02.56.04-.19.06-.38.15-.57.19-.25.06-.5.08-.74.11-.16.01-.18.1-.08.19.21.2.37.48.69.55.1.02.17.16.26.25-.06.05-.14.1-.18.17-.47.8-.9.6-1.44.03ZM7.99,8.67c-.14,0-.29,0-.42-.02-.31-.08-.62-.22-.9.01-.12.1-.21.25-.14.45.13.33.43.31.67.38.49.14,1.04.06,1.5.4.19.14.15.38.28.53-.22.02-.44.06-.65.04-.46-.04-.91-.13-1.37-.15-.15-.01-.42-.15-.48.16-.08.41.15.62.49.65.63.05,1.24.23,1.88.17.17-.01.23-.06.29-.2-.06.35-.06.74-.2,1.05-.09.21-.35-.05-.54-.06-.49-.02-.97-.05-1.46-.08-.19-.02-.45-.15-.54.1-.06.18-.21.41-.06.62.18.26.45.08.67.12.36.05.73,0,1.09.03.11.01.21.16.31.24-.16.14-.2.44-.48.44h-1.47c-.19,0-.42-.08-.43.24s-.04.67.39.74c.08.01.16-.01.24,0,.18.02.36.04.54.06-.02.06-.03.16-.07.18-.21.12-.3.41-.68.34-.56-.1-1.15,0-1.72,0-.69.01-1.46.2-1.72-.78.29,0,.64-.02.98.01.32.02.46-.11.46-.44.01-.34-.21-.36-.43-.36-.51-.02-1.02-.01-1.52-.06-.42-.05-.42-.48-.45-.79-.04-.33.26-.2.41-.19.5.03,1.01.07,1.51.16.39.07.52-.13.55-.47.02-.35-.25-.41-.51-.44-.65-.08-1.32-.08-1.95-.24-.59-.15-.24-.71-.2-1.05.03-.26.3,0,.46.02.66.1,1.31.23,1.97.29.37.03.44-.41.42-.62-.03-.31-.39-.16-.6-.21-.62-.12-1.25-.21-1.87-.31-.16-.03-.11-.13-.08-.23.2-.54.91-.77,1.54-.53.31.11.65.19.98.2.27.01.2-.32.28-.49.06-.14-.01-.25-.16-.28-.32-.07-.65-.13-.97-.2-.17-.04-.33-.1-.49-.15.15-.13.29-.27.44-.41.66-.57,1.2.16,1.8.2.71.04,1.33.55,2.08.46.1-.02.23.25.34.39.01.01-.01.08-.01.08ZM8.41,8.96s.04.04.07.06c-.09.02-.18.05-.26.07-.45-.1-.89-.2-1.33-.3-.03,0-.06-.04-.09-.06.04-.02.09-.06.12-.06.5.09.99.19,1.49.29ZM8.72,12.28v.1c-.71-.08-1.41-.16-2.12-.23,0-.03.01-.06.01-.09.7.07,1.41.15,2.11.22ZM2.1,11.82c.13-.03.27-.05.33-.06.62.06,1.17.11,1.71.17.05.01.09.05.14.08-.05.02-.1.06-.15.05-.63-.04-1.26-.09-1.89-.15-.05,0-.1-.06-.14-.09ZM3.01,8.24c.08-.05.16-.1.21-.13.54.09,1.03.18,1.52.28.05.01.1.1.14.15-.15.05-.32.14-.46.12-.43-.08-.85-.2-1.27-.31-.05-.01-.09-.07-.14-.11ZM5.55,6.68l-.06-.14c.18-.12.37-.33.54-.33.56.03.94.38,1.21.88.02.04.03.1.04.16-.71-.04-1.19-.4-1.73-.57ZM4.11,28.68c-1.25-1.27-2.52-2.53-2.92-4.39-.47-2.18.41-3.95,1.76-5.52,1.19-1.39,2.67-2.41,4.03-3.58,1.13-.97,2.2-1.99,2.37-3.65,0-.05.05-.09.08-.13.01.05.04.1.04.16v1.22c0,.1.05.19.08.29.05-.08.15-.19.14-.24-.14-.38.26-.5.33-.8.47-1.91-.3-3.42-1.35-4.84-.4-.54-.83-1.06-1.38-1.45-.03-.02-.03-.1-.05-.15.08-.02.2-.07.24-.04,1.3,1.35,2.62,2.71,2.94,4.71.4,2.48-.78,4.26-2.48,5.74-1,.88-2.05,1.7-3.17,2.62.13-.36.29-.61.03-.78-.24-.15-.48,0-.69.15-.69.46-1.2,1.11-1.69,1.78-.72.99-1.13,2.08-1.09,3.32,0,.22-.45,1.18.54.68.36-.19.47.08.55.39.09.34.23.5.66.41.52-.12,1.09-.06,1.63-.06.06-.01.11.07.17.11-.06.03-.12.1-.19.11-.52.02-1.04.03-1.56.06-.33.01-.38.17-.2.44.47.74,1.49,1.1,2.29.81.04,0,.06-.04.09-.07-.04-.02-.08-.07-.13-.07-.33-.01-.67-.05-.99.01-.42.09-.69-.13-.95-.41-.07-.07-.09-.17-.14-.26.08-.01.17-.04.25-.05.46-.03.92-.06,1.37-.1.27-.03.22-.28.25-.45.02-.19-.12-.22-.26-.22-.62.02-1.25.03-1.88.07-.16,0-.23-.05-.22-.21.03-.3-.28-.77.21-.84.6-.1,1.21-.03,1.81-.04.1,0,.27-.07.28-.13.04-.21.08-.44-.04-.66-.09-.17-.19-.04-.29-.04-.59.01-1.17.01-1.76,0-.04,0-.11-.07-.11-.1.11-.3.18-.63.37-.87.11-.15.37-.07.54.09.04.04.13.1.16.08.38-.21.98.35,1.2-.35.09-.28-.08-.44-.36-.46-.22-.01-.44-.05-.65-.08-.19-.04-.38-.08-.57-.12.14-.23.25-.48.43-.67.18-.2.32.08.49.12.94.23,1.88.52,2.83.63.28.02.52-.11.71.19.03.05.05.1.08.15-.06.01-.11.03-.16.03-.26-.03-.51-.09-.77-.08-.15,0-.42-.17-.45.18-.04.36.02.62.46.63.51.01,1.04-.04,1.5.27.13.09.2.16.29.36-.13,0-.15.02-.4.02-.14,0-.29-.01-.43-.01-.38.02-.75.06-1.13.05-.29-.01-.45.06-.44.38,0,.33.25.33.48.33.5,0,1-.03,1.5-.02.18.01.4,0,.66-.01.08.37.06.6-.05.81-.04.06-.19.05-.3.06-.57.05-1.13.1-1.7.13-.3.02-.41.17-.39.46.03.28.12.45.44.42.42-.04.84-.04,1.25-.04.12,0,.36-.11.33.14-.04.22-.12.51-.41.53-.51.03-1.02.03-1.54.03-.26.01-.47.12-.45.41.02.27.16.52.46.57.1.02.2,0,.31,0,.16.01.32.03.49.05-.07.09-.12.19-.2.27-.12.15-.23.18-.47.14-.57-.09-1.16-.04-1.74-.05-.25,0-.5-.11-.49-.34,0-.22.29-.1.46-.12.15-.01.32.05.32-.23,0-.26-.08-.37-.32-.34-.35.03-.69.06-1.03.12-.08.01-.15.12-.23.19.06.06.12.11.18.17,0,0,.01,0,.02.01.41.4.8.84,1.45.72.11-.02.13.1.03.16-.59.31-.17.51.08.68.23.15.22.22.05.44-.53.71-.94.52-1.49-.03ZM3.3,21s.1-.07.14-.06c.45.06.91.13,1.36.2,0,.03,0,.05-.01.08-.47-.05-.95-.1-1.43-.16-.02,0-.04-.04-.06-.06ZM8.2,22.78c-.32.2-.69.08-1.04.14-.18-.09-.56.11-.54-.1.01-.23.36-.02.56-.07h.05c.32.01.65.02.97.03ZM1.69,34.19c-.24.52-.34,1.09-.51,1.66.01-1.41.59-2.56,1.4-3.62,1.39-1.85,3.33-3.08,4.9-4.72,1.11-1.16,1.93-2.47,1.7-4.26-.08-.6-.36-1.15-.68-1.56-.32-.41-.98-.14-1.47-.25-.13-.03-.37.08-.36-.12.01-.16.25-.08.38-.08.37.01.74.04,1.11.07-.21-.27-.56-.5-.62-.8-.16-.78-1-.78-1.29-1.37-.02-.03-.1-.05-.15-.05-.02,0-.04.06-.06.1.04.02.1.03.13.07.16.16.31.33.47.5-.21.1-.39-.03-.57-.08-.4-.12-.8-.24-1.2-.36-.07-.02-.12-.1-.18-.15.06-.05.11-.11.17-.17.38-.39.79-.38,1.22-.09.04.03.13-.03.21-.05-.04-.06-.07-.13-.13-.18-.1-.11-.22-.21-.33-.31.19-.16.37-.34.57-.49.16-.12.25.06.34.15,1.19,1.16,2.47,2.23,3.17,3.84.58,1.34.11,2.46-.55,3.58-.93,1.56-2.23,2.76-3.59,3.85-1.69,1.35-3.15,2.88-4.08,4.89ZM3.58,33.68c.39-.06.79-.13,1.18-.02.01,0,.02.04.02.06h-1.21s.01-.04,0-.04ZM4.6,39.73c.06-.02.12-.06.19-.06.34-.02.69-.04,1.03-.03.38,0,.51-.17.51-.56,0-.44-.25-.43-.54-.42-.27.02-.55,0-.93,0-.36-.14-.93.27-1.34-.27-.05-.06-.09-.15-.13-.22.08-.03.17-.08.26-.1.49-.09.98-.15,1.46-.27.27-.06.21-.33.15-.53-.05-.19-.22-.22-.39-.21-.59.03-1.18.07-1.76.07-.55,0-.34-.53-.42-.82-.06-.22.23-.18.4-.19.54-.03,1.09-.06,1.63-.09.23-.02.26-.22.26-.39,0-.21-.12-.33-.33-.33-.46.02-.93.04-1.4.04-.14,0-.41.05-.36-.18.06-.31.01-.78.44-.84.4-.06.82-.02,1.23-.02.22,0,.43.03.43-.33.01-.36-.15-.49-.46-.5-.05,0-.1,0-.14,0-.21-.04-.63.06-.59-.09.06-.28.26-.64.62-.68.4-.05.82-.07,1.23-.03.4.03.51-.19.51-.54,0-.37-.29-.26-.48-.28-.17-.02-.33-.04-.49-.06.13-.08.27-.15.39-.25.26-.23.52-.47.78-.72.12-.11.24-.09.37-.02.13.08.03.23.06.27.14.22.33.4.5.61.05.05.08.12.12.18h-.21c-.13,0-.27-.02-.41-.05-.3-.05-.52.02-.53.39-.01.36.19.42.49.47.54.09,1.22-.37,1.57.45.03.07.04.15.06.23-.07,0-.14.03-.21.04-.35,0-.7.03-1.05,0-.35,0-.44.19-.41.5.02.33.22.41.5.38.48-.05.97-.15,1.44-.12.32.02.33.43.4.69.06.22-.15.18-.28.19-.57.04-1.14.08-1.71.11-.23,0-.27.17-.25.37.01.17,0,.38.26.36.67-.06,1.35-.12,2.03-.18.02,0,.06.02.07.04.2.53-.15,1.07-.68,1.09-.43,0-.86.06-1.3.1-.28.02-.31.27-.29.47,0,.18.14.35.37.33.4-.03.81-.05,1.21-.06.09,0,.18.04.28.06-.13.3-.24.62-.41.89-.07.11,0-.13-.1-.14-.54-.06-1.08-.03-1.59.13-.26.07-.21.35-.14.52.27.62.75.3,1.16.24.06,0,.12-.02.18-.04-.04.06-.09.1-.1.16-.23,1.02-.94.74-1.59.67-.5-.06-1.02.07-1.46-.3-.05-.03-.08-.1-.11-.15ZM2.77,35.61c.06-.04.11-.12.16-.12.59-.02,1.19-.02,1.78-.02.05,0,.1.09.15.13-.05.03-.1.08-.15.08h-.92c-.28,0-.56,0-.84,0-.06,0-.12-.05-.18-.07ZM8.53,33.65c-.09.15-.23.09-.35.09-.41-.02-.83-.04-1.25-.07-.02,0-.05-.02-.08-.04.03-.03.06-.08.1-.09.2-.02.4-.03.67-.04.15,0,.37,0,.59.03.11,0,.21.08.32.12ZM9.1,35.36c-.02.15-.16.06-.24.07-.57.02-1.14.04-1.71.06-.13,0-.13.13-.14.27-.21-.39-.06-.47.24-.49.54-.02,1.07-.07,1.61-.1.11,0,.25.04.24.19ZM8.98,37.02s-.08.07-.13.07c-.5.05-1.01.08-1.51.12-.09-.05-.23.09-.29-.07.1-.03.2-.07.3-.08.5-.04.99-.07,1.49-.1.05,0,.1.04.14.06ZM8.08,38.73c.01.28-.33.15-.53.18-.11.03-.22.02-.36.03-.17-.08-.56.13-.56-.09.01-.3.38-.11.59-.16.1-.03.21-.03.31-.03.2,0,.55-.13.55.07ZM9.98,36.43c-1.01,2.8-2.94,4.83-5.02,6.74-.28.27-.38.58-.38,1.18-.22-.91.2-1.26.62-1.65,1.56-1.45,3.11-2.92,3.92-5.01.71-1.85.19-3.45-.84-5.05-.41-.62-1-1.03-1.37-1.73-.44-.83.37-.63.46-.97.04-.13.25.14.35.24,1.36,1.29,2.66,2.67,2.83,4.72.04.49-.38,1.01-.57,1.53Z"/>
    </g>
    <path d="M148.34,36.07c-.34-1.13-1.12-1.98-1.98-2.76-.08-.07-.03-.11,0-.16.4-.44.89-.8,1.22-1.31.26-.4.48-.84.55-1.3.07-.5.06-1.02.04-1.54-.04-.9-.53-1.56-1.06-2.2-.35-.42-.8-.77-1.22-1.14-.26-.22-.1-.32.08-.45.84-.62,1.57-1.33,2.03-2.3.43-.88.51-1.81.21-2.68-.34-.97-.94-1.82-1.78-2.46-.07-.06-.17-.13-.17-.2,0-.1.13-.11.23-.15.51-.2,1-.44,1.38-.84.22-.24.34-.52.22-.83-.09-.25-.19-.59-.47-.62-.68-.08-1.35-.11-2.01-.31-.02-.01-.06.02-.07.04-.18.3.02.66.37.69.18.02.36.07.54.12.1.04.29.08.24.2-.06.15-.19-.03-.29-.05-.1-.01-.2-.04-.3-.06-.41-.11-.83-.26-.73.47.03.22-.15.33-.37.32-.28,0-.47-.22-.54-.42-.06-.16.16-.02.25-.03,0,0,.03-.02.03-.03,0-.18.02-.36-.02-.52-.02-.12-.17-.08-.27-.08.06.07.27.03.21.18s-.2.02-.3,0c-.24-.05-.48-.11-.72-.18-.07-.01-.17-.01-.14-.11.02-.11.1-.06.17-.05.26.06.52.11.78.16-.22-.07-.44-.13-.66-.2-.1-.03-.2-.06-.3-.1.11-.11.22-.03.32,0,.42.11.78.18.66-.47-.03-.17-.1-.26-.26-.29-.42-.06-.85-.11-1.27-.17-.1-.02-.2-.08-.23.08.22-.1.38.09.57.12.32.05.64.16.96.25.03.01.05.05.08.08-.03,0-.06.02-.08.01-.49-.11-.97-.23-1.45-.35-.03,0-.05-.07-.08-.11-.04.03-.09.06-.13.09l-.21-.57s.02-.04.04-.03c.57.07,1.15.15,1.72.24.13.02.28.15.38.02.13-.15.11-.35.03-.53-.06-.15-.17-.21-.33-.24-.59-.13-1.17-.23-1.77-.16-.43.05-.99-.13-1.14.49-.19.76.14,1.43.65,1.95.49.51.94,1.07,1.59,1.43.21.12.16.27-.02.38-.22.14-.46.23-.65.39-.47.37-.98.7-1.25,1.28-.2.42-.43.82-.64,1.23v2.2c.13.3.26.61.4.91.37.76,1.05,1.26,1.62,1.85.22.22.32.36.03.6-.21.17-.33.42-.52.61-.64.68-1.07,1.46-1.01,2.41.03.5-.14,1,.17,1.52.19.3.43.58.58.9.34.68.85,1.18,1.44,1.63.21.16.37.3.08.55-.39.33-.81.64-1.1,1.04-.29.39-.57.81-.81,1.26-.7,1.33-.3,2.83.41,3.85.46.66,1.12,1.12,1.69,1.66.28.26.15.32,0,.5-.26.32-.38.73-.1,1.05s.68.22,1.03-.03c.61-.43,1.05-1.02,1.59-1.52.67-.61,1.24-1.3,1.63-2.13.47-1.01.54-2.04.23-3.08h0ZM141.67,14.59c-.42-.77-.12-1.28.75-1.27.59.01,1.18.11,1.76.25.04.01.08.06.12.09-.05,0-.1.01-.14,0-.64-.16-1.28-.3-1.94-.23-.49.05-.67.41-.5.87.28.75.82,1.29,1.34,1.84.27.3.56.57.84.85-.81-.73-1.69-1.42-2.23-2.4h0ZM143.04,24.96c-.81-.82-1.61-1.65-1.85-2.83-.26-1.23.13-2.29.92-3.22,1.07-1.25,2.51-1.91,3.99-2.52.39-.16.8-.3,1.12-.59.07-.06.11-.16.15-.26.03-.06.02-.14.03-.22.07.05.15.08.2.14.06.09.03.19-.05.27-.36.38-.85.55-1.32.76-1.42.61-2.85,1.22-3.94,2.39-.5.54-.82,1.17-.96,1.91-.09.48.36.62.49.95.03.08.08,0,.08-.07v-.32c.08.37.15.72.27,1.08.14.44.43.53.84.51.23-.02.46,0,.7.02.05,0,.16.05.16.07,0,.1-.11.08-.17.08-.3,0-.6,0-.9.01-.07,0-.13.02-.2.03.03.06.05.12.1.17.2.22.36.51.61.64.2.11.5.01.75.02.12,0,.25,0,.38.02-.13.04-.26.1-.39.13-.16.03-.33.05-.5.06-.1.01-.12.07-.06.13.15.13.26.31.48.35.06,0,.11.11.17.16-.04.04-.09.07-.12.12-.32.51-.61.38-.98,0ZM146.4,19.74c-.09,0-.19.01-.28-.02-.21-.05-.42-.14-.61.02-.08.06-.14.16-.09.28.08.21.29.2.45.25.33.09.7.04,1.01.25.13.09.11.25.19.35-.15.01-.29.03-.44.02-.31-.02-.61-.08-.92-.09-.11,0-.29-.1-.33.1-.05.26.1.4.33.42.43.03.84.15,1.28.11.11,0,.15-.04.19-.13-.04.23-.04.48-.14.68-.06.13-.23-.03-.36-.04-.33-.01-.66-.04-.99-.06-.13,0-.3-.09-.36.07-.05.12-.15.27-.05.4.13.17.31.06.46.08.24.03.49,0,.74.02.07.01.14.1.21.15-.11.09-.14.28-.33.28-.33.01-.66,0-.99,0-.13,0-.29-.05-.3.16,0,.21-.02.43.27.48.06,0,.11-.01.16,0,.13.01.25.03.37.04-.02.04-.02.1-.05.11-.14.08-.2.27-.46.22-.38-.06-.78,0-1.17,0-.46.01-.99.13-1.16-.5.2,0,.43-.01.66,0,.22.02.31-.07.32-.28,0-.22-.14-.23-.3-.23-.34-.01-.69,0-1.03-.04-.28-.03-.28-.31-.3-.51-.02-.21.17-.13.28-.12.34.02.68.05,1.02.1.26.05.36-.08.37-.3.02-.23-.17-.27-.34-.29-.44-.05-.9-.04-1.32-.15-.4-.09-.16-.46-.14-.68.02-.17.21,0,.31.02.45.06.89.15,1.34.18.25.02.29-.26.28-.4-.02-.2-.26-.1-.41-.13-.42-.08-.84-.14-1.26-.2-.11-.02-.08-.08-.05-.15.13-.35.61-.5,1.04-.34.21.07.44.12.66.13.18,0,.14-.21.19-.32.04-.09,0-.16-.11-.18-.22-.04-.44-.08-.66-.13-.11-.02-.22-.06-.33-.09.1-.09.2-.18.3-.27.45-.37.81.1,1.22.13.48.03.9.35,1.41.29.07,0,.16.17.23.26,0,.01,0,.05,0,.05h0ZM146.69,19.92s.03.03.04.04c-.06.02-.12.03-.17.05-.31-.06-.6-.13-.9-.19-.02-.01-.04-.03-.06-.04.03-.02.06-.04.08-.04.34.06.67.12,1.01.18ZM146.9,22.07s0,.04,0,.06c-.47-.05-.95-.1-1.43-.15v-.05c.48.04.95.09,1.43.14h0ZM142.41,21.77c.09-.02.19-.03.23-.04.42.04.79.07,1.16.11.03.01.06.03.09.05-.03.01-.07.04-.1.04-.43-.03-.86-.06-1.28-.1-.04,0-.07-.04-.1-.06h0ZM143.03,19.46s.11-.06.14-.08c.36.06.7.11,1.03.18.04,0,.07.06.1.1-.11.02-.22.09-.32.07-.29-.05-.57-.13-.86-.2-.03-.01-.06-.04-.09-.07ZM144.75,18.45s-.04-.08-.04-.09c.12-.07.25-.21.37-.2.37.01.63.24.81.56.02.03.02.07.03.1-.48-.02-.8-.26-1.17-.37ZM143.77,32.64c-.84-.81-1.7-1.63-1.97-2.83-.32-1.4.27-2.55,1.19-3.56.8-.89,1.81-1.55,2.73-2.31.77-.62,1.49-1.28,1.6-2.35,0-.03.04-.06.06-.09,0,.04.02.07.02.11v.79c0,.06.03.12.05.18.03-.05.1-.12.09-.15-.09-.25.18-.32.23-.52.32-1.23-.2-2.2-.92-3.12-.27-.35-.56-.69-.93-.93-.02-.02-.02-.07-.03-.1.05-.01.13-.05.16-.03.88.87,1.77,1.75,1.99,3.04.27,1.6-.53,2.75-1.68,3.7-.68.57-1.39,1.1-2.15,1.69.09-.23.2-.39.02-.5-.16-.1-.32,0-.46.09-.47.3-.82.72-1.15,1.15-.49.64-.77,1.34-.74,2.14,0,.14-.3.76.37.44.24-.12.31.06.37.26.06.22.16.32.45.26.35-.08.73-.04,1.1-.04.04,0,.08.04.12.07-.05.02-.09.07-.13.07-.35.02-.71.02-1.06.04-.22,0-.25.11-.14.28.32.48,1.01.71,1.56.53.02,0,.04-.03.06-.05-.03,0-.06-.04-.09-.04-.22,0-.45-.04-.67,0-.29.06-.47-.08-.65-.26-.04-.05-.06-.11-.09-.17.06,0,.11-.02.17-.03.31-.02.62-.04.93-.07.18,0,.15-.18.17-.29,0-.12-.08-.14-.18-.14-.42,0-.85.02-1.27.04-.11,0-.16-.03-.15-.13.02-.19-.19-.49.14-.54.4-.06.82-.02,1.23-.03.07,0,.18-.04.19-.08.02-.14.05-.29-.03-.43-.06-.1-.13-.02-.2-.02-.39,0-.79,0-1.19,0-.02,0-.07-.04-.07-.06.07-.2.12-.41.24-.57.08-.09.26-.04.37.06.03.03.09.07.11.06.26-.14.66.22.81-.23.06-.18-.05-.29-.24-.3-.15,0-.3-.03-.44-.05-.13-.02-.26-.05-.39-.08.1-.15.18-.31.29-.43.12-.13.22.05.33.08.64.14,1.28.34,1.93.4.18.02.35-.07.47.13.02.03.04.06.06.09-.04,0-.08.02-.11.02-.17-.02-.35-.06-.52-.05-.11,0-.28-.11-.31.12-.02.23.02.4.32.4.34,0,.7-.03,1.01.18.1.06.17.13.23.29-.1,0-.13,0-.22-.02-.09,0-.18,0-.28,0-.24,0-.49.04-.73.03-.19,0-.29.04-.29.25,0,.22.16.21.31.21.33,0,.65-.02.98,0,.13,0,.22,0,.36-.02.06.23.05.37-.03.5-.03.04-.13.03-.2.04-.39.03-.77.06-1.16.08-.2,0-.27.11-.26.3.02.18.08.29.3.27.28-.03.56-.03.85-.03.08,0,.24-.07.21.1-.02.14-.07.32-.27.34-.35,0-.69,0-1.04.02-.18,0-.32.07-.31.26,0,.18.11.33.31.37.07,0,.14,0,.21,0,.11,0,.22.02.33.03-.04.06-.08.12-.13.18-.08.09-.16.11-.32.08-.38-.05-.78-.03-1.18-.03-.17,0-.34-.07-.33-.22,0-.14.2-.06.31-.07.1,0,.22.02.22-.16,0-.16-.06-.23-.22-.21-.23.02-.47.04-.7.07-.05,0-.1.08-.15.13.04.03.08.07.12.1,0,0,0,0,0,0,.28.26.54.54.98.47.08,0,.09.06.02.1-.4.2-.11.33.06.44.16.1.15.14.03.28-.36.46-.64.34-1.01-.02h0ZM143.23,27.69s.06-.04.09-.04c.31.04.62.09.92.13v.05c-.33-.03-.65-.06-.97-.1-.02,0-.03-.02-.04-.04ZM146.64,28.87c-.21.13-.45.06-.68.1-.12-.07-.36.06-.35-.07,0-.15.24,0,.36-.05h.04c.21,0,.42.02.63.02ZM142.13,36.2c-.16.33-.23.7-.34,1.07,0-.91.4-1.65.95-2.34.94-1.19,2.25-1.98,3.32-3.04.75-.75,1.31-1.6,1.15-2.75-.06-.39-.24-.74-.46-1.01-.22-.26-.66-.09-1-.16-.08-.02-.24.05-.24-.07,0-.11.17-.06.26-.05.25,0,.5.02.75.04-.15-.17-.38-.32-.42-.52-.11-.5-.68-.5-.88-.88,0-.02-.06-.03-.1-.03,0,0-.03.04-.04.06.03.02.07.02.09.05.11.1.21.21.32.32-.14.06-.26-.02-.39-.05-.27-.08-.54-.15-.81-.23-.05-.02-.08-.07-.12-.1.04-.03.08-.07.11-.11.26-.25.54-.25.83-.06.03.02.09-.02.14-.03-.03-.04-.05-.09-.08-.12-.07-.07-.15-.13-.23-.19.13-.11.25-.23.39-.32.1-.08.16.04.23.09.8.75,1.67,1.44,2.15,2.48.39.87.07,1.59-.38,2.31-.63,1.01-1.51,1.78-2.43,2.49-1.14.86-2.13,1.85-2.77,3.15h0ZM143.42,35.87c.26-.04.53-.09.8,0,0,0,0,.02,0,.04h-.82s0-.03,0-.03h0ZM144.1,39.77c.05,0,.09-.04.13-.04.24,0,.47-.03.71-.02.25,0,.34-.11.34-.36,0-.28-.17-.28-.37-.27-.18,0-.37,0-.63,0-.24-.08-.63.18-.9-.17-.04-.04-.06-.09-.09-.14.05-.02.11-.05.17-.07.33-.05.67-.09.99-.17.19-.04.14-.21.1-.34-.03-.12-.15-.14-.26-.14-.4.02-.8.05-1.2.05-.36,0-.23-.35-.28-.53-.04-.14.16-.12.27-.12.37-.02.74-.04,1.11-.06.15,0,.17-.14.17-.25,0-.14-.08-.22-.22-.21-.31,0-.63.02-.94.02-.1,0-.28.03-.25-.12.04-.2,0-.5.3-.54.27-.04.55,0,.83,0,.15,0,.29.02.29-.21s-.1-.32-.31-.32c-.03,0-.07,0-.1,0-.14-.03-.42.04-.4-.06.04-.18.18-.41.42-.44.28-.03.56-.04.83-.02.28.02.35-.12.35-.35s-.19-.17-.32-.18c-.11,0-.23-.03-.34-.04.09-.05.19-.09.27-.16.18-.15.35-.3.53-.46.08-.08.16-.06.25,0,.09.04.02.14.04.17.1.14.23.26.34.39.03.03.05.08.08.11-.05,0-.1,0-.14,0-.09,0-.19,0-.28-.02-.2-.04-.35,0-.36.25,0,.23.13.27.33.3.37.06.83-.24,1.07.29.02.04.02.1.04.15-.05,0-.1.02-.14.02-.24,0-.48.02-.72,0s-.29.12-.28.32c.02.21.16.27.35.25.32-.04.65-.1.97-.08.22,0,.22.28.27.45.04.14-.1.11-.19.12-.38.02-.77.05-1.16.07-.15,0-.18.11-.17.23,0,.11,0,.25.18.24.46-.04.92-.08,1.37-.11.02,0,.05,0,.05.02.14.34-.1.69-.46.7-.29,0-.58.04-.88.07-.19,0-.21.17-.2.3,0,.11.1.22.26.21.27-.02.54-.03.81-.04.07,0,.13.03.19.04-.09.2-.16.4-.27.57-.05.08,0-.08-.07-.08-.37-.04-.73-.02-1.08.08-.17.05-.14.22-.09.33.18.41.5.2.78.16.04,0,.08-.02.12-.02-.02.03-.06.06-.06.1-.16.65-.64.48-1.08.43-.34-.04-.69.04-.99-.19-.03-.03-.05-.07-.08-.1ZM142.87,37.11s.07-.08.11-.08c.4,0,.8,0,1.2,0,.04,0,.07.06.1.09-.03,0-.07.04-.1.05h-1.19s-.08-.03-.12-.05ZM146.77,35.85c-.06.09-.16.06-.24.05-.28,0-.56-.02-.84-.04-.02,0-.04,0-.06-.02.02-.02.04-.06.07-.06.13,0,.27-.02.45-.03.1,0,.26,0,.41.02.07,0,.14.05.21.08h0ZM147.15,36.95c0,.1-.1.04-.16.04-.39.02-.77.03-1.16.05-.08,0-.08.08-.09.17-.15-.26-.04-.31.16-.32.37,0,.73-.04,1.09-.06.08,0,.17.02.16.12ZM147.08,38.02s-.06.05-.09.05c-.34.03-.69.05-1.03.08-.06-.04-.15.05-.2-.05.07-.02.14-.05.21-.05.34-.03.67-.05,1.01-.06.03,0,.06.02.1.03h0ZM146.47,39.12c0,.18-.23.1-.36.12-.08.02-.15,0-.25.02-.12-.05-.38.09-.38-.06,0-.19.26-.07.4-.1.07-.02.14-.02.21-.02.14,0,.37-.09.38.04ZM147.75,37.64c-.68,1.8-1.99,3.12-3.4,4.35-.19.17-.26.37-.25.76-.16-.59.13-.82.41-1.07,1.06-.93,2.11-1.88,2.66-3.22.48-1.2.13-2.23-.57-3.26-.28-.41-.68-.67-.93-1.12-.3-.53.25-.4.31-.62.03-.09.17.09.24.15.92.84,1.8,1.72,1.92,3.05.03.31-.26.65-.39.98h0Z"/>
  </g>
  <g>
    <path d="M107.57,50.91c0-.13-.09-.26-.16-.39-.52-.9-1.08-1.78-1.55-2.7-.99-1.9-1.52-3.91-1.87-5.98-.38-2.22-.38-4.45-.34-6.68,0-.35-.03-.74.48-.89.05-.02.1-.08.13-.13.17-.36.38-.7.49-1.07.25-.82.34-1.68.69-2.46.82-1.84,1.25-3.75,1.43-5.71.17-1.88.26-3.77.35-5.65.08-1.66,0-3.32-.47-4.94-.17-.59-.42-1.16-.53-1.76-.22-1.24-.37-2.5-.54-3.74,0-.04.02-.08.03-.13.04-.02.07-.05.11-.07.23.23.45.45.71.71-.13-.51-.86-.62-.89-1.22.3.18.54.32.79.46.02-.03.04-.05.06-.08-.19-.12-.38-.24-.57-.37-.12-.08-.31-.18-.32-.28-.05-.54-.36-1.1.17-1.59.04-.03.06-.08.08-.13.23-.46-.17-1.01-.74-.97-.28.02-.44-.09-.65-.22-.49-.31-.98-.65-1.53-.85-.81-.3-1.69-.35-2.57-.32-1.09.04-2.08.3-2.92.93-.11.08-.3.08-.45.11-.19.04-.47.03-.55.13-.11.14-.15.42-.06.55.3.42.11.83.06,1.25,0,.08-.16.18-.26.21-.66.16-1.29.37-1.83.77.09,0,.15-.04.23-.07.54-.19,1.07-.39,1.61-.57.07-.02.17.03.26.05-.06.06-.11.14-.18.18-.19.11-.42.18-.61.28h0c-.32.11-.96.49-1.38.83.4-.2.78-.42,1.15-.64.08-.05.17-.08.26-.13.16-.04.3-.11.46-.15.14-.03.29-.18.4.03.1.19-.1.25-.21.35-.06.05-.09.08-.17.14q-.08.04-.2.11c-.41.25-.82.5-1.21.78-.1.07-.16.19-.24.28.3-.18.53-.4.79-.59.28-.19.59-.35.88-.52.1-.06.2-.13.31-.18.06-.02.14,0,.21,0,0,.07,0,.15-.02.21-.03.06-.11.1-.16.15-.38.41-.76.81-1.12,1.24-.16.2-.26.44-.38.65.04.02.07.04.1.05.4-.8.95-1.5,1.81-1.98,0,.13-.04.23-.11.32-.34.42-.63.85-.73,1.37.3-.5.52-1.04,1.06-1.41,0,.39-.03.78-.09,1.15-.1.64-.2,1.28-.32,1.92-.16.83-.28,1.68-.51,2.5-.3,1.03-1.04,1.87-1.74,2.71-.91,1.09-1.98,2.07-2.66,3.31-.05.1-.25.2-.37.19-.12,0-.25-.14-.33-.25-.22-.31-.39-.65-.63-.95-.68-.81-1.38-1.6-2.08-2.4-1.07-1.22-1.89-2.53-2.07-4.09-.14-1.18-.35-2.35-.52-3.53-.03-.22,0-.45,0-.67.04,0,.08-.02.12-.02.29.5.58.99.87,1.49,0-.12-.01-.23-.07-.34-.21-.36-.44-.72-.65-1.08-.05-.09-.04-.2-.06-.3.05-.02.11-.04.16-.05.57.69,1.14,1.38,1.71,2.07-.03-.12-.07-.24-.15-.34-.45-.55-.91-1.09-1.36-1.64-.08-.09-.13-.2-.19-.3.03-.02.07-.05.1-.07.8.34,1.47.83,2.12,1.37-.18-.23-.37-.44-.61-.61-.4-.28-.82-.52-1.23-.79-.09-.06-.13-.18-.19-.27.12-.02.25-.07.34-.04.27.09.54.19.79.32.38.2.74.42,1.12.64-.04-.11-.1-.2-.2-.25-.56-.28-1.13-.56-1.7-.83-.16-.08-.35-.13-.16-.4.65.25,1.31.49,1.98.74-.44-.33-1.22-.67-1.73-.75-.23-.04-.37-.14-.38-.35-.01-.36-.08-.72.14-1.08.27-.44-.03-.77-.58-.7-.23.03-.38-.02-.54-.16-.39-.36-.89-.6-1.42-.69-.7-.12-1.41-.18-2.12-.2-1.37-.03-2.55.41-3.56,1.22-.12.1-.33.16-.5.16-.64,0-1.01.52-.72,1.02.04.06.07.13.12.18.31.25.23.56.19.86-.01.1-.04.2-.05.3-.02.3-.13.54-.46.67-.11.05-.2.14-.3.21.02.02.03.04.05.06.18-.1.36-.21.58-.33.07.59-.65.7-.79,1.12.03.03.06.05.09.08.19-.22.39-.44.58-.67.03.02.06.03.09.05,0,.08.03.17.02.25-.12.87-.21,1.75-.38,2.61-.26,1.27-.61,2.51-.86,3.78-.17.88-.34,1.78-.34,2.67,0,1.53.12,3.05.24,4.58.1,1.33.23,2.67.42,4,.17,1.2.42,2.39.95,3.52.46.99.7,2.02.9,3.06.1.51.29,1.01.92,1.25.08.03.15.19.15.3.04.89.06,1.78.08,2.67.04,1.92-.2,3.81-.63,5.69-.53,2.3-1.37,4.5-2.72,6.54-.22.33-.4.67-.58,1.01-.1.19-.16.44.08.57.17.09.44.15.62.09.36-.11.7-.27,1.01-.46,1.58-.97,2.68-2.3,3.57-3.77.96-1.59,1.6-3.29,2.12-5.04.67-2.26,1.05-4.56,1.22-6.88.02-.32,0-.64.42-.81.11-.04.2-.17.25-.27.17-.38.38-.75.48-1.14.2-.86.46-1.7.82-2.52.31-.7.61-1.42.78-2.16.24-1.01.42-2.05.51-3.08.12-1.43.11-2.87.17-4.3.01-.38.05-.77.07-1.18.13.02.23,0,.3.05.51.34,1.05.66,1.5,1.06.5.44.89.97,1.35,1.44.38.4.93.48,1.36.19.32-.21.6-.48.85-.75.32-.33.58-.7.89-1.04.08-.09.21-.14.32-.21.09-.06.19-.12.27-.2.29-.28.63-.48,1.13-.55v1.23c.05,1.77.05,3.54.3,5.3.18,1.3.37,2.6.9,3.83.19.45.44.88.6,1.33.23.69.4,1.39.62,2.08.12.38.28.77.7.99.22.11.27.25.29.46.12,1.29.17,2.58.41,3.85.3,1.56.68,3.12,1.17,4.64.73,2.31,1.86,4.45,3.68,6.28.74.75,1.56,1.42,2.62,1.8.19.07.5.09.64,0,.13-.08.13-.35.13-.54l-.02.02ZM86.04,5.91c.08.24.12.5.17.75-.04.02-.07.04-.11.06-.36-.23-.72-.46-1.11-.71.17-.13.27-.23.41-.3.22-.12.57-.02.64.21h0ZM84.74,5.03c.26-.14.5-.05.71.31-.32-.11-.58-.22-.76.08-.17-.2-.16-.27.05-.38h0ZM81.4,4.17c.17.13.33.25.5.38-.02.02-.04.04-.06.07-.16-.13-.32-.26-.49-.4.02-.02.03-.03.05-.05ZM81,4.97c.31,0,.51.17.51.54-.28-.39-.59-.48-.95-.16,0-.24.19-.38.44-.38ZM77.78,9.74s.08.02.11.03c-.1.3-.2.59-.3.89-.03,0-.06-.01-.09-.02.09-.3.18-.6.27-.91h.01ZM78.28,8.69s-.03,0-.05-.01c-.19.39-.38.77-.57,1.16-.03,0-.06-.02-.08-.02.05-.16.09-.32.15-.48.06-.16.13-.32.2-.48.08-.16.17-.32.2-.51-.14.19-.27.38-.42.59-.03-.38.01-.44.67-1.06-.1.05-.21.1-.31.16-.1.06-.2.13-.31.2-.14-.4.31-.41.5-.64-.17.06-.3.11-.51.19.05-.36.11-.67.13-.99,0-.13-.05-.27-.11-.4-.09-.18-.23-.34-.3-.53-.03-.09.03-.25.12-.31.1-.06.27-.05.45-.07-.05.09-.05.12-.06.13-.18.06-.41.13-.3.35.1.21.32.24.59.26.66.05,1.09-.4,1.66-.5.32-.06.65-.15.95.12.1.09.36.04.61.06-.4.36-.8.72-1.25,1.12.23-.06.42-.08.57-.17.58-.31,1.16-.62,1.7-.98.52-.36,1.42-.38,1.91.05.43.38.92.68,1.49.86.18.06.38.13.25.38-.13-.04-.26-.08-.43-.13.08.23.6.19.36.56-.23-.1-.47-.19-.73-.3.14.29.73.33.5.82-.23-.18-.42-.33-.6-.47-.02.02-.04.03-.06.05.15.17.3.35.46.54-.11.07-.2.14-.34.23-.21-.22-.4-.44-.6-.65-.02.02-.05.03-.07.05.15.2.3.4.51.68-.42.15-.79.33-1.19.41-.84.17-1.69.08-2.53-.09-.21-.04-.15-.17-.08-.28.18-.28.37-.56.56-.84-.02-.01-.04-.02-.06-.04-.2.25-.42.49-.6.74-.22.31-.25.32-.67.05.3-.26.58-.51.87-.77-.03-.03-.06-.06-.08-.08-.35.26-.7.53-1.06.8-.19-.06-.16-.16-.02-.27.32-.25.63-.5.9-.8-.41.25-.82.51-1.26.77-.04-.03-.11-.08-.2-.16.35-.23.69-.45,1.03-.67-.02-.02-.04-.05-.06-.07-.34.21-.67.42-1.01.62-.04.02-.1.06-.1.08.06.36-.31.44-.52.62-.45.38-.73.82-.9,1.35-.17.53-.43,1.05-.71,1.55.27-.92.53-1.84.8-2.77h0ZM81.14,33.61c0,.08-.07.15-.1.23-.07-.07-.15-.12-.19-.2-.08-.15-.13-.31-.2-.47-.01,0-.02,0-.04,0,.04.26.1.53.13.8.01.15.09.37-.2.4-.28.03-.32-.16-.37-.34-.08-.31-.17-.61-.32-.9.05.29.12.58.15.87.01.12-.03.34-.12.36-.25.09-.33-.12-.38-.28-.12-.37-.23-.75-.4-1.11.04.34.09.68.14,1.07-.39-.08-.48-.33-.55-.55-.09-.29-.14-.59-.19-.88-.09-.53-.17-1.07-.25-1.6.03,0,.05,0,.08-.02.16.42.32.85.5,1.34.04-.11.05-.16.07-.23.11.16.19.3.28.44.02,0,.05,0,.07-.02-.03-.13-.06-.27-.08-.4.01,0,.03,0,.04-.02.1.15.19.3.29.45.02,0,.04-.02.05-.02-.02-.11-.04-.22-.06-.33.01,0,.03,0,.04,0,.06.1.13.21.22.36.02-.12.02-.18.04-.28.05.08.09.15.13.22.02,0,.03,0,.05,0-.01-.1-.03-.2-.04-.34.08.08.14.15.2.2.06-.24.16-.48.19-.72.03-.27,0-.55,0-.83.03,0,.06,0,.09-.02.13.27.28.53.39.8.26.66.39,1.33.35,2.03h0ZM80.63,27.86c-.11-.89-.6-1.66-1.12-2.41.11.29.21.59.32.88-.02,0-.04.01-.05.02-.11-.24-.2-.48-.33-.71-.13-.23-.27-.46-.44-.66-.18-.22-.4-.41-.66-.67,2.53,1.12,3.58,4.72,1.69,6.09.54-.79.7-1.64.59-2.53h0ZM78.54,25.12c.7.29.82.98,1.1,1.58-.38-.54-.75-1.08-1.1-1.58ZM79.24,26.72c-.27-.38-.55-.76-.82-1.14.43.29.65.71.82,1.14ZM83.89,34.21c.12-.38.24-.74.36-1.09-.04,0-.07-.02-.1-.03-.09.23-.19.46-.29.69-.07.16-.13.33-.24.46-.06.08-.21.1-.33.14-.02-.1-.09-.2-.06-.29.11-.35.25-.69.38-1.04-.03,0-.07-.02-.1-.03-.12.26-.22.53-.36.79-.08.14-.1.43-.38.32-.24-.09-.16-.32-.09-.51.12-.3.24-.59.32-.91-.14.23-.28.46-.43.7h-.11c-.05-.12-.15-.24-.14-.35.09-.72.33-1.4.79-2.02.01,0,.04-.02.08-.03.02.05.05.1.06.15.05.42.09.84.13,1.25.03,0,.07,0,.1,0,.05-.16.1-.32.18-.56v.75s.05,0,.07,0c.06-.17.13-.35.19-.52h.06c-.02.19-.03.39-.05.58.02,0,.04,0,.06.02.08-.17.17-.35.29-.6-.02.26-.04.44-.05.63.02,0,.05,0,.07.02.07-.14.14-.27.23-.44.02.11.03.19.04.27.02,0,.03,0,.05.02.12-.3.24-.61.37-.93.11,1.01-.51,2.49-1.09,2.53h-.01ZM83.61,26.98c.15-.85.8-1.57,1.35-2.33.03.02.05.03.08.05-.49.78-.98,1.57-1.43,2.28ZM85.46,24.52s.08.03.11.05c-.49.75-.98,1.5-1.47,2.25.25-.87.9-1.54,1.36-2.3ZM83.13,27.53c.06-.96.54-1.77,1.24-2.48-.53.78-1.05,1.57-1.24,2.48ZM82.84,27.05c.1-.58.4-1.11.89-1.57-.31.54-.61,1.06-.89,1.57ZM83.16,30.35s-.07.03-.11.05c-.15-.32-.31-.63-.46-.95.02,0,.05-.02.08-.03.17.31.33.62.5.93h-.01ZM85.09,25.9s-.05-.02-.08-.04c.25-.4.51-.8.76-1.19.04.02.07.03.11.05-.26.39-.53.78-.79,1.18ZM85.9,19.68c-.01,1.01-.08,2.01-.13,3.02,0,.11-.06.22-.18.32.01-.13.03-.25.04-.38.03-.68.06-1.35.07-2.03.01-.86,0-1.72,0-2.58,0-.52-.18-.89-.57-1.31,0,.02-.02.04-.02.05.4.59.5,1.23.48,1.9-.03,1.04,0,2.08-.04,3.12-.02.47-.13.93-.21,1.39-.01.06-.06.12-.13.25.28-2.01.22-3.95.17-5.88-.15,1.96,0,3.93-.39,5.88.06-1.9.12-3.81.19-5.72-.3,1.96-.15,3.94-.45,5.89v-5.53h-.08c-.02,1.93,0,3.86-.21,5.78v-5.3c-.3,1.82.02,3.66-.26,5.48h-.1v-5c-.24,1.74,0,3.5-.31,5.24v-4.96s-.03-.01-.04-.02c-.03.16-.1.32-.1.48,0,.78.03,1.56.02,2.34,0,.78-.05,1.55-.07,2.33h-.13v-3.33h-.08c-.04,1.21-.07,2.43-.11,3.64h-.13v-2.47h-.1c-.04.93-.08,1.86-.12,2.79h-.12v-2.34h-.06c-.04.9-.09,1.8-.13,2.7h-.11v-2.39h-.06c-.07.97-.13,1.93-.2,2.9h-.11v-2.51h-.11c-.03.96-.07,1.92-.11,2.88h-.09v-2.7h-.11v2.64h-.12c-.06-.85-.12-1.69-.18-2.54h-.05v2.23h-.1c-.05-.68-.1-1.36-.15-2.04h-.08v1.69h-.12c-.04-.54-.08-1.08-.13-1.62h-.08v1.22h-.1c-.06-.4-.11-.81-.17-1.21h-.07v.78s-.06,0-.09.01c-.06-.26-.13-.53-.2-.79h-.07c0,.14-.02.29-.02.43-.02,0-.05.02-.07.02-.08-.15-.16-.31-.27-.52-.03.13-.05.19-.08.35-.13-.2-.22-.33-.32-.49-.02.07-.03.13-.04.19-.02,0-.05,0-.08.01-.05-.35-.1-.7-.15-1.05h-.06v.89s-.06,0-.09.01c-.24-.43-.03-.93-.23-1.38v1.19h-.13c-.15-.89-.14-1.79-.23-2.69v2.58h-.13v-3.22h-.15v3.08h-.14v-3.3h-.14v3.21h-.15v-1.37c0-.69.03-1.38.03-2.07,0-.08-.08-.19-.17-.23-.59-.3-.99-1.01-.89-1.68.16.7.6,1.14,1.2,1.49.37.21.58.53.74.91.21.53.51,1.03.77,1.54.04-.01.09-.02.13-.03v-.97h.11c.01.14.03.28.03.42,0,.18.01.36,0,.54-.03.3.12.45.51.47v-1.24h.13v1.22c.34-.07.5-.2.5-.46v-.75h.11c.02.19.04.37.06.56.03,0,.07.02.1.03.1-.23.27-.46.29-.69.09-1.06-.12-2.05-.82-2.95-.16-.21-.12-.55-.15-.83-.02-.19,0-.39,0-.59h-.1v1.05s-.09,0-.13.01c-.04-.31-.07-.62-.11-.94h-.03v.7s-.07.02-.1.03c-.07-.15-.18-.3-.19-.46-.01-.48.02-.95.03-1.43,0-.3,0-.6-.07-.9-.04.32-.08.64-.13.96h-.08v-1.32h-.06c-.05.25-.1.5-.16.75-.02,0-.05,0-.07-.01.03-.4.06-.8.09-1.2-.03,0-.06,0-.1-.01-.07.41-.15.82-.22,1.24h-.1c.03-.49.05-.98.08-1.48-.02,0-.04,0-.05-.01l-.31,1.21h-.02c0-.24-.02-.48,0-.71s.08-.47.13-.7c-.03,0-.06-.01-.09-.02-.12.46-.24.92-.36,1.38h-.04c.05-.47.1-.95.14-1.42-.02,0-.04,0-.06-.01-.11.43-.22.85-.34,1.28-.03,0-.06,0-.09-.01l.33-1.74s-.05-.01-.08-.02c-.16.59-.33,1.19-.48,1.72-.04-.87.15-1.76.7-2.59l-.12-.03c-.23.42-.46.84-.69,1.27-.04-.02-.08-.03-.13-.05.41-.85.82-1.69,1.23-2.54-.02,0-.04-.01-.05-.02-.3.55-.59,1.1-.89,1.65-.04-.01-.07-.02-.11-.04.04-.13.07-.26.13-.39.3-.69.63-1.37.92-2.06.26-.61.7-1.06,1.36-1.37-.43.57-.9,1.11-.91,1.84.21-.66.54-1.25,1.24-1.76-.02.5-.41.82-.38,1.25.1-.18.18-.37.31-.53.11-.14.28-.25.42-.38,0,.17.01.33-.02.49-.12.59-.26,1.18-.4,1.78.05.02.09.03.14.05.05-.1.12-.2.14-.31.13-.51.24-1.01.36-1.52.03-.1.1-.2.19-.3-.06.66-.14,1.33.17,1.96v-1.62h.08c.08.37.17.75.25,1.12.02,0,.05,0,.07-.01-.02-.21-.03-.42-.05-.63.03,0,.06,0,.09-.01.04.29.08.57.12.86h.08c.03-.21.05-.41.08-.62h.07c.04.26.08.53.12.79h.06c.02-.22.04-.44.05-.66h.11c.02.25.04.51.07.76h.05c.04-.23.07-.45.11-.68h.07v.74h.08c.06-.25.13-.49.19-.74.03,0,.06,0,.09.01-.02.25-.04.51-.06.76.02,0,.04,0,.06.01.07-.24.15-.48.22-.72.02,0,.05,0,.07.01-.02.23-.05.46-.07.69.02,0,.03.01.05.02.1-.25.2-.51.3-.76.02,0,.05.01.07.02-.05.23-.1.46-.15.69.02,0,.04.01.06.02.13-.3.27-.59.4-.89.03,0,.06.02.09.03-.1.27-.2.55-.3.82.02,0,.05.02.07.02.17-.33.34-.65.51-.98.02,0,.04.01.07.02-.08.27-.17.53-.25.8.02,0,.04.02.07.03.19-.4.39-.81.59-1.21.02,0,.05.01.07.02-.11.33-.22.66-.34,1.02.43-.38.4-.88.52-1.33.03,0,.06.01.1.02-.06.38-.11.75-.17,1.14.3-.41.26-.88.35-1.33v.92h.12c.04-.32.08-.65.12-.99.16.91.32,1.81.48,2.7-.02,0-.04.01-.07.02-.07-.13-.13-.27-.2-.4-.02,0-.04.01-.06.02.09.38.18.76.27,1.14-.02,0-.04,0-.06.01-.11-.26-.21-.53-.32-.79-.03,0-.07.02-.1.02.13.48.39.94.23,1.41-.09-.3-.19-.63-.29-.97-.04,0-.09.02-.13.02.48.9.06,1.85.28,2.77.02.07,0,.15-.02.23-.35-.81-.07-1.67-.29-2.49v2.46c-.31-.77-.09-1.52-.21-2.25-.14.97-.21,1.94.31,2.87l-.12.03c-.14-.35-.34-.69-.4-1.05-.07-.37-.02-.76-.08-1.14-.07.62-.14,1.23.18,1.83.38.7.77,1.41.98,2.16.18.64.13,1.33.12,2v-.03ZM78.74,17.14c.26.24.5.51.8.72.84.61,1.15,1.43,1.24,2.34.02.15,0,.31,0,.47-.03,0-.06.01-.09.02-.03-.13-.09-.25-.1-.38-.02-.78-.35-1.45-.94-2.03-.24-.24-.48-.48-.7-.73-.11-.12-.17-.27-.21-.41ZM103.31,26.66c.32-.68.69-1.28,1.39-1.72-.47.58-.91,1.13-1.39,1.72ZM104.61,25.55c-.23.29-.47.58-.7.87-.02-.01-.04-.02-.06-.04.23-.3.45-.6.68-.9.03.02.06.04.08.06h0ZM102.85,30.29c-.47-.38-.72-.81-.81-1.3-.3-1.75.61-3.61,2.24-4.5.05-.03.11-.05.25-.12-1.88,1.72-2.95,3.54-1.69,5.91h.01ZM104,25.02s.05.03.07.05c-.3.43-.61.87-.91,1.3-.03-.01-.06-.03-.08-.04.31-.43.62-.87.93-1.3h0ZM102.5,5.38c-.41-.25-.73-.18-1.06.07.07-.29.26-.46.53-.46.23,0,.44.06.53.39ZM101.58,4.05c.05.04.1.09.15.14-.2.16-.4.32-.6.49-.03-.02-.05-.05-.08-.07.17-.18.35-.37.52-.55h.01ZM98.06,4.99c.25.04.36.18.29.45-.28-.28-.4-.29-.73-.08.03-.24.21-.41.44-.37ZM97.15,5.72c.34-.24.55.15.83.19.02.03.04.06.05.08-.39.25-.77.49-1.16.74-.03-.03-.06-.05-.1-.08-.04-.36.04-.71.37-.94h0ZM105.18,9.42c.07.03.17.05.19.09.05.1.05.21.01.33-.07-.14-.11-.18-.18-.32h0c.06.25.1.39.16.64.04.16.08.33.12.49-.03,0-.06.02-.09.02-.11-.34-.22-.68-.34-1.01-.03-.09-.09-.18-.15-.26.18.63.36,1.26.55,1.89-.03,0-.05.02-.08.02-.17-.46-.39-.9-.51-1.37-.16-.62-.58-1.07-1.09-1.48-.17-.13-.4-.22-.37-.49,0-.07-.12-.16-.21-.22-.29-.19-.58-.38-.87-.56-.02.02-.04.04-.06.06.22.15.42.32.65.46.21.13.33.26.19.49-.36-.25-.73-.5-1.09-.74-.02.02-.04.04-.06.06.32.26.63.53.95.79-.02.04-.05.08-.07.12-.1-.02-.22-.02-.29-.07-.15-.12-.27-.27-.42-.39-.11-.08-.26-.14-.42-.16.24.24.49.47.75.72-.28.21-.49.2-.67-.03-.19-.24-.39-.48-.66-.69.15.22.3.43.45.65.21.3.2.36-.19.39-.7.06-1.4.12-2.09.11-.38,0-.76-.17-1.13-.28-.24-.07-.35-.21-.17-.43.13-.17.24-.36.3-.57-.19.25-.37.49-.56.73-.29-.13-.33-.31-.11-.52.13-.12.25-.24.38-.36-.02-.02-.04-.04-.06-.06-.24.19-.48.37-.74.58-.07-.1-.13-.19-.21-.3.18-.13.35-.25.52-.37,0-.01-.02-.02-.03-.04-.17.08-.34.16-.55.26-.25-.49.41-.4.51-.67-.2.07-.39.14-.6.21-.11-.19-.05-.32.16-.37.6-.14,1.07-.42,1.51-.81.58-.51,1.52-.5,2.15,0,.49.38,1.12.63,1.69.93.11.05.25.05.47.09-.46-.4-.86-.75-1.26-1.09.02-.03.03-.05.04-.08.26.13.45.07.68-.06.17-.1.45-.09.67-.06.26.04.55.11.74.25.33.24.7.23,1.07.27.3.03.5-.11.55-.34.02-.1-.15-.22-.23-.32.28-.09.47.02.43.35,0,.09-.02.21-.09.25-.5.32-.31.75-.27,1.16.01.13,0,.25,0,.4-.15-.06-.28-.1-.41-.15-.01.02-.03.03-.04.05.11.08.24.16.33.26.09.09.16.21.23.32-.03.02-.05.04-.08.05-.19-.14-.37-.27-.56-.41.14.38.72.55.6,1.11-.11-.19-.19-.33-.27-.47-.02,0-.04.02-.07.03.09.3.18.6.27.9h0M97.08,24.53c.32.53.63,1.05.95,1.58-.44-.47-.8-.98-.95-1.58ZM100.09,26.93c-.14-.3-.28-.6-.42-.9.02,0,.04-.01.06-.02l.44.89s-.05.02-.08.03ZM100.33,29.31c-.03.45-.15.79-.53,1.03.17-.32.33-.65.53-1.03ZM99.81,27.21c-.22-.88-.8-1.59-1.37-2.3.77.63,1.27,1.38,1.37,2.3ZM99.34,26.91c-.24-.89-1.05-1.48-1.45-2.28.56.72,1.37,1.32,1.45,2.28ZM97.43,24.56h.09c.43.58.88,1.16,1.28,1.76.14.21.17.47.27.76-.32-.56-.41-.78-.73-1.16M98.43,26.2s-.03.01-.05.02c-.04-.06-.07-.13-.11-.2.02,0,.04-.02.06-.03.03.07.06.14.1.21ZM100.49,33.42c-.18-.28-.33-.51-.49-.75-.02,0-.04,0-.06.02.09.22.18.45.27.67.06.15.15.3.16.45,0,.11-.1.22-.15.33-.1-.06-.24-.11-.28-.2-.16-.3-.29-.6-.51-.89.07.22.15.45.22.67.04.12.12.24.14.37.01.09-.04.19-.07.29-.11-.05-.27-.07-.32-.15-.17-.3-.31-.62-.46-.93l-.12-.27s-.06,0-.09.02c.1.28.21.56.29.84.03.09,0,.19,0,.29-.11-.04-.29-.06-.33-.13-.16-.28-.33-.57-.41-.88-.15-.52-.24-1.05-.36-1.58.02,0,.04,0,.06,0,.12.31.24.62.36.93.03,0,.05,0,.08-.02,0-.1.02-.2.03-.37.13.23.23.4.33.57.03,0,.06,0,.08-.02-.04-.17-.08-.34-.12-.5.02,0,.04,0,.06-.02.08.16.17.32.25.48.03,0,.05,0,.08-.02-.03-.19-.06-.37-.09-.55.02,0,.04,0,.06-.02.07.16.14.31.21.47.02,0,.03,0,.05,0v-.48c.1.18.15.28.21.38.02,0,.04,0,.07-.02-.04-.13-.09-.27-.14-.42.07.04.11.06.18.09.04-.35.07-.68.1-1.02.47.27,1,1.88.71,2.37v.02ZM101.58,23.6v2.43h-.11c-.04-.84-.08-1.67-.11-2.51h-.1v2.78h-.1c-.04-.99-.09-1.98-.13-2.98h-.1v2.66h-.11c-.04-.95-.08-1.9-.12-2.85h-.08v2.35h-.13c-.03-.88-.07-1.76-.1-2.64h-.09v2.27h-.1c-.07-1.27-.13-2.53-.2-3.8h-.1c.04,1.22.07,2.43.11,3.65h-.14l-.2-4.68h-.02v4.47h-.04c-.05-.42-.11-.84-.15-1.27-.03-.44-.04-.88-.05-1.32s-.02-.88-.02-1.32,0-.87-.07-1.31v4.85h-.07c-.05-.43-.14-.87-.15-1.3-.02-.7.01-1.4.02-2.1v-1.76h-.12v4.81h-.1c-.32-1.76-.35-3.55-.39-5.33h-.13c.08,1.69.15,3.39.23,5.08-.48-1.89-.31-3.81-.31-5.72h-.11c-.01.93-.06,1.87-.03,2.8.02.94.11,1.87.16,2.81-.5-1.92-.38-3.88-.37-5.82-.22,1.86-.12,3.71.02,5.61-.37-.4-.5-3.64-.26-5.95-.03,0-.06,0-.08-.01-.05.33-.15.66-.15,1,.02,1.43.07,2.86.12,4.29v.24h-.09c-.04-.5-.12-.99-.13-1.49-.02-.86.02-1.72.01-2.58,0-.74-.03-1.48.42-2.15-.39.31-.6.85-.6,1.55,0,.74-.01,1.48,0,2.22s.05,1.48.02,2.22c-.05-.38-.13-.76-.14-1.14,0-1.21.02-2.42.03-3.63,0-.47.13-.92.41-1.31.66-.94.91-1.94.71-3.04-.05-.26,0-.54,0-.81h-.1c0,.37.02.73,0,1.1-.04.52-.1,1.05-.17,1.57-.01.1-.1.19-.18.28.39-1.14.13-2.29.12-3.43-.22.98.24,2.02-.33,2.98.42-1.05-.07-2.13.08-3.2-.04.17-.1.34-.13.51-.03.19-.04.37-.06.61-.25-.57.02-1.04.2-1.52-.03,0-.06-.02-.08-.03-.1.2-.21.4-.31.61-.03,0-.07-.01-.1-.02.08-.3.17-.6.27-.97-.11.15-.19.25-.27.35-.02,0-.05,0-.07-.01.15-.84.3-1.69.44-2.54h.05c.04.32.07.63.11.95h.07v-.94h.04c.08.41.17.83.25,1.24.04,0,.08-.01.12-.02-.04-.3-.08-.61-.13-.91h.04c.11.37.23.73.34,1.1.03,0,.06-.01.09-.02-.06-.31-.13-.61-.19-.92.02,0,.04,0,.05-.01.13.36.25.71.38,1.07.03,0,.05-.01.08-.02-.06-.25-.11-.5-.17-.75.02,0,.05-.01.07-.02.1.31.21.62.31.93.03,0,.06-.01.09-.02-.05-.24-.1-.48-.15-.72.02,0,.03,0,.05-.01.13.29.25.58.37.87.03,0,.06-.02.09-.03-.07-.26-.14-.51-.21-.77.02,0,.04,0,.05-.01.13.28.26.55.39.83.03,0,.07-.02.1-.03-.04-.12-.09-.24-.13-.36-.04-.13-.08-.26-.05-.42.14.27.28.53.42.8.02,0,.05-.02.08-.03-.08-.24-.16-.49-.23-.73.03,0,.06-.02.09-.03.11.25.23.5.34.74.03,0,.05-.01.08-.02-.05-.24-.11-.48-.16-.71.02,0,.04,0,.07-.01.1.24.2.47.3.71.02,0,.04,0,.06-.01-.05-.25-.09-.51-.14-.76.02,0,.04-.01.06-.02.04.08.08.16.14.26.04-.14.06-.24.09-.34h.07c-.02.25-.03.51-.05.76h.09c.06-.31.11-.63.17-.94h.08v.72h.09c.05-.33.1-.66.16-.99h.06v.75h.1c.05-.35.09-.7.14-1.04.02,0,.03,0,.05-.01.03.15.06.31.1.46h.04v-.6h.11c.08.57,0,1.14-.14,1.71.34-.61.29-1.26.29-1.91.04,0,.08-.01.11-.02.15.68.29,1.37.44,2.05.04,0,.08,0,.12-.01,0-.08.01-.16,0-.23-.12-.6-.25-1.2-.36-1.8-.01-.07.04-.16.06-.23.08.05.2.08.23.15.12.22.22.46.35.69.03-.34-.14-.64-.22-1.03.1.04.22.06.29.13.35.36.58.78.71,1.25.02.07.09.13.16.18-.03-.69-.48-1.22-.91-1.75l.08-.06c.1.05.2.1.29.16.55.41.95.9,1.14,1.52.17.56.42,1.09.64,1.64.05.14.11.28.09.44-.08-.14-.15-.28-.23-.42-.02,0-.04.01-.07.02.19.5.39,1,.58,1.5-.02,0-.05.02-.08.02-.21-.44-.42-.87-.64-1.3.21.88.75,1.7.57,2.67-.11-.55-.1-1.1-.44-1.52.08.49.17,1.02.26,1.54-.03,0-.07.01-.1.02,0-.51-.13-.99-.46-1.41.1.43.32.84.17,1.31-.12-.39-.23-.76-.34-1.13-.03,0-.06.01-.09.02.05.24.13.48.15.72.02.25-.03.51-.11.75-.05-.42-.09-.84-.14-1.26h-.1v1.21h-.06c-.04-.28-.09-.56-.13-.84h-.11v1.06h-.14v-.93h-.12c-.05.49-.11.99-.16,1.48h-.05c-.02-.35-.04-.7-.06-1.05-.02,0-.04-.01-.06-.02-.04.16-.11.32-.1.48.02.5.09.99.11,1.49,0,.2-.06.4-.09.6h-.08c-.01-.13-.02-.26-.03-.39-.09.34-.04.71-.4.95-.02.04-.04.08-.07.12-.12.18-.24.36-.36.54-.65.91-.8,1.89-.51,2.92.04.14.15.27.23.4.03,0,.07-.02.1-.03v-.48c.3.37-.14.99.64,1.23v-1.27h.13v1.3c.51-.02.58-.09.57-.46v-.96h.1c0,.17.03.35.03.52,0,.18-.02.36-.03.61.43-.48.69-.96.79-1.49.1-.55.4-.94.9-1.25.53-.33.91-.74,1.07-1.35.08.44-.09.96-.51,1.3-.37.3-.42.65-.41,1.05.02.94,0,1.87,0,2.81h-.12v-3.23h-.12c-.04,1.1-.07,2.2-.11,3.31h-.06v-3.01h-.1l-.09,3.24h-.1v-2.62h-.06c-.06.91-.12,1.82-.18,2.73h-.11v-1.18h-.1c-.04.44-.08.88-.12,1.31h-.1v-.73c-.1.31-.05.64-.36.89.02-.31.05-.62.07-.93-.18.49-.02,1.11-.8,1.34-.01-.1-.03-.22-.04-.34h-.04c-.04.18-.08.36-.13.54h-.08c-.02-.19-.04-.37-.06-.55h-.11c-.03.33-.05.66-.08.99h-.15v-1.06h-.15c-.03.49-.07.98-.1,1.48h-.1c-.03-.53-.06-1.07-.09-1.6h-.13v2.03h-.19v-2.17h-.13l.06.07ZM104.37,17.05c-.17.25-.32.51-.51.74-.24.28-.54.51-.77.79-.47.57-.7,1.22-.71,1.93,0,.15-.02.31-.03.46h-.12c-.08-.57-.02-1.14.19-1.69.2-.52.55-.96.98-1.35.32-.29.62-.59.97-.88ZM103.33,34.32c-.04.06-.19.08-.28.07-.04,0-.09-.14-.08-.21.07-.37.15-.74.23-1.11-.03,0-.05,0-.08-.02-.11.33-.21.66-.33.99-.06.16-.03.43-.31.39-.3-.05-.26-.32-.22-.53.06-.34.17-.67.19-1.03-.14.32-.29.64-.43.96h-.12c-.03-.17-.12-.34-.08-.5.15-.69.33-1.38.51-2.07.04-.16.14-.31.3-.45v1.15s.05,0,.07,0c.04-.05.08-.1.18-.22-.01.27-.02.46-.03.64.02,0,.04,0,.06,0,.08-.16.16-.33.24-.49.02,0,.03,0,.05,0-.02.21-.05.42-.07.63.02,0,.05,0,.08.02.07-.2.15-.4.22-.6.02,0,.04,0,.07,0-.02.2-.04.4-.07.61.02,0,.05.02.08.02.07-.19.15-.37.22-.56h.05c-.02.17-.04.35-.05.52.02,0,.04,0,.06.02.08-.2.17-.4.26-.6.02,0,.04,0,.06.02-.03.16-.06.32-.09.49.03,0,.06.02.08.02.2-.54.4-1.07.61-1.61-.26,2.47-.37,2.84-.97,3.18.08-.43.14-.79.2-1.15-.03,0-.05,0-.08-.02-.1.31-.19.63-.3.94-.05.15-.11.31-.21.44l-.02.02Z"/>
    <path d="M102.85,17.81s-.07-.07-.06-.1c.03-.24.08-.49.1-.73.02-.23,0-.47.05-.7.12.47.17.95-.02,1.42-.02.04-.04.08-.07.12h0Z"/>
    <path d="M80.34,17.93v-1.83h.02c.03.61.07,1.22.1,1.83h-.12Z"/>
    <path d="M84.41,15.35c-.08-.43-.16-.86-.24-1.29.03,0,.06-.01.09-.02.08.43.17.85.25,1.28-.04,0-.07.02-.11.02h.01Z"/>
    <path d="M80.63,16.57l.09,1.5c-.23-.49-.11-.99-.09-1.5Z"/>
    <path d="M80.95,18.2c-.05-.32-.11-.65-.16-.97.03,0,.06,0,.09-.01.06.32.11.65.17.97-.03,0-.06.01-.1.02h0Z"/>
    <path d="M81.12,17.53c.12.26.24.53.37.79l-.08.03c-.14-.26-.27-.52-.41-.78.04-.01.08-.03.12-.04Z"/>
    <path d="M98.79,22.59v-3.55h.05v3.56h-.05Z"/>
    <path d="M98.46,13.63c.04.36.07.73.11,1.09h.03c.03-.21.07-.42.1-.63.06.48-.02.94-.32,1.38.03-.34.09-.65.09-.96s-.06-.59-.1-.89h.09Z"/>
    <path d="M102.64,16.06c.16.73.08,1.52-.14,1.82.05-.61.09-1.21.14-1.82Z"/>
    <path d="M102.46,16.55c-.03.5-.06,1.01-.1,1.51h-.09c.03-.5.07-1.01.1-1.51h.09Z"/>
    <path d="M101.9,18.31c.09-.42.17-.8.25-1.17.12.22,0,.85-.25,1.17Z"/>
    <path d="M105.02,11.57l-.41-1.06s.03-.01.05-.02c.16.34.32.69.48,1.03-.04.01-.08.03-.12.04h0Z"/>
    <path d="M101.87,17.62c-.09.22-.17.44-.26.67-.03,0-.06-.02-.09-.03.09-.22.19-.44.28-.66.02,0,.04.01.07.02Z"/>
    <path d="M99.05,5.91c.16.27.41.3.98.13-.1-.05-.18-.09-.26-.13.29-.03.69.14.81.35.11.19,0,.41-.23.49-.05.02-.12,0-.16.03-.41.17-.8.28-1.22,0-.17-.11-.45-.15-.52-.28-.13-.23.14-.36.34-.48.07-.04.16-.06.27-.1h0Z"/>
    <path d="M100.78,7.86c-.75.26-1.44.6-2.14.05v-.1c.16.02.34.02.48.07.29.11.56.1.85,0,.24-.08.49-.22.8-.03h0Z"/>
    <path d="M104.84,9.23c-.07-.29-.11-.45-.18-.75.03,0,.06,0,.09-.01.04.3.07.46.11.77h-.02Z"/>
    <path d="M83.37,5.92c-.02.06-.04.13-.09.26.18-.04.38-.03.44-.11.17-.21.36-.1.5-.03.13.07.29.23.29.35s-.17.29-.3.33c-.24.07-.5.09-.68.28-.04.04-.2.01-.3-.02-.17-.06-.34-.13-.5-.22-.15-.08-.38-.18-.41-.3-.03-.12.11-.33.25-.41.22-.12.49-.16.74-.23.02.03.03.06.05.09h.01Z"/>
    <path d="M84.39,7.87c-.79.52-1.5.34-2.21,0,0-.03,0-.06-.01-.09.12,0,.26-.05.37-.02.49.15.97.28,1.48.05.08-.04.21.02.37.05h0Z"/>
  </g>
</svg>