<?xml version="1.0" encoding="UTF-8"?>
<svg id="Layer_1" data-name="Layer 1" xmlns="http://www.w3.org/2000/svg" viewBox="0 0 32.24 47.75">
  <path d="M32.22,47.17c0-.13-.09-.26-.16-.39-.52-.9-1.08-1.78-1.55-2.7-.99-1.9-1.52-3.91-1.87-5.98-.38-2.22-.38-4.45-.34-6.68,0-.35-.03-.74.48-.89.05-.02.1-.08.13-.13.17-.36.38-.7.49-1.07.25-.82.34-1.68.69-2.46.82-1.84,1.25-3.75,1.43-5.71.17-1.88.26-3.77.35-5.65.08-1.66,0-3.32-.47-4.94-.17-.59-.42-1.16-.53-1.76-.22-1.24-.37-2.5-.54-3.74,0-.04.02-.08.03-.13.04-.02.07-.05.11-.07.23.23.45.45.71.71-.13-.51-.86-.62-.89-1.22.3.18.54.32.79.46.02-.03.04-.05.06-.08-.19-.12-.38-.24-.57-.37-.12-.08-.31-.18-.32-.28-.05-.54-.36-1.1.17-1.59.04-.03.06-.08.08-.13.23-.46-.17-1.01-.74-.97-.28.02-.44-.09-.65-.22-.49-.31-.98-.65-1.53-.85-.81-.3-1.69-.35-2.57-.32-1.09.04-2.08.3-2.92.93-.11.08-.3.08-.45.11-.19.04-.47.03-.55.13-.11.14-.15.42-.06.55.3.42.11.83.06,1.25,0,.08-.16.18-.26.21-.66.16-1.29.37-1.83.77.09,0,.15-.04.23-.07.54-.19,1.07-.39,1.61-.57.07-.02.17.03.26.05-.06.06-.11.14-.18.18-.19.11-.42.18-.61.28h0c-.32.11-.96.49-1.38.83.4-.2.78-.42,1.15-.64.08-.05.17-.08.26-.13.16-.04.3-.11.46-.15.14-.03.29-.18.4.03.1.19-.1.25-.21.35-.06.05-.09.08-.17.14q-.08.04-.2.11c-.41.25-.82.5-1.21.78-.1.07-.16.19-.24.28.3-.18.53-.4.79-.59.28-.19.59-.35.88-.52.1-.06.2-.13.31-.18.06-.02.14,0,.21,0,0,.07,0,.15-.02.21-.03.06-.11.1-.16.15-.38.41-.76.81-1.12,1.24-.16.2-.26.44-.38.65.04.02.07.04.1.05.4-.8.95-1.5,1.81-1.98,0,.13-.04.23-.11.32-.34.42-.63.85-.73,1.37.3-.5.52-1.04,1.06-1.41,0,.39-.03.78-.09,1.15-.1.64-.2,1.28-.32,1.92-.16.83-.28,1.68-.51,2.5-.3,1.03-1.04,1.87-1.74,2.71-.91,1.09-1.98,2.07-2.66,3.31-.05.1-.25.2-.37.19-.12,0-.25-.14-.33-.25-.22-.31-.39-.65-.63-.95-.68-.81-1.38-1.6-2.08-2.4-1.07-1.22-1.89-2.53-2.07-4.09-.14-1.18-.35-2.35-.52-3.53-.03-.22,0-.45,0-.67.04,0,.08-.02.12-.02.29.5.58.99.87,1.49,0-.12-.01-.23-.07-.34-.21-.36-.44-.72-.65-1.08-.05-.09-.04-.2-.06-.3.05-.02.11-.04.16-.05.57.69,1.14,1.38,1.71,2.07-.03-.12-.07-.24-.15-.34-.45-.55-.91-1.09-1.36-1.64-.08-.09-.13-.2-.19-.3.03-.02.07-.05.1-.07.8.34,1.47.83,2.12,1.37-.18-.23-.37-.44-.61-.61-.4-.28-.82-.52-1.23-.79-.09-.06-.13-.18-.19-.27.12-.02.25-.07.34-.04.27.09.54.19.79.32.38.2.74.42,1.12.64-.04-.11-.1-.2-.2-.25-.56-.28-1.13-.56-1.7-.83-.16-.08-.35-.13-.16-.4.65.25,1.31.49,1.98.74-.44-.33-1.22-.67-1.73-.75-.23-.04-.37-.14-.38-.35-.01-.36-.08-.72.14-1.08.27-.44-.03-.77-.58-.7-.23.03-.38-.02-.54-.16-.39-.36-.89-.6-1.42-.69C8.02.08,7.31.02,6.6,0c-1.37-.03-2.55.41-3.56,1.22-.12.1-.33.16-.5.16-.64,0-1.01.52-.72,1.02.04.06.07.13.12.18.31.25.23.56.19.86-.01.1-.04.2-.05.3-.02.3-.13.54-.46.67-.11.05-.2.14-.3.21.02.02.03.04.05.06.18-.1.36-.21.58-.33.07.59-.65.7-.79,1.12.03.03.06.05.09.08.19-.22.39-.44.58-.67.03.02.06.03.09.05,0,.08.03.17.02.25-.12.87-.21,1.75-.38,2.61-.26,1.27-.61,2.51-.86,3.78-.17.88-.34,1.78-.34,2.67,0,1.53.12,3.05.24,4.58.1,1.33.23,2.67.42,4,.17,1.2.42,2.39.95,3.52.46.99.7,2.02.9,3.06.1.51.29,1.01.92,1.25.08.03.15.19.15.3.04.89.06,1.78.08,2.67.04,1.92-.2,3.81-.63,5.69-.53,2.3-1.37,4.5-2.72,6.54-.22.33-.4.67-.58,1.01-.1.19-.16.44.08.57.17.09.44.15.62.09.36-.11.7-.27,1.01-.46,1.58-.97,2.68-2.3,3.57-3.77.96-1.59,1.6-3.29,2.12-5.04.67-2.26,1.05-4.56,1.22-6.88.02-.32,0-.64.42-.81.11-.04.2-.17.25-.27.17-.38.38-.75.48-1.14.2-.86.46-1.7.82-2.52.31-.7.61-1.42.78-2.16.24-1.01.42-2.05.51-3.08.12-1.43.11-2.87.17-4.3.01-.38.05-.77.07-1.18.13.02.23,0,.3.05.51.34,1.05.66,1.5,1.06.5.44.89.97,1.35,1.44.38.4.93.48,1.36.19.32-.21.6-.48.85-.75.32-.33.58-.7.89-1.04.08-.09.21-.14.32-.21.09-.06.19-.12.27-.2.29-.28.63-.48,1.13-.55v1.23c.05,1.77.05,3.54.3,5.3.18,1.3.37,2.6.9,3.83.19.45.44.88.6,1.33.23.69.4,1.39.62,2.08.12.38.28.77.7.99.22.11.27.25.29.46.12,1.29.17,2.58.41,3.85.3,1.56.68,3.12,1.17,4.64.73,2.31,1.86,4.45,3.68,6.28.74.75,1.56,1.42,2.62,1.8.19.07.5.09.64,0,.13-.08.13-.35.13-.54l-.02.02ZM10.69,2.17c.08.24.12.5.17.75-.04.02-.07.04-.11.06-.36-.23-.72-.46-1.11-.71.17-.13.27-.23.41-.3.22-.12.57-.02.64.21h0ZM9.39,1.29c.26-.14.5-.05.71.31-.32-.11-.58-.22-.76.08-.17-.2-.16-.27.05-.38h0ZM6.05.43c.17.13.33.25.5.38-.02.02-.04.04-.06.07-.16-.13-.32-.26-.49-.4.02-.02.03-.03.05-.05ZM5.65,1.23c.31,0,.51.17.51.54-.28-.39-.59-.48-.95-.16,0-.24.19-.38.44-.38ZM2.43,6s.08.02.11.03c-.1.3-.2.59-.3.89-.03,0-.06-.01-.09-.02.09-.3.18-.6.27-.91h.01ZM2.93,4.95s-.03,0-.05-.01c-.19.39-.38.77-.57,1.16-.03,0-.06-.02-.08-.02.05-.16.09-.32.15-.48.06-.16.13-.32.2-.48.08-.16.17-.32.2-.51-.14.19-.27.38-.42.59-.03-.38.01-.44.67-1.06-.1.05-.21.1-.31.16-.1.06-.2.13-.31.2-.14-.4.31-.41.5-.64-.17.06-.3.11-.51.19.05-.36.11-.67.13-.99,0-.13-.05-.27-.11-.4-.09-.18-.23-.34-.3-.53-.03-.09.03-.25.12-.31.1-.06.27-.05.45-.07-.05.09-.05.12-.06.13-.18.06-.41.13-.3.35.1.21.32.24.59.26.66.05,1.09-.4,1.66-.5.32-.06.65-.15.95.12.1.09.36.04.61.06-.4.36-.8.72-1.25,1.12.23-.06.42-.08.57-.17.58-.31,1.16-.62,1.7-.98.52-.36,1.42-.38,1.91.05.43.38.92.68,1.49.86.18.06.38.13.25.38-.13-.04-.26-.08-.43-.13.08.23.6.19.36.56-.23-.1-.47-.19-.73-.3.14.29.73.33.5.82-.23-.18-.42-.33-.6-.47-.02.02-.04.03-.06.05.15.17.3.35.46.54-.11.07-.2.14-.34.23-.21-.22-.4-.44-.6-.65-.02.02-.05.03-.07.05.15.2.3.4.51.68-.42.15-.79.33-1.19.41-.84.17-1.69.08-2.53-.09-.21-.04-.15-.17-.08-.28.18-.28.37-.56.56-.84-.02-.01-.04-.02-.06-.04-.2.25-.42.49-.6.74-.22.31-.25.32-.67.05.3-.26.58-.51.87-.77-.03-.03-.06-.06-.08-.08-.35.26-.7.53-1.06.8-.19-.06-.16-.16-.02-.27.32-.25.63-.5.9-.8-.41.25-.82.51-1.26.77-.04-.03-.11-.08-.2-.16.35-.23.69-.45,1.03-.67-.02-.02-.04-.05-.06-.07-.34.21-.67.42-1.01.62-.04.02-.1.06-.1.08.06.36-.31.44-.52.62-.45.38-.73.82-.9,1.35-.17.53-.43,1.05-.71,1.55.27-.92.53-1.84.8-2.77h0ZM5.79,29.87c0,.08-.07.15-.1.23-.07-.07-.15-.12-.19-.2-.08-.15-.13-.31-.2-.47-.01,0-.02,0-.04,0,.04.26.1.53.13.8.01.15.09.37-.2.4-.28.03-.32-.16-.37-.34-.08-.31-.17-.61-.32-.9.05.29.12.58.15.87.01.12-.03.34-.12.36-.25.09-.33-.12-.38-.28-.12-.37-.23-.75-.4-1.11.04.34.09.68.14,1.07-.39-.08-.48-.33-.55-.55-.09-.29-.14-.59-.19-.88-.09-.53-.17-1.07-.25-1.6.03,0,.05,0,.08-.02.16.42.32.85.5,1.34.04-.11.05-.16.07-.23.11.16.19.3.28.44.02,0,.05,0,.07-.02-.03-.13-.06-.27-.08-.4.01,0,.03,0,.04-.02.1.15.19.3.29.45.02,0,.04-.02.05-.02-.02-.11-.04-.22-.06-.33.01,0,.03,0,.04,0,.06.1.13.21.22.36.02-.12.02-.18.04-.28.05.08.09.15.13.22.02,0,.03,0,.05,0-.01-.1-.03-.2-.04-.34.08.08.14.15.2.2.06-.24.16-.48.19-.72.03-.27,0-.55,0-.83.03,0,.06,0,.09-.02.13.27.28.53.39.8.26.66.39,1.33.35,2.03h0ZM5.28,24.12c-.11-.89-.6-1.66-1.12-2.41.11.29.21.59.32.88-.02,0-.04.01-.05.02-.11-.24-.2-.48-.33-.71-.13-.23-.27-.46-.44-.66-.18-.22-.4-.41-.66-.67,2.53,1.12,3.58,4.72,1.69,6.09.54-.79.7-1.64.59-2.53h0ZM3.19,21.38c.7.29.82.98,1.1,1.58-.38-.54-.75-1.08-1.1-1.58ZM3.89,22.98c-.27-.38-.55-.76-.82-1.14.43.29.65.71.82,1.14ZM8.54,30.47c.12-.38.24-.74.36-1.09-.04,0-.07-.02-.1-.03-.09.23-.19.46-.29.69-.07.16-.13.33-.24.46-.06.08-.21.1-.33.14-.02-.1-.09-.2-.06-.29.11-.35.25-.69.38-1.04-.03,0-.07-.02-.1-.03-.12.26-.22.53-.36.79-.08.14-.1.43-.38.32-.24-.09-.16-.32-.09-.51.12-.3.24-.59.32-.91-.14.23-.28.46-.43.7h-.11c-.05-.12-.15-.24-.14-.35.09-.72.33-1.4.79-2.02.01,0,.04-.02.08-.03.02.05.05.1.06.15.05.42.09.84.13,1.25.03,0,.07,0,.1,0,.05-.16.1-.32.18-.56v.75s.05,0,.07,0c.06-.17.13-.35.19-.52h.06c-.02.19-.03.39-.05.58.02,0,.04,0,.06.02.08-.17.17-.35.29-.6-.02.26-.04.44-.05.63.02,0,.05,0,.07.02.07-.14.14-.27.23-.44.02.11.03.19.04.27.02,0,.03,0,.05.02.12-.3.24-.61.37-.93.11,1.01-.51,2.49-1.09,2.53h-.01ZM8.26,23.24c.15-.85.8-1.57,1.35-2.33.03.02.05.03.08.05-.49.78-.98,1.57-1.43,2.28ZM10.11,20.78s.08.03.11.05c-.49.75-.98,1.5-1.47,2.25.25-.87.9-1.54,1.36-2.3ZM7.78,23.79c.06-.96.54-1.77,1.24-2.48-.53.78-1.05,1.57-1.24,2.48ZM7.49,23.31c.1-.58.4-1.11.89-1.57-.31.54-.61,1.06-.89,1.57ZM7.81,26.61s-.07.03-.11.05c-.15-.32-.31-.63-.46-.95.02,0,.05-.02.08-.03.17.31.33.62.5.93h-.01ZM9.74,22.16s-.05-.02-.08-.04c.25-.4.51-.8.76-1.19.04.02.07.03.11.05-.26.39-.53.78-.79,1.18ZM10.55,15.94c-.01,1.01-.08,2.01-.13,3.02,0,.11-.06.22-.18.32.01-.13.03-.25.04-.38.03-.68.06-1.35.07-2.03.01-.86,0-1.72,0-2.58,0-.52-.18-.89-.57-1.31,0,.02-.02.04-.02.05.4.59.5,1.23.48,1.9-.03,1.04,0,2.08-.04,3.12-.02.47-.13.93-.21,1.39-.01.06-.06.12-.13.25.28-2.01.22-3.95.17-5.88-.15,1.96,0,3.93-.39,5.88.06-1.9.12-3.81.19-5.72-.3,1.96-.15,3.94-.45,5.89v-5.53h-.08c-.02,1.93,0,3.86-.21,5.78v-5.3c-.3,1.82.02,3.66-.26,5.48h-.1v-5c-.24,1.74,0,3.5-.31,5.24v-4.96s-.03-.01-.04-.02c-.03.16-.1.32-.1.48,0,.78.03,1.56.02,2.34,0,.78-.05,1.55-.07,2.33h-.13v-3.33h-.08c-.04,1.21-.07,2.43-.11,3.64h-.13v-2.47h-.1c-.04.93-.08,1.86-.12,2.79h-.12v-2.34h-.06c-.04.9-.09,1.8-.13,2.7h-.11v-2.39h-.06c-.07.97-.13,1.93-.2,2.9h-.11v-2.51h-.11c-.03.96-.07,1.92-.11,2.88h-.09v-2.7h-.11v2.64h-.12c-.06-.85-.12-1.69-.18-2.54h-.05v2.23h-.1c-.05-.68-.1-1.36-.15-2.04h-.08v1.69h-.12c-.04-.54-.08-1.08-.13-1.62h-.08v1.22h-.1c-.06-.4-.11-.81-.17-1.21h-.07v.78s-.06,0-.09.01c-.06-.26-.13-.53-.2-.79h-.07c0,.14-.02.29-.02.43-.02,0-.05.02-.07.02-.08-.15-.16-.31-.27-.52-.03.13-.05.19-.08.35-.13-.2-.22-.33-.32-.49-.02.07-.03.13-.04.19-.02,0-.05,0-.08.01-.05-.35-.1-.7-.15-1.05h-.06v.89s-.06,0-.09.01c-.24-.43-.03-.93-.23-1.38v1.19h-.13c-.15-.89-.14-1.79-.23-2.69v2.58h-.13v-3.22h-.15v3.08h-.14v-3.3h-.14v3.21h-.15v-1.37c0-.69.03-1.38.03-2.07,0-.08-.08-.19-.17-.23-.59-.3-.99-1.01-.89-1.68.16.7.6,1.14,1.2,1.49.37.21.58.53.74.91.21.53.51,1.03.77,1.54.04-.01.09-.02.13-.03v-.97h.11c.01.14.03.28.03.42,0,.18.01.36,0,.54-.03.3.12.45.51.47v-1.24h.13v1.22c.34-.07.5-.2.5-.46v-.75h.11c.02.19.04.37.06.56.03,0,.07.02.1.03.1-.23.27-.46.29-.69.09-1.06-.12-2.05-.82-2.95-.16-.21-.12-.55-.15-.83-.02-.19,0-.39,0-.59h-.1v1.05s-.09,0-.13.01c-.04-.31-.07-.62-.11-.94h-.03v.7s-.07.02-.1.03c-.07-.15-.18-.3-.19-.46-.01-.48.02-.95.03-1.43,0-.3,0-.6-.07-.9-.04.32-.08.64-.13.96h-.08v-1.32h-.06c-.05.25-.1.5-.16.75-.02,0-.05,0-.07-.01.03-.4.06-.8.09-1.2-.03,0-.06,0-.1-.01-.07.41-.15.82-.22,1.24h-.1c.03-.49.05-.98.08-1.48-.02,0-.04,0-.05-.01l-.31,1.21h-.02c0-.24-.02-.48,0-.71s.08-.47.13-.7c-.03,0-.06-.01-.09-.02-.12.46-.24.92-.36,1.38h-.04c.05-.47.1-.95.14-1.42-.02,0-.04,0-.06-.01-.11.43-.22.85-.34,1.28-.03,0-.06,0-.09-.01l.33-1.74s-.05-.01-.08-.02c-.16.59-.33,1.19-.48,1.72-.04-.87.15-1.76.7-2.59l-.12-.03c-.23.42-.46.84-.69,1.27-.04-.02-.08-.03-.13-.05.41-.85.82-1.69,1.23-2.54-.02,0-.04-.01-.05-.02-.3.55-.59,1.1-.89,1.65-.04-.01-.07-.02-.11-.04.04-.13.07-.26.13-.39.3-.69.63-1.37.92-2.06.26-.61.7-1.06,1.36-1.37-.43.57-.9,1.11-.91,1.84.21-.66.54-1.25,1.24-1.76-.02.5-.41.82-.38,1.25.1-.18.18-.37.31-.53.11-.14.28-.25.42-.38,0,.17.01.33-.02.49-.12.59-.26,1.18-.4,1.78.05.02.09.03.14.05.05-.1.12-.2.14-.31.13-.51.24-1.01.36-1.52.03-.1.1-.2.19-.3-.06.66-.14,1.33.17,1.96v-1.62h.08c.08.37.17.75.25,1.12.02,0,.05,0,.07-.01-.02-.21-.03-.42-.05-.63.03,0,.06,0,.09-.01.04.29.08.57.12.86h.08c.03-.21.05-.41.08-.62h.07c.04.26.08.53.12.79h.06c.02-.22.04-.44.05-.66h.11c.02.25.04.51.07.76h.05c.04-.23.07-.45.11-.68h.07v.74h.08c.06-.25.13-.49.19-.74.03,0,.06,0,.09.01-.02.25-.04.51-.06.76.02,0,.04,0,.06.01.07-.24.15-.48.22-.72.02,0,.05,0,.07.01-.02.23-.05.46-.07.69.02,0,.03.01.05.02.1-.25.2-.51.3-.76.02,0,.05.01.07.02-.05.23-.1.46-.15.69.02,0,.04.01.06.02.13-.3.27-.59.4-.89.03,0,.06.02.09.03-.1.27-.2.55-.3.82.02,0,.05.02.07.02.17-.33.34-.65.51-.98.02,0,.04.01.07.02-.08.27-.17.53-.25.8.02,0,.04.02.07.03.19-.4.39-.81.59-1.21.02,0,.05.01.07.02-.11.33-.22.66-.34,1.02.43-.38.4-.88.52-1.33.03,0,.06.01.1.02-.06.38-.11.75-.17,1.14.3-.41.26-.88.35-1.33v.92h.12c.04-.32.08-.65.12-.99.16.91.32,1.81.48,2.7-.02,0-.04.01-.07.02-.07-.13-.13-.27-.2-.4-.02,0-.04.01-.06.02.09.38.18.76.27,1.14-.02,0-.04,0-.06.01-.11-.26-.21-.53-.32-.79-.03,0-.07.02-.1.02.13.48.39.94.23,1.41-.09-.3-.19-.63-.29-.97-.04,0-.09.02-.13.02.48.9.06,1.85.28,2.77.02.07,0,.15-.02.23-.35-.81-.07-1.67-.29-2.49v2.46c-.31-.77-.09-1.52-.21-2.25-.14.97-.21,1.94.31,2.87l-.12.03c-.14-.35-.34-.69-.4-1.05-.07-.37-.02-.76-.08-1.14-.07.62-.14,1.23.18,1.83.38.7.77,1.41.98,2.16.18.64.13,1.33.12,2v-.03ZM3.39,13.4c.26.24.5.51.8.72.84.61,1.15,1.43,1.24,2.34.02.15,0,.31,0,.47-.03,0-.06.01-.09.02-.03-.13-.09-.25-.1-.38-.02-.78-.35-1.45-.94-2.03-.24-.24-.48-.48-.7-.73-.11-.12-.17-.27-.21-.41ZM27.96,22.92c.32-.68.69-1.28,1.39-1.72-.47.58-.91,1.13-1.39,1.72ZM29.26,21.81c-.23.29-.47.58-.7.87-.02-.01-.04-.02-.06-.04.23-.3.45-.6.68-.9.03.02.06.04.08.06h0ZM27.5,26.55c-.47-.38-.72-.81-.81-1.3-.3-1.75.61-3.61,2.24-4.5.05-.03.11-.05.25-.12-1.88,1.72-2.95,3.54-1.69,5.91h.01ZM28.65,21.28s.05.03.07.05c-.3.43-.61.87-.91,1.3-.03-.01-.06-.03-.08-.04.31-.43.62-.87.93-1.3h0ZM27.15,1.64c-.41-.25-.73-.18-1.06.07.07-.29.26-.46.53-.46.23,0,.44.06.53.39ZM26.23.31c.05.04.1.09.15.14-.2.16-.4.32-.6.49-.03-.02-.05-.05-.08-.07.17-.18.35-.37.52-.55h.01ZM22.71,1.25c.25.04.36.18.29.45-.28-.28-.4-.29-.73-.08.03-.24.21-.41.44-.37ZM21.8,1.98c.34-.24.55.15.83.19.02.03.04.06.05.08-.39.25-.77.49-1.16.74-.03-.03-.06-.05-.1-.08-.04-.36.04-.71.37-.94h0ZM29.83,5.68c.07.03.17.05.19.09.05.1.05.21.01.33-.07-.14-.11-.18-.18-.32h0c.06.25.1.39.16.64.04.16.08.33.12.49-.03,0-.06.02-.09.02-.11-.34-.22-.68-.34-1.01-.03-.09-.09-.18-.15-.26.18.63.36,1.26.55,1.89-.03,0-.05.02-.08.02-.17-.46-.39-.9-.51-1.37-.16-.62-.58-1.07-1.09-1.48-.17-.13-.4-.22-.37-.49,0-.07-.12-.16-.21-.22-.29-.19-.58-.38-.87-.56-.02.02-.04.04-.06.06.22.15.42.32.65.46.21.13.33.26.19.49-.36-.25-.73-.5-1.09-.74-.02.02-.04.04-.06.06.32.26.63.53.95.79-.02.04-.05.08-.07.12-.1-.02-.22-.02-.29-.07-.15-.12-.27-.27-.42-.39-.11-.08-.26-.14-.42-.16.24.24.49.47.75.72-.28.21-.49.2-.67-.03-.19-.24-.39-.48-.66-.69.15.22.3.43.45.65.21.3.2.36-.19.39-.7.06-1.4.12-2.09.11-.38,0-.76-.17-1.13-.28-.24-.07-.35-.21-.17-.43.13-.17.24-.36.3-.57-.19.25-.37.49-.56.73-.29-.13-.33-.31-.11-.52.13-.12.25-.24.38-.36-.02-.02-.04-.04-.06-.06-.24.19-.48.37-.74.58-.07-.1-.13-.19-.21-.3.18-.13.35-.25.52-.37,0-.01-.02-.02-.03-.04-.17.08-.34.16-.55.26-.25-.49.41-.4.51-.67-.2.07-.39.14-.6.21-.11-.19-.05-.32.16-.37.6-.14,1.07-.42,1.51-.81.58-.51,1.52-.5,2.15,0,.49.38,1.12.63,1.69.93.11.05.25.05.47.09-.46-.4-.86-.75-1.26-1.09.02-.03.03-.05.04-.08.26.13.45.07.68-.06.17-.1.45-.09.67-.06.26.04.55.11.74.25.33.24.7.23,1.07.27.3.03.5-.11.55-.34.02-.1-.15-.22-.23-.32.28-.09.47.02.43.35,0,.09-.02.21-.09.25-.5.32-.31.75-.27,1.16.01.13,0,.25,0,.4-.15-.06-.28-.1-.41-.15-.01.02-.03.03-.04.05.11.08.24.16.33.26.09.09.16.21.23.32-.03.02-.05.04-.08.05-.19-.14-.37-.27-.56-.41.14.38.72.55.6,1.11-.11-.19-.19-.33-.27-.47-.02,0-.04.02-.07.03.09.3.18.6.27.9h0M21.73,20.79c.32.53.63,1.05.95,1.58-.44-.47-.8-.98-.95-1.58ZM24.74,23.19c-.14-.3-.28-.6-.42-.9.02,0,.04-.01.06-.02l.44.89s-.05.02-.08.03ZM24.98,25.57c-.03.45-.15.79-.53,1.03.17-.32.33-.65.53-1.03ZM24.46,23.47c-.22-.88-.8-1.59-1.37-2.3.77.63,1.27,1.38,1.37,2.3ZM23.99,23.17c-.24-.89-1.05-1.48-1.45-2.28.56.72,1.37,1.32,1.45,2.28ZM22.08,20.82h.09c.43.58.88,1.16,1.28,1.76.14.21.17.47.27.76-.32-.56-.41-.78-.73-1.16M23.08,22.46s-.03.01-.05.02c-.04-.06-.07-.13-.11-.2.02,0,.04-.02.06-.03.03.07.06.14.1.21ZM25.14,29.68c-.18-.28-.33-.51-.49-.75-.02,0-.04,0-.06.02.09.22.18.45.27.67.06.15.15.3.16.45,0,.11-.1.22-.15.33-.1-.06-.24-.11-.28-.2-.16-.3-.29-.6-.51-.89.07.22.15.45.22.67.04.12.12.24.14.37.01.09-.04.19-.07.29-.11-.05-.27-.07-.32-.15-.17-.3-.31-.62-.46-.93l-.12-.27s-.06,0-.09.02c.1.28.21.56.29.84.03.09,0,.19,0,.29-.11-.04-.29-.06-.33-.13-.16-.28-.33-.57-.41-.88-.15-.52-.24-1.05-.36-1.58.02,0,.04,0,.06,0,.12.31.24.62.36.93.03,0,.05,0,.08-.02,0-.1.02-.2.03-.37.13.23.23.4.33.57.03,0,.06,0,.08-.02-.04-.17-.08-.34-.12-.5.02,0,.04,0,.06-.02.08.16.17.32.25.48.03,0,.05,0,.08-.02-.03-.19-.06-.37-.09-.55.02,0,.04,0,.06-.02.07.16.14.31.21.47.02,0,.03,0,.05,0v-.48c.1.18.15.28.21.38.02,0,.04,0,.07-.02-.04-.13-.09-.27-.14-.42.07.04.11.06.18.09.04-.35.07-.68.1-1.02.47.27,1,1.88.71,2.37v.02ZM26.23,19.86v2.43h-.11c-.04-.84-.08-1.67-.11-2.51h-.1v2.78h-.1c-.04-.99-.09-1.98-.13-2.98h-.1v2.66h-.11c-.04-.95-.08-1.9-.12-2.85h-.08v2.35h-.13c-.03-.88-.07-1.76-.1-2.64h-.09v2.27h-.1c-.07-1.27-.13-2.53-.2-3.8h-.1c.04,1.22.07,2.43.11,3.65h-.14l-.2-4.68h-.02v4.47h-.04c-.05-.42-.11-.84-.15-1.27-.03-.44-.04-.88-.05-1.32s-.02-.88-.02-1.32,0-.87-.07-1.31v4.85h-.07c-.05-.43-.14-.87-.15-1.3-.02-.7.01-1.4.02-2.1v-1.76h-.12v4.81h-.1c-.32-1.76-.35-3.55-.39-5.33h-.13c.08,1.69.15,3.39.23,5.08-.48-1.89-.31-3.81-.31-5.72h-.11c-.01.93-.06,1.87-.03,2.8.02.94.11,1.87.16,2.81-.5-1.92-.38-3.88-.37-5.82-.22,1.86-.12,3.71.02,5.61-.37-.4-.5-3.64-.26-5.95-.03,0-.06,0-.08-.01-.05.33-.15.66-.15,1,.02,1.43.07,2.86.12,4.29v.24h-.09c-.04-.5-.12-.99-.13-1.49-.02-.86.02-1.72.01-2.58,0-.74-.03-1.48.42-2.15-.39.31-.6.85-.6,1.55,0,.74-.01,1.48,0,2.22s.05,1.48.02,2.22c-.05-.38-.13-.76-.14-1.14,0-1.21.02-2.42.03-3.63,0-.47.13-.92.41-1.31.66-.94.91-1.94.71-3.04-.05-.26,0-.54,0-.81h-.1c0,.37.02.73,0,1.1-.04.52-.1,1.05-.17,1.57-.01.1-.1.19-.18.28.39-1.14.13-2.29.12-3.43-.22.98.24,2.02-.33,2.98.42-1.05-.07-2.13.08-3.2-.04.17-.1.34-.13.51-.03.19-.04.37-.06.61-.25-.57.02-1.04.2-1.52-.03,0-.06-.02-.08-.03-.1.2-.21.4-.31.61-.03,0-.07-.01-.1-.02.08-.3.17-.6.27-.97-.11.15-.19.25-.27.35-.02,0-.05,0-.07-.01.15-.84.3-1.69.44-2.54h.05c.04.32.07.63.11.95h.07v-.94h.04c.08.41.17.83.25,1.24.04,0,.08-.01.12-.02-.04-.3-.08-.61-.13-.91h.04c.11.37.23.73.34,1.1.03,0,.06-.01.09-.02-.06-.31-.13-.61-.19-.92.02,0,.04,0,.05-.01.13.36.25.71.38,1.07.03,0,.05-.01.08-.02-.06-.25-.11-.5-.17-.75.02,0,.05-.01.07-.02.1.31.21.62.31.93.03,0,.06-.01.09-.02-.05-.24-.1-.48-.15-.72.02,0,.03,0,.05-.01.13.29.25.58.37.87.03,0,.06-.02.09-.03-.07-.26-.14-.51-.21-.77.02,0,.04,0,.05-.01.13.28.26.55.39.83.03,0,.07-.02.1-.03-.04-.12-.09-.24-.13-.36-.04-.13-.08-.26-.05-.42.14.27.28.53.42.8.02,0,.05-.02.08-.03-.08-.24-.16-.49-.23-.73.03,0,.06-.02.09-.03.11.25.23.5.34.74.03,0,.05-.01.08-.02-.05-.24-.11-.48-.16-.71.02,0,.04,0,.07-.01.1.24.2.47.3.71.02,0,.04,0,.06-.01-.05-.25-.09-.51-.14-.76.02,0,.04-.01.06-.02.04.08.08.16.14.26.04-.14.06-.24.09-.34h.07c-.02.25-.03.51-.05.76h.09c.06-.31.11-.63.17-.94h.08v.72h.09c.05-.33.1-.66.16-.99h.06v.75h.1c.05-.35.09-.7.14-1.04.02,0,.03,0,.05-.01.03.15.06.31.1.46h.04v-.6h.11c.08.57,0,1.14-.14,1.71.34-.61.29-1.26.29-1.91.04,0,.08-.01.11-.02.15.68.29,1.37.44,2.05.04,0,.08,0,.12-.01,0-.08.01-.16,0-.23-.12-.6-.25-1.2-.36-1.8-.01-.07.04-.16.06-.23.08.05.2.08.23.15.12.22.22.46.35.69.03-.34-.14-.64-.22-1.03.1.04.22.06.29.13.35.36.58.78.71,1.25.02.07.09.13.16.18-.03-.69-.48-1.22-.91-1.75l.08-.06c.1.05.2.1.29.16.55.41.95.9,1.14,1.52.17.56.42,1.09.64,1.64.05.14.11.28.09.44-.08-.14-.15-.28-.23-.42-.02,0-.04.01-.07.02.19.5.39,1,.58,1.5-.02,0-.05.02-.08.02-.21-.44-.42-.87-.64-1.3.21.88.75,1.7.57,2.67-.11-.55-.1-1.1-.44-1.52.08.49.17,1.02.26,1.54-.03,0-.07.01-.1.02,0-.51-.13-.99-.46-1.41.1.43.32.84.17,1.31-.12-.39-.23-.76-.34-1.13-.03,0-.06.01-.09.02.05.24.13.48.15.72.02.25-.03.51-.11.75-.05-.42-.09-.84-.14-1.26h-.1v1.21h-.06c-.04-.28-.09-.56-.13-.84h-.11v1.06h-.14v-.93h-.12c-.05.49-.11.99-.16,1.48h-.05c-.02-.35-.04-.7-.06-1.05-.02,0-.04-.01-.06-.02-.04.16-.11.32-.1.48.02.5.09.99.11,1.49,0,.2-.06.4-.09.6h-.08c-.01-.13-.02-.26-.03-.39-.09.34-.04.71-.4.95-.02.04-.04.08-.07.12-.12.18-.24.36-.36.54-.65.91-.8,1.89-.51,2.92.04.14.15.27.23.4.03,0,.07-.02.1-.03v-.48c.3.37-.14.99.64,1.23v-1.27h.13v1.3c.51-.02.58-.09.57-.46v-.96h.1c0,.17.03.35.03.52,0,.18-.02.36-.03.61.43-.48.69-.96.79-1.49.1-.55.4-.94.9-1.25.53-.33.91-.74,1.07-1.35.08.44-.09.96-.51,1.3-.37.3-.42.65-.41,1.05.02.94,0,1.87,0,2.81h-.12v-3.23h-.12c-.04,1.1-.07,2.2-.11,3.31h-.06v-3.01h-.1l-.09,3.24h-.1v-2.62h-.06c-.06.91-.12,1.82-.18,2.73h-.11v-1.18h-.1c-.04.44-.08.88-.12,1.31h-.1v-.73c-.1.31-.05.64-.36.89.02-.31.05-.62.07-.93-.18.49-.02,1.11-.8,1.34-.01-.1-.03-.22-.04-.34h-.04c-.04.18-.08.36-.13.54h-.08c-.02-.19-.04-.37-.06-.55h-.11c-.03.33-.05.66-.08.99h-.15v-1.06h-.15c-.03.49-.07.98-.1,1.48h-.1c-.03-.53-.06-1.07-.09-1.6h-.13v2.03h-.19v-2.17h-.13l.06.07ZM29.02,13.31c-.17.25-.32.51-.51.74-.24.28-.54.51-.77.79-.47.57-.7,1.22-.71,1.93,0,.15-.02.31-.03.46h-.12c-.08-.57-.02-1.14.19-1.69.2-.52.55-.96.98-1.35.32-.29.62-.59.97-.88ZM27.98,30.58c-.04.06-.19.08-.28.07-.04,0-.09-.14-.08-.21.07-.37.15-.74.23-1.11-.03,0-.05,0-.08-.02-.11.33-.21.66-.33.99-.06.16-.03.43-.31.39-.3-.05-.26-.32-.22-.53.06-.34.17-.67.19-1.03-.14.32-.29.64-.43.96h-.12c-.03-.17-.12-.34-.08-.5.15-.69.33-1.38.51-2.07.04-.16.14-.31.3-.45v1.15s.05,0,.07,0c.04-.05.08-.1.18-.22-.01.27-.02.46-.03.64.02,0,.04,0,.06,0,.08-.16.16-.33.24-.49.02,0,.03,0,.05,0-.02.21-.05.42-.07.63.02,0,.05,0,.08.02.07-.2.15-.4.22-.6.02,0,.04,0,.07,0-.02.2-.04.4-.07.61.02,0,.05.02.08.02.07-.19.15-.37.22-.56h.05c-.02.17-.04.35-.05.52.02,0,.04,0,.06.02.08-.2.17-.4.26-.6.02,0,.04,0,.06.02-.03.16-.06.32-.09.49.03,0,.06.02.08.02.2-.54.4-1.07.61-1.61-.26,2.47-.37,2.84-.97,3.18.08-.43.14-.79.2-1.15-.03,0-.05,0-.08-.02-.1.31-.19.63-.3.94-.05.15-.11.31-.21.44l-.02.02Z" fill="#010101"/>
  <path d="M27.5,14.07s-.07-.07-.06-.1c.03-.24.08-.49.1-.73.02-.23,0-.47.05-.7.12.47.17.95-.02,1.42-.02.04-.04.08-.07.12h0Z" fill="#010101"/>
  <path d="M4.99,14.19v-1.83h.02c.03.61.07,1.22.1,1.83h-.12Z" fill="#010101"/>
  <path d="M9.06,11.61c-.08-.43-.16-.86-.24-1.29.03,0,.06-.01.09-.02.08.43.17.85.25,1.28-.04,0-.07.02-.11.02h.01Z" fill="#010101"/>
  <path d="M5.28,12.83l.09,1.5c-.23-.49-.11-.99-.09-1.5Z" fill="#010101"/>
  <path d="M5.6,14.46c-.05-.32-.11-.65-.16-.97.03,0,.06,0,.09-.01.06.32.11.65.17.97-.03,0-.06.01-.1.02h0Z" fill="#010101"/>
  <path d="M5.77,13.79c.12.26.24.53.37.79l-.08.03c-.14-.26-.27-.52-.41-.78.04-.01.08-.03.12-.04Z" fill="#010101"/>
  <path d="M23.44,18.85v-3.55h.05v3.56h-.05Z" fill="#010101"/>
  <path d="M23.11,9.89c.04.36.07.73.11,1.09h.03c.03-.21.07-.42.1-.63.06.48-.02.94-.32,1.38.03-.34.09-.65.09-.96s-.06-.59-.1-.89h.09Z" fill="#010101"/>
  <path d="M27.29,12.32c.16.73.08,1.52-.14,1.82.05-.61.09-1.21.14-1.82Z" fill="#010101"/>
  <path d="M27.11,12.81c-.03.5-.06,1.01-.1,1.51h-.09c.03-.5.07-1.01.1-1.51h.09Z" fill="#010101"/>
  <path d="M26.55,14.57c.09-.42.17-.8.25-1.17.12.22,0,.85-.25,1.17Z" fill="#010101"/>
  <path d="M29.67,7.83l-.41-1.06s.03-.01.05-.02c.16.34.32.69.48,1.03-.04.01-.08.03-.12.04h0Z" fill="#010101"/>
  <path d="M26.52,13.88c-.09.22-.17.44-.26.67-.03,0-.06-.02-.09-.03.09-.22.19-.44.28-.66.02,0,.04.01.07.02Z" fill="#010101"/>
  <path d="M23.7,2.17c.16.27.41.3.98.13-.1-.05-.18-.09-.26-.13.29-.03.69.14.81.35.11.19,0,.41-.23.49-.05.02-.12,0-.16.03-.41.17-.8.28-1.22,0-.17-.11-.45-.15-.52-.28-.13-.23.14-.36.34-.48.07-.04.16-.06.27-.1h0Z" fill="#010101"/>
  <path d="M25.43,4.12c-.75.26-1.44.6-2.14.05v-.1c.16.02.34.02.48.07.29.11.56.1.85,0,.24-.08.49-.22.8-.03h0Z" fill="#010101"/>
  <path d="M29.49,5.49c-.07-.29-.11-.45-.18-.75.03,0,.06,0,.09-.01.04.3.07.46.11.77h-.02Z" fill="#010101"/>
  <path d="M8.02,2.18c-.02.06-.04.13-.09.26.18-.04.38-.03.44-.11.17-.21.36-.1.5-.03.13.07.29.23.29.35s-.17.29-.3.33c-.24.07-.5.09-.68.28-.04.04-.2.01-.3-.02-.17-.06-.34-.13-.5-.22-.15-.08-.38-.18-.41-.3-.03-.12.11-.33.25-.41.22-.12.49-.16.74-.23.02.03.03.06.05.09h.01Z" fill="#010101"/>
  <path d="M9.04,4.13c-.79.52-1.5.34-2.21,0,0-.03,0-.06-.01-.09.12,0,.26-.05.37-.02.49.15.97.28,1.48.05.08-.04.21.02.37.05h0Z" fill="#010101"/>
</svg>